<svg width="16" height="16" viewBox="0 0 16 16" fill="none" xmlns="http://www.w3.org/2000/svg">
<g clip-path="url(#clip0_86_482)">
<path d="M10 14H14V16H10V14ZM10 0H14V2H10V0ZM2 6H6V10H2V6ZM2 5C2 4.20435 2.31607 3.44129 2.87868 2.87868C3.44129 2.31607 4.20435 2 5 2H6V6H2V5ZM14 3C14 3.79565 13.6839 4.55871 13.1213 5.12132C12.5587 5.68393 11.7956 6 11 6H10V2H14V3ZM6 2H10V6H6V2ZM14 10H16V14H14V10ZM0 10H2V14H0V10ZM10 13C10 12.2044 10.3161 11.4413 10.8787 10.8787C11.4413 10.3161 12.2044 10 13 10H14V14H10V13ZM6 11C6 11.7956 5.68393 12.5587 5.12132 13.1213C4.55871 13.6839 3.79565 14 3 14H2V10H6V11Z" fill="white" fill-opacity="0.2"/>
</g>
<defs>
<clipPath id="clip0_86_482">
<rect width="16" height="16" fill="white"/>
</clipPath>
</defs>
</svg>
