<svg width="16" height="16" viewBox="0 0 16 16" fill="none" xmlns="http://www.w3.org/2000/svg">
<path d="M14 10H16V14H14V10ZM0 10H2V14H0V10ZM2 10H6V11C6 11.7956 5.68393 12.5587 5.12132 13.1213C4.55871 13.6839 3.79565 14 3 14H2V10ZM6 2H10V6H6V2ZM10 2H11C11.7956 2 12.5587 2.31607 13.1213 2.87868C13.6839 3.44129 14 4.20435 14 5V6H10V2ZM2 6H6V10H2V6ZM2 5C2 4.20435 2.31607 3.44129 2.87868 2.87868C3.44129 2.31607 4.20435 2 5 2H6V6H2V5ZM10 6H14V10H10V6ZM10 10H14V14H13C12.2044 14 11.4413 13.6839 10.8787 13.1213C10.3161 12.5587 10 11.7956 10 11V10Z" fill="white" fill-opacity="0.2"/>
</svg>
