<svg width="598" height="330" viewBox="0 0 598 330" fill="none" xmlns="http://www.w3.org/2000/svg">
<path fill-rule="evenodd" clip-rule="evenodd" d="M240.452 11L242.753 11.4714L245.153 11.9821L246.49 12.2571L247.532 12.4731L248.496 12.7285L248.535 12.6892L248.693 12.7481L248.988 12.6695L249.066 12.7088L249.204 12.6499L249.322 12.5321L249.381 12.5713L249.617 12.6499L249.774 12.591L249.951 12.7285L250.05 12.7481L250.109 12.7088L250.246 12.7678L250.286 12.807L250.482 12.8463L250.738 13.0035L250.718 13.0624L250.836 13.1213L250.876 13.2588L251.033 13.357L251.171 13.3766L251.348 13.357L251.426 13.3963L252.233 13.4945L253.668 13.848L254.219 14.0248H254.612L255.596 14.2409L256.54 14.4569L258.703 14.8694L260.217 15.164L262.951 15.6944L264.524 16.0283L265.842 16.3622L267.061 16.539L270.267 17.2461L271.86 17.5603L273.237 17.8157L274.122 18.0317L274.318 18.0907L278.94 19.0138H279.078L278.979 19.3477L278.291 20.428L278.527 20.6637H279.156L279.255 20.8012L279.294 21.2333L278.94 22.7654L278.586 23.826L280.415 23.0993L280.808 22.9814L282.047 22.3529L284.289 21.4494H284.643L285.194 21.1351L288.36 19.7406L288.852 19.7209L289.698 19.7406L291.959 19.7013L293.395 19.8191L294.516 19.7406L297.151 19.7602L297.997 19.7995V19.8388L299.944 19.7602L300.337 19.8977L302.481 19.7995L302.953 19.7013L303.11 19.7798L303.818 19.8191L303.799 20.8994L303.386 21.9404L302.973 23.0011L302.579 24.0421L302.383 24.4939L302.422 24.7099L302.501 25.0438L302.678 25.2992L302.914 25.9081L303.032 26.2027L303.189 26.458L303.268 26.8116L303.346 27.1455L303.189 27.3812L302.973 27.5972L302.697 27.7544L302.52 28.0097L302.383 28.1276L302.088 30.2489L301.93 31.2899L301.832 31.8988L300.888 32.9202L299.865 33.9612L298.921 35.0022L297.918 36.0235L297.623 36.3182L297.486 36.5932L297.309 36.8485L297.191 37.1431L297.112 37.5163L297.073 37.9091V38.3216L297.053 38.7537V39.1859L297.191 40.6983L297.21 41.0911L297.23 41.4643L297.328 41.7982L297.486 43.7231L297.466 44.1159V44.5481V44.9802V45.4123L297.407 45.7855L297.348 46.1587L297.25 46.4926L297.151 46.8265L297.073 47.1604L296.876 47.4157L296.778 47.7104L296.424 48.2014L296.148 48.7907L296.129 48.9674L296.109 50.0084L295.853 54.2314L295.814 55.2921L295.676 57.3937L295.617 57.8651L296.66 58.5919L297.702 59.3579L298.744 60.0846L300.829 61.5774L301.871 62.3238L302.914 63.0702L303.936 63.7969L304.979 64.5433L306.021 65.2897L308.106 66.7825L309.148 67.5092L310.19 68.2556L311.213 69.002L312.137 69.6502L313.16 70.2787L314.281 71.1822L315.068 71.7715L316.169 72.4L317.211 73.0285L318.352 73.5589L319.394 74.2267L320.437 74.8356L322.521 76.1712L323.564 76.8194L326.691 78.8032L327.733 79.4121L328.756 80.0799L329.798 80.7281L330.585 81.2584V82.3191L330.663 83.3601L330.762 85.4814L330.821 86.5224L330.88 87.583L330.899 88.6437L330.939 88.7223V89.7829L331.017 90.8436L331.076 91.6292L331.273 91.8649L331.43 92.1203L331.548 92.3953L331.627 92.7488V93.1613L331.568 93.5345L331.489 93.888L331.391 94.222L331.253 94.5166L331.175 94.8308L331.057 95.1844L331.096 97.3646L331.155 98.4253L331.175 99.4859L331.057 100.959L331.234 101.352V101.588L331.273 101.882L331.489 102.02L331.686 102.236L331.725 102.609L331.627 102.923L331.489 103.237L331.312 103.434L331.352 105.555L331.391 105.673L330.821 106.714L330.231 107.735L329.66 108.776L329.523 108.993L329.68 109.15L329.916 109.759L330.25 110.269L330.408 110.525L330.644 111.133L330.722 111.467L330.762 111.841L330.821 112.174L330.939 112.469L331.175 112.685L331.509 112.705L331.745 112.548L332.001 112.391L332.197 112.135L332.394 111.919L332.61 112.057L332.728 112.351L332.886 112.862L332.984 114.001L333.043 114.335L333.22 116.24L333.2 116.653L333.24 117.046V117.458L333.22 117.871L333.318 119.01L333.377 119.363L333.456 119.697L333.535 120.031L333.613 120.365L333.653 120.738L333.712 121.092L333.83 121.386L333.948 121.74L334.066 122.015L334.184 122.251L334.302 122.526L334.479 122.781L334.872 123.233L335.206 123.743L335.403 123.94L335.816 124.392L336.072 124.549L336.465 125.001L336.681 125.197L337.094 125.649L337.35 126.022L337.625 126.277L337.901 126.749L338.235 127.259L338.628 127.691L338.805 127.947L338.963 128.202L339.376 128.634L339.769 129.066L339.985 129.282L340.221 129.459L340.733 129.793L340.929 130.029L341.185 130.186L341.677 130.539L341.952 130.677L342.463 131.031L342.955 131.384L343.171 131.6L343.407 131.777L343.565 132.032L343.919 132.916L343.997 133.25L344.076 133.584L344.233 133.839L344.568 134.37L344.764 134.566L345.158 135.018L345.492 135.528L345.649 135.784L345.767 136.059L345.846 136.412L345.925 136.746V137.178L345.964 137.552V137.944L346.062 138.259L346.18 138.573L346.338 138.828L346.456 139.123L346.534 139.457L346.593 140.125L346.633 140.517L346.593 141.342V141.775L346.534 142.148L346.436 142.482L346.397 142.855L346.456 143.189L346.377 143.523L346.318 143.915L346.357 144.289L346.416 144.623L346.652 145.212L346.613 145.585L346.593 146.017L346.534 146.39V146.822V147.215L346.554 147.608L346.633 147.942L346.711 148.276L346.77 148.61L346.888 148.924L346.987 149.258L347.065 149.435L346.987 151.517L347.006 152.558L346.987 153.618V154.679L346.967 155.72L346.987 156.761L346.947 157.802L346.967 158.863L346.947 159.904L346.908 160.964L346.928 162.006L346.888 163.047L346.908 164.107L346.869 165.148L346.908 165.698L346.888 167.348L346.869 168.841V169.764L347.596 170.825L348.344 171.905L349.052 172.887V173.201L348.953 173.535L348.599 174.026L348.442 174.282L348.304 174.576L348.147 174.812L348.009 175.107L347.813 175.362L347.557 175.519L347.262 175.637L347.183 175.971L347.164 176.305L347.085 176.639L346.947 176.914L346.849 177.247L346.79 177.621L346.77 178.053V178.485L346.81 178.858L346.613 179.506L346.436 179.762L346.18 180.351V180.685L346.416 180.842L346.751 180.94L347.026 181.078L347.282 181.254L347.478 181.372L347.459 182.472V183.513L347.557 188.738V189.799V190.84V191.468L347.577 191.9L347.596 192.941L347.557 193.982L347.596 196.084V197.125L347.675 201.309V202.369V203.273V204.333V205.355V206.415V207.456V208.497V209.538V210.579V211.64V212.544L347.793 213.094L347.832 213.486L347.911 213.82L347.931 214.194L348.029 214.527L348.049 214.901L348.029 215.333L348.147 216.452V216.826L348.029 217.12L347.911 217.415L347.773 217.69L347.754 218.043L347.793 220.125V221.166L347.852 222.207L347.872 223.248V224.289L347.891 225.35L347.95 226.332L348.049 226.646L348.147 226.98L348.206 227.314L348.285 227.648L348.363 228.414V228.787L348.403 229.141V229.573L348.363 230.398L348.462 230.732L348.521 231.085L348.757 231.675L348.698 231.812L348.619 231.95L348.54 232.303L348.442 232.617L348.383 232.991L348.462 233.757L348.442 234.169L348.481 234.542L348.462 234.955L348.403 235.348L348.324 235.662L348.265 236.035L348.167 236.369L348.068 237.115L348.029 238.196L348.088 241.319V242.379L348.108 243.42L348.147 243.754L348.108 244.795L348.088 245.836L348.108 246.877L348.068 247.918L348.088 248.959L348.049 250.02L348.068 251.041L348.029 252.082L348.049 253.123L348.029 254.164V255.225L348.009 256.246L347.99 257.287V258.348L347.97 259.369L347.99 260.43L347.95 261.471L347.97 262.493L347.931 263.553L347.95 264.339L345.866 264.28H344.823L343.781 264.26L342.916 264.241V264.496L342.975 264.83L342.955 265.282L343.053 265.792L343.171 265.91L343.427 266.362L343.624 266.774L343.938 267.54L344.135 267.58L344.214 267.737V267.933L344.174 268.012V268.208L344.096 268.562L344.037 268.66L344.017 268.778L344.076 268.955L344.312 269.21L344.371 269.446L344.41 269.524L344.627 269.622L344.882 269.681L345.04 269.701L345.177 269.78L345.433 269.858L345.61 269.799H345.708L345.767 269.897L345.728 270.172V270.31L345.63 270.487L345.551 270.663L345.571 270.821L345.708 270.938L345.826 271.233L345.846 271.371L345.728 271.665L345.649 271.724L345.472 271.763L345.374 271.803L345.276 271.901L345.217 272.019V272.235L345.236 272.372L345.315 272.569L345.374 272.903L345.453 273.61L345.472 273.944L345.335 274.14L345.236 274.356L345.433 274.474L345.512 274.611L345.708 274.592L345.984 274.494L346.141 274.553V274.71L346.062 274.867L345.767 274.945L345.551 275.044L345.374 275.338L345.099 275.672L345.059 275.967L345.04 276.261L345.197 276.379L345.826 276.438L346.102 276.595L346.22 276.851V277.086L346.043 277.44L345.885 277.676V277.951L346.023 278.167L346.2 278.324L346.377 278.422L346.593 278.52L346.869 278.442L346.908 278.599L346.77 278.795L346.495 278.854L346.318 279.031V279.286L346.593 279.365L346.672 279.502L346.751 279.738L346.79 280.033L346.652 280.229L345.866 280.268L345.669 280.288L345.433 280.445L345.394 280.956L345.158 281.133L345.138 280.975L345.177 280.838L345.256 280.661L345.197 280.563L345.059 280.484L344.823 280.622V281.015L344.863 281.231L344.686 281.486L344.764 281.741L344.941 281.84L345.02 281.997L344.981 282.174L344.666 282.35L344.351 282.704L344.273 282.9L344.174 282.841H343.899L343.879 283.018L344.233 283.293L344.351 283.273L344.391 283.097L344.528 283.057L344.666 283.195L344.784 283.45L344.745 283.568L344.627 283.725L344.666 283.882L344.823 283.863L345 283.686L345.158 283.764L345.295 284.079L345.453 284.138L345.708 284.314L345.846 284.452V284.747L345.649 284.864L345.748 285.022L345.826 285.198L346.22 285.159L346.318 285.277L346.298 285.473L346.121 285.689L345.807 285.65H345.531V286.18L345.649 286.279L345.767 286.298L345.807 286.416L345.767 286.554L345.59 286.671L345.63 286.829L345.708 286.888L345.866 286.789L346.082 286.75L346.102 286.927V287.261L346.023 287.418L346.003 287.575L346.318 287.811L346.515 287.909L346.652 288.046L346.731 288.184L346.849 288.282L346.967 288.204L347.105 288.145L347.262 288.204L347.518 288.302L347.596 288.42L347.695 288.596V288.812L347.773 288.95L347.872 289.009L348.068 289.166L348.186 289.284V289.48H348.481L348.56 289.578L348.58 289.893L348.678 289.912L348.835 289.755L348.953 289.618L349.13 289.5L349.445 289.618V289.853L349.366 290.011L349.288 290.07L349.111 289.952L348.993 289.893L348.875 289.912L348.894 290.089L349.052 290.286L349.189 290.344L349.366 290.364L349.484 290.423L349.543 290.541L349.524 290.914L349.602 291.012L349.681 291.091L349.858 291.071L349.976 290.934L350.114 290.639L350.232 290.58L350.369 290.6L350.468 290.678L350.507 291.052L350.546 291.248L350.645 291.366L350.881 291.189L350.999 291.13L351.136 291.091L351.294 291.11L351.195 291.385L351.097 291.503L351.038 291.621L351.117 291.759L351.53 292.152L351.49 292.269L351.392 292.289V292.387L351.589 292.525V292.603L351.49 292.682L351.412 292.898L351.471 293.114L351.549 293.546L351.53 293.703L351.412 293.625L351.353 293.526L351.235 293.35L351.058 293.251L350.94 293.291L350.979 293.546L351.077 293.625L351.156 293.841L351.058 294.194L351.235 294.273L351.471 294.135L351.569 294.116L351.608 294.214L351.589 294.43L351.628 294.548L351.746 294.587L351.903 294.509L351.982 294.43L352.1 294.253L352.12 294.194L352.218 294.214L352.198 294.253L352.277 294.351L352.454 294.45L352.474 294.528V294.803L352.552 294.921L352.67 294.96L352.769 294.921L352.887 294.941L352.946 294.98L352.965 295.117L353.044 295.176L353.221 295.255L353.398 295.196L353.555 295.176L353.713 295.196L353.752 295.432L353.437 295.687L353.319 295.766L353.339 295.903L353.536 296.001H353.614L353.634 295.746L353.693 295.726L353.909 295.883L354.008 295.923L354.145 296.06L354.303 296.099L354.499 295.942L354.598 295.982L354.637 296.06V296.296L354.421 296.335L354.244 296.669L354.283 296.728L354.499 296.767H354.657L354.716 296.826L354.952 296.866L354.932 296.924L354.775 297.003L354.696 297.082L354.657 297.199L354.716 297.671L354.814 297.828L354.912 297.926L355.07 298.005H355.188L355.345 298.083L355.424 298.182L355.443 298.515L355.542 298.614L355.62 298.633L355.817 298.594L355.974 298.81L356.191 298.889V298.987L356.112 299.124H355.994L355.896 298.967L355.797 298.948L355.679 299.085L355.64 299.242L355.62 299.478L355.542 299.576L355.345 299.674L355.286 299.733L355.365 300.087L355.404 300.126L355.797 300.106L355.935 300.047L356.033 300.067V300.146L355.994 300.205L355.817 300.303L355.679 300.421L355.522 300.715L355.542 300.755L355.758 300.774L355.837 300.833L355.876 300.931V301.206L355.935 301.403L356.053 301.422L356.545 301.481L356.564 301.56L356.505 301.796L356.407 302.188L356.446 302.424L356.564 302.719L356.604 303.131L356.682 303.465L356.604 303.622L356.328 303.74L356.25 303.858L356.368 303.976L356.623 304.035L356.702 304.094L356.722 304.172L356.643 304.27L356.525 304.408L356.545 304.585L356.682 304.604L356.82 304.487L356.938 304.447L357.017 304.526L356.958 304.722V304.899L357.017 305.017L357.213 305.076L357.272 305.174V305.37L357.213 305.842L357.135 305.979L357.017 306.019L356.781 306.038L356.722 306.117L356.82 306.215L357.036 306.274L357.076 306.372L357.036 306.47L356.997 306.627L357.036 306.706L357.194 306.804L357.469 306.883L357.626 306.942L357.784 307.079L358 307.295L357.39 307.59L357.626 307.806L357.312 307.885L356.918 307.904L356.545 307.845L356.171 307.885L355.915 308.061L355.66 308.238L355.365 308.356H355.03L354.617 308.336L354.283 308.415L354.027 308.572L353.811 308.788L353.496 308.768L353.162 308.69L352.788 308.709L352.572 308.926L352.316 309.063L351.923 309.102L351.608 309.004L351.313 309.142L351.058 309.279L350.782 309.24L350.487 309.102L350.153 309.181L349.937 309.397L349.76 309.633L349.465 309.75L349.15 309.652H348.816L348.56 309.79L348.304 309.967L347.793 310.281L347.459 310.359L347.164 310.477L347.203 310.556L346.829 310.615L346.692 310.634L346.515 310.654L346.259 310.713H346.161L345.826 310.792L345.767 310.929L345.492 310.988L345.433 311.027L345.059 311.106L344.981 311.145L344.764 311.165L344.253 311.263L343.309 311.4L342.837 311.479L342.522 311.558L342.306 311.636L341.834 311.734L341.814 311.793L341.677 311.813L341.657 311.852L341.46 311.891V311.931L341.165 311.97V311.99L340.811 312.049L340.772 312.088H340.438L340.398 312.147H340.261H339.926L339.789 312.206H339.572L339.258 312.265L338.373 312.461L338.333 312.481L338.058 312.559L337.861 312.599L337.684 312.657L336.583 312.932L336.268 312.991L335.954 313.07L335.777 313.109L335.501 313.168L335.147 313.286L334.833 313.365L334.459 313.423L333.948 313.6L333.79 313.64L333.731 313.679L333.574 313.718L333.397 313.777L332.925 313.856L332.709 313.915L332.63 313.954L332.374 314.013L332.099 314.091H332.04L331.863 314.17L331.607 314.248L331.43 314.327L331.194 314.406L330.84 314.484L330.722 314.543L330.467 314.641L330.132 314.739L329.955 314.759L329.857 314.818L329.641 314.857L329.582 314.897L329.385 314.956L329.228 315.034L328.952 315.132L328.559 315.289L328.48 315.309L328.264 315.388L327.969 315.447L327.595 315.584L327.379 315.643L327.025 315.761H326.946L326.848 315.879L326.671 315.977V316.488L326.651 316.036L326.317 316.114L326.396 316.193L326.356 316.252L326.258 316.173L326.12 316.213L326.258 316.33L326.238 316.37L326.101 316.252L326.061 316.291L326.376 316.605L326.533 316.664L326.514 316.704L326.297 316.684L325.884 316.704H325.589L325.412 316.723L324.96 316.763L324.704 316.822L324.409 316.939L324.173 316.979L323.996 317.057L323.387 317.214L323.052 317.313L322.797 317.411L322.403 317.568L321.931 317.705L321.813 317.784L321.184 318V317.332V316.979L321.164 316.468L321.184 315.643L321.164 315.054L321.184 314.563L320.928 314.543H319.847H314.183L314.143 314.523V313.443L314.084 313.384L313.966 313.227L313.907 313.011L313.77 312.893L313.671 312.677L313.514 312.481L313.317 312.206L313.219 312.127L313.199 311.911L313.081 311.695V311.479L312.944 311.263L312.747 311.066L312.629 310.949L312.511 310.733L312.373 310.575H312.196L312.157 310.634L312.059 310.654L311.882 310.575L311.764 310.477L311.567 310.458L311.429 310.399L311.311 310.183L311.154 310.104L311.115 309.927L311.075 309.908L310.918 309.613L310.8 309.534L310.761 309.436L310.584 309.279L310.564 309.201L310.603 309.063L310.485 308.867L310.367 308.651L310.328 308.474L310.19 308.179L310.151 308.002V307.708L310.112 307.452L309.994 307.256L309.777 307.158L309.62 306.961L309.522 306.667L309.541 306.352L309.443 305.94L309.463 305.744L309.541 305.685V305.488L309.62 305.331L309.581 305.233L309.6 305.056L309.502 304.938L309.522 304.761L309.463 304.644L309.325 304.447L302.658 304.585L302.579 304.349L302.52 304.231L302.363 304.035L302.304 303.642L302.186 303.426L301.93 303.112L301.753 302.994L301.596 302.758L301.537 302.562L301.458 302.463L301.222 302.287L300.986 302.051L300.908 301.913L300.829 301.855L300.77 301.717L300.691 301.697L300.554 301.599L300.475 301.501L299.197 300.715L296.384 300.008L295.991 298.515L293.985 297.848L293.651 295.471L292.962 295.196L292.628 295.058L292.569 295L292.313 294.626L292.136 294.312L292.117 294.214L292.058 293.526L291.861 292.859L291.743 292.682L291.9 292.485L291.94 292.368L292.058 292.171L292.176 292.093L292.274 291.955L292.333 291.975L292.431 291.896L292.471 291.818L292.608 291.719L292.726 291.621L292.766 291.503L292.746 291.444L292.805 291.464L292.982 291.287L293.1 291.248L293.297 291.091L293.316 291.032L293.434 290.953H293.513L293.611 290.875L293.67 290.757L293.808 290.718L293.867 290.639L293.493 289.343L292.707 288.753L291.684 289.048L291.35 289.087L291.271 289.127L291.232 289.087H291.055L290.937 289.048L290.661 288.97L290.465 288.95L290.347 288.871L290.248 288.832L290.091 288.734L290.052 288.655L290.032 288.537L290.386 288.596L290.465 288.479L290.347 288.439L290.366 288.361L290.248 288.282L290.189 288.302L290.13 288.184L289.973 288.105V288.027L289.776 287.929L289.698 287.811L289.54 287.732L289.481 287.654L289.363 287.536L289.206 287.693L289.226 287.791L289.167 287.889L288.99 287.83L288.872 287.85L288.931 287.968L288.891 288.027L288.99 288.066L288.931 288.125L288.813 288.086L288.518 287.948L288.4 287.929L288.321 287.712L288.164 287.595L288.065 287.379L288.085 287.202L288.065 287.143L287.967 287.064L287.908 287.045L287.849 286.829L287.77 286.77L287.633 286.593L287.574 286.436L287.436 286.416L287.338 286.357H287.22L287.141 286.318L287.161 286.141L287.22 286.082L287.357 286.063L287.338 285.964H287.18L287.102 285.886V285.807L287.161 285.748L287.22 285.63L287.239 285.513L287.298 285.355V285.238L287.318 285.1L287.298 285.061L287.456 284.963L287.495 284.806V284.668L287.534 284.452L287.633 284.354L287.81 284.098L287.947 283.863L287.829 283.725L287.77 283.568L287.79 283.49V283.234L287.751 283.156L287.534 283.018L287.613 282.881L287.593 282.782L287.652 282.586L287.593 282.468L287.692 282.252L287.81 282.193V282.095L287.731 282.056L287.711 281.997L287.751 281.859L287.81 281.82L287.751 281.702L287.81 281.682L287.77 281.604L287.849 281.525L287.751 281.506L287.77 281.388L287.652 281.25L287.534 281.152L287.495 280.975V280.916L287.613 280.897L287.534 280.7L287.652 280.641L287.711 280.504V280.425L287.751 280.308L287.869 280.249L287.888 280.131L287.928 280.15L287.967 280.072L287.869 279.875L287.77 279.836L287.692 279.758H287.633L287.495 279.62L287.416 279.659L287.377 279.6H287.239L287.18 279.522L287.062 279.502L286.984 279.463L287.003 279.404L286.846 279.306L286.61 279.424L286.492 279.443L286.413 279.325H286.354L286.335 279.208L286.177 279.129L286.158 279.011L286.079 278.972L286.059 279.09L285.922 279.188L285.804 279.09L285.725 279.227H285.666L285.568 279.306L285.509 279.267L285.469 279.443L285.351 279.365L285.214 279.149L285.155 279.109L285.017 278.874L284.86 278.854L284.801 278.893L284.722 278.854L284.643 278.736L284.466 278.638L284.27 278.658L284.211 278.579L284.034 278.559L283.837 278.579L283.581 278.304L283.601 278.186H283.503V278.088L283.365 277.872L283.286 277.833L283.306 277.754L283.404 277.852L283.581 277.833L283.601 277.774L283.503 277.754L283.424 277.636L283.247 277.479L283.129 277.42V277.342H282.972L282.932 277.263L283.129 277.145V277.126H282.991L282.952 277.047L282.913 276.91L283.011 276.87L283.07 276.693L283.129 276.674V276.595L283.07 276.497V276.399L283.168 276.419L283.109 276.222L283.188 276.144L283.345 276.281L283.404 276.242L283.503 276.32V276.261L283.601 276.144L283.581 276.045L283.503 276.006L283.522 275.967L283.68 275.888L283.739 275.829L283.621 275.751H283.522L283.286 275.613L283.208 275.692L283.07 275.613L283.149 275.436L283.05 275.377L283.031 275.417L282.913 275.377L282.893 275.299L282.932 275.22L282.913 275.122L283.031 275.063L282.972 274.906H282.913L282.834 274.749L282.716 274.69L282.657 274.71L282.618 274.769L282.539 274.71L282.48 274.592L282.264 274.513L282.165 274.395H282.087L281.87 274.258L281.831 274.179L281.713 274.199L281.674 274.278L281.595 274.376L281.674 274.435L281.713 274.494L281.674 274.572H281.477L281.359 274.631L281.28 274.71H281.202L281.123 274.631L280.848 274.474L280.887 274.278L280.985 274.219L281.005 274.14L280.808 274.219L280.789 272.765H280.926L280.985 272.706H281.044L281.182 272.628L281.379 272.588L281.497 272.51L281.536 272.313L281.516 272.254L281.3 272.038L281.221 271.901L281.143 271.822V271.763L281.084 271.744L281.025 271.646L281.044 271.587L281.162 271.547L281.28 271.587L281.359 271.508L281.556 271.43L281.674 271.41L281.988 271.312L282.283 271.096L282.362 270.938L282.441 270.899L282.421 270.801L282.46 270.585L282.421 270.526L282.578 270.192L282.677 270.015L282.696 269.917L282.657 269.662L282.755 269.583L282.696 269.485L282.755 269.367L282.736 269.19L282.893 269.053V268.837L282.854 268.758L282.755 268.68L282.696 268.562L282.657 268.542L282.5 268.385L282.441 268.405L282.165 268.346L281.949 268.444L281.91 268.169L281.851 268.051L281.831 267.953L281.792 268.071L281.674 268.11L281.516 267.953L281.3 267.914L280.494 267.639L280.454 267.56L280.356 267.58L280.277 267.521L280.336 267.462L280.317 267.383L280.218 267.265L280.376 267.049L280.474 266.794L280.317 266.578L280.336 266.499L280.238 266.46L280.376 266.303L280.435 266.264L280.395 266.185L280.277 266.107V266.028L280.179 265.989L280.218 265.812L280.277 265.694L280.494 265.733L280.553 265.694L280.966 265.478L281.064 265.301L281.162 265.144L281.241 265.085L281.359 264.928L281.438 264.83L281.536 264.771H281.634L281.693 264.692L281.811 264.614L282.008 264.555L282.165 264.594L283.168 264.3L283.286 264.378L283.424 264.398L283.621 264.476L283.758 264.437L284.034 264.3L284.152 264.201L284.329 264.123L284.388 264.044L284.584 263.926L284.643 263.887L284.761 263.691L284.643 263.592L284.506 263.455L284.643 263.298L284.781 263.239L284.801 263.16L284.978 262.925L285.155 262.709L285.214 262.591L285.194 262.473L285.096 262.335L285.017 262.159L285.037 262.001L285.096 261.923L285.233 261.884L284.801 260.411V260.253L284.879 260.155H284.938L285.174 259.664V259.605L285.273 259.586L285.351 259.369L285.41 259.311L285.489 259.173L285.528 259.055L285.607 258.957L285.666 258.761V258.603H285.804L285.764 258.505L285.804 258.27L285.646 258.211V258.093L285.804 258.054L285.764 257.877L285.705 257.837L285.646 257.661L285.332 257.543L285.233 257.582L285.096 257.562L285.017 257.484L284.958 257.229L284.801 257.17L284.742 257.13H284.624L284.506 257.248L284.407 257.287L284.447 257.091L284.506 257.012L284.525 256.875L284.663 256.777V256.679L284.722 256.05L284.761 255.932L284.86 255.893H284.978L285.135 255.814L285.174 255.657L285.273 255.441L285.292 255.264L285.351 254.989L285.273 254.891L285.233 254.714L285.351 254.754H285.489L285.627 254.675L285.745 254.636L285.922 254.479L285.961 254.302L286.02 254.184L285.981 254.066L286.04 253.909L286.059 253.693L286 253.614L285.804 253.516V253.457L285.863 253.3L285.961 253.006H286.099L286.197 252.907L286.315 252.868L286.413 252.947L286.551 252.632L286.571 252.534L286.708 252.279L286.728 252.161L286.767 252.063V252.004L286.866 251.709L286.905 251.65L286.984 251.493V251.199L287.023 251.12L287.043 251.002L287.082 250.884L287.161 250.511L287.259 250.315L287.318 250.04L287.259 249.883L287.298 249.784L287.377 249.745L287.298 249.588L287.436 249.352L287.456 249.215L287.475 248.9L287.515 248.822L287.554 248.645L287.593 247.251L287.574 246.995L287.593 246.917L287.652 246.877L287.672 246.406L287.751 246.229L287.849 246.19L287.947 246.347L288.085 246.288L288.065 246.19L288.026 245.993L287.987 245.895L288.026 245.718L287.967 245.522L288.124 245.404L288.203 245.306L288.262 245.267L288.419 245.031L288.478 244.776L288.419 244.638L288.124 243.715L288.183 243.519L288.046 243.381L288.006 243.263L287.928 242.91L287.967 242.812L287.947 242.635L287.908 242.517L287.888 242.36L287.849 242.32L287.534 241.692L287.515 241.613L287.436 241.496L287.475 241.299L287.554 241.24L287.574 241.142L287.751 241.122L287.928 241.004L287.888 240.926L287.79 240.867L287.711 240.651V240.572L287.574 240.258L287.534 240.081L287.633 240.003L287.652 239.944L287.633 239.728L287.613 239.669L286.984 239.512L286.708 239.747L286.63 239.453L286.531 239.355V239.237L286.472 239.099L286.374 239.178L286.236 239.099L286.138 238.962H286.04L285.961 239.06H285.745L285.469 239.237L285.43 239.355L285.273 239.453L285.076 239.433L284.879 239.708L284.034 239.983L283.05 240.219L282.952 240.121L282.854 239.944L282.677 239.846H282.559L282.441 239.669L282.382 239.63L282.323 239.512L282.185 239.414H282.126L281.929 239.099V238.942L281.792 238.903L281.693 238.844L281.654 238.785V238.687L281.556 238.628L281.516 238.549L281.575 238.471L281.477 238.333L281.438 238.431H281.379L281.32 238.372L281.241 238.392L281.202 238.215L281.143 238.117H281.064L281.162 237.96L281.143 237.921L281.221 237.881L281.162 237.764L281.182 237.665L281.123 237.548L281.162 237.528L280.985 237.351L281.025 237.273L281.005 237.174L280.926 237.135L280.867 237.057L280.985 236.86L280.946 236.84H280.789V236.723L280.867 236.782L280.966 236.664H280.907L280.848 236.585L280.946 236.526L280.926 236.448L280.789 236.408V236.349L280.867 236.33L280.848 236.251L280.769 236.212L280.69 236.232L280.631 236.173L280.415 236.212L280.454 236.29H280.297L280.258 236.389H280.159V236.29L280.218 236.271L280.258 236.173L280.1 236.094L280.12 235.996L280.1 235.917L280.159 235.937L280.297 235.858L280.199 235.78L280.258 235.701L280.277 235.544L280.179 235.583L280.1 235.466L280.159 235.387L280.14 235.308L280.199 235.23L280.415 235.171L280.454 235.014L280.494 235.033L280.651 234.935L280.73 234.837L280.651 234.758L280.553 234.837L280.494 234.7L280.513 234.601L280.671 234.503L280.513 234.444L280.474 234.326L280.553 234.287L280.494 234.11L280.395 234.13L280.297 233.992L280.395 233.776L280.317 233.678V233.541L280.356 233.462L280.218 233.403L280.258 233.364L280.238 233.226L280.14 233.128L280.218 233.069L280.159 232.951L280.041 232.971L280.1 232.814L280.041 232.794V232.735L280.159 232.637L280.14 232.559L280.218 230.673L280.435 228.689L280.376 228.591L280.395 228.473L280.356 228.336L280.376 228.218L280.258 228.159L280.081 228.139L280.002 228.08V228.021L280.1 227.962L280.238 227.923H280.356L280.454 227.864L280.651 227.766L280.946 227.55L281.044 227.511L281.103 227.373L281.182 227.275L281.438 227.177L281.556 227.039L282.106 227.157L282.224 227.02L282.283 227.039L282.323 226.941L282.441 226.823L282.559 226.745L282.775 226.705L282.795 226.646L284.112 226.214L284.093 226.038L284.132 225.939V225.763L284.053 225.723L284.014 225.645V225.468L283.994 225.37L284.014 225.154L283.994 224.938L283.935 224.702L283.955 224.505L283.916 224.329L283.935 224.23L283.896 224.093L283.994 223.897V223.818L283.955 223.739L283.975 223.484L283.935 223.268L283.994 222.973L284.368 221.284L284.466 221.245L284.624 221.107L284.643 221.049L284.801 220.95L284.958 220.931L285.135 220.832L285.371 220.852L285.509 220.813L285.568 220.832L285.686 220.95L285.961 221.088L286.02 221.206L286.138 221.284L286.433 221.186L286.59 221.206L286.472 221.049L286.531 220.891L286.413 220.774L286.354 220.616V220.518L286.276 220.341V220.165L286.217 219.949L286.118 219.811V219.713L286.079 219.595L286.099 219.536L285.922 219.084V218.947L285.981 218.711L285.863 218.574L285.764 218.534L285.705 218.377V218.279L285.646 218.22V218.083L285.745 217.984H285.882L286.02 217.945L286.099 218.004L286.138 217.906L286.079 217.611L286.099 217.552L286.197 217.572L286.531 217.533L286.826 217.356L286.807 217.218L286.826 217.061L286.767 216.904L286.787 216.688L286.767 216.511L286.787 216.393L286.728 216.236L286.59 216.138V216.04L286.708 215.922L286.748 215.824L286.689 215.765L286.59 215.745L286.138 215.686L286.02 215.667L285.981 215.608L286.02 215.529L286.276 215.431V215.411L286 215.195L285.981 214.979L286 214.881L285.981 214.783L286 214.488L286.059 214.135L286.138 213.938L286.059 213.82L286.099 213.624L286.059 213.545L286.138 213.369L286.158 213.29L286.217 213.211L286.197 213.133L286.118 213.094L286.138 212.878L286.177 212.819L286.374 212.799L286.413 212.74L286.394 212.622L286.472 212.426L286.531 212.229V212.092L286.453 211.954L286.571 211.778V211.601L286.61 211.503V211.267L286.531 211.11L286.315 210.992L286.256 210.835L286.276 210.737L286.236 210.56L286.256 210.442L286.236 210.304L286.394 210.226L286.197 208.93L286.158 208.635L286.099 208.478L286.079 208.34V208.124L286.02 207.967V207.849L286 207.692H285.882L285.804 207.456L285.823 207.398L285.764 207.299V207.142L285.666 207.005V206.926L285.627 206.789L285.686 206.671L285.784 206.631L285.745 206.533L285.587 206.514L285.627 206.356L285.686 206.258L285.587 206.18L285.548 206.082L285.45 206.042L285.43 205.944L285.273 205.826V205.748L285.351 205.571H285.174L285.115 205.335L285.135 205.276L285.056 205.139L285.076 205.06L284.938 204.766L284.899 204.471L284.84 204.392L284.879 204.196L284.742 203.98L284.761 203.823L284.899 203.803L284.997 203.882L285.115 203.823H285.214L285.332 203.783L285.45 203.666L285.41 203.528L285.43 203.391L285.371 203.351L285.312 203.194L285.214 203.076L285.037 202.978L284.879 202.782L284.86 202.684V202.487L284.801 202.33L284.82 202.271L284.938 202.212L284.997 202.153L285.056 202.016L285.096 201.859L284.938 201.76V201.623L284.82 201.505L284.86 201.289L284.584 200.719L284.742 200.621L284.801 200.464L284.722 200.248L284.742 200.169L284.899 200.071L284.879 199.737L284.781 199.462L284.624 199.502H284.545L284.407 199.128L284.466 198.912L284.388 198.814L284.348 198.677V198.402L284.309 198.205L284.211 198.068L284.171 197.891L284.112 197.734L284.132 197.675L284.034 197.518V197.262L284.093 197.164V196.987L284.112 196.889L284.25 196.909L284.506 196.889L284.466 196.771V196.575L284.407 196.496V196.398L284.447 196.32V196.182L284.407 195.986L284.427 195.927L284.388 195.73L284.466 195.514V195.377L284.427 195.298L284.447 195.102L284.466 194.964L284.427 194.807L284.486 194.709L284.663 194.689L284.84 194.65L284.997 194.67L285.096 194.709H285.292L285.391 194.611L285.41 194.473L285.548 194.336L285.469 194.238V194.002L285.45 193.943L285.509 193.53L285.587 193.314L285.568 193.216L285.528 193.138L285.509 192.961L285.469 192.745L285.371 192.666L285.43 192.568L285.666 192.529L285.725 192.431L285.784 192.234L285.745 192.077L285.784 191.9H285.568L285.391 191.939L285.115 191.92L284.958 191.861L284.84 191.782L284.801 191.645L284.683 191.566H284.604L284.447 191.429V191.37L284.348 191.311L284.27 191.134L284.368 191.075L284.25 190.997L284.289 190.938L284.27 190.84L284.368 190.761L284.329 190.663L284.388 190.643L284.506 190.486L284.584 190.427L284.781 190.368L284.899 190.211L285.076 190.132L285.194 190.113L285.489 190.152L285.568 189.995L285.607 189.956L285.666 190.074H285.882H285.981L286.118 190.034L286.138 189.956L286.118 189.799L286.394 189.543L286.531 189.504L286.492 189.406L286.472 189.15L286.61 189.091L286.551 188.993L286.394 188.934L286.374 188.856L286.433 188.718L286.649 188.64L286.807 188.463L286.925 188.384L286.964 188.325L287.043 188.266H287.161L287.259 188.208L287.239 187.972L287.298 187.933L287.239 187.874L287.18 187.599L287.239 187.481L287.279 187.324L287.475 187.284L287.829 187.383L288.223 187.324L288.282 187.363L288.36 187.343L288.498 187.363L288.577 187.304H288.793L289.009 187.324L289.363 187.383L289.442 187.363L289.599 187.284L289.678 187.167L289.894 187.009L289.973 186.892L290.012 186.636L289.993 186.361L290.032 186.263L290.268 186.067L291.566 185.595L291.645 185.576L291.861 185.595L291.999 185.674L292.176 185.693L292.313 185.752L292.372 185.713H292.51L292.608 185.752L292.687 185.693H292.785L292.844 185.733L292.884 185.674L292.864 185.576L292.766 185.497L292.785 185.379L292.864 185.32V185.202L292.844 185.143L292.884 185.085L292.825 185.045L292.884 184.967L292.805 184.947L292.864 184.868L292.825 184.829L292.805 184.692L292.864 184.613L292.785 184.476L292.825 184.417L292.785 184.279L292.805 184.181L292.903 184.004L292.864 183.926L292.785 183.945L292.726 183.886L292.785 183.808L292.805 183.69L292.766 183.572L292.687 183.552L292.844 183.415L292.746 183.199L292.766 182.983L292.805 182.865L292.726 182.845L292.648 182.767V182.551L292.785 182.472L292.805 182.413L292.746 182.354V182.276H292.608L292.589 182.217L292.431 182.197L292.294 182.178L292.058 182.236L292.038 182.119L292.097 182.079L292.235 181.903L292.136 181.883L291.999 181.785L291.881 181.765L291.841 181.863L291.625 181.745L291.605 181.647L291.645 181.549L291.743 181.49L291.625 181.431V181.372L291.586 181.353L291.664 181.254L291.645 181.097L291.586 181.038L291.664 180.999L291.704 180.803L291.625 180.763L291.527 180.803L291.546 180.704L291.605 180.528H291.468L291.566 180.429L291.546 180.351L291.605 180.292L291.743 180.253L291.723 180.194L291.546 180.213L291.507 180.135H291.586L291.704 180.056L291.566 179.978L291.507 179.84L291.468 179.762L291.566 179.742V179.703H291.369L291.232 179.644L291.251 179.546L291.133 179.565L291.015 179.546L290.937 179.487L290.956 179.408L291.114 179.349L291.173 179.29L291.389 179.212L291.33 179.113L291.251 179.094L291.153 179.153L290.917 179.113L290.858 179.153L290.642 179.133L290.602 179.035L290.72 178.937V178.858L290.602 178.819L290.681 178.721L290.72 178.583H290.76L290.779 178.505L290.563 178.563L290.327 178.446L290.229 178.367L290.17 178.112L290.071 178.072L289.914 178.092L289.737 178.19L289.678 178.092L289.521 178.072L289.422 177.896L289.304 177.856L289.285 177.719L289.147 177.739L289.049 177.719L288.891 177.621L288.832 177.66L288.675 177.562L288.577 177.542L288.4 177.522L288.203 177.581L288.065 177.424L288.105 177.326L288.183 177.247V177.149L288.065 177.13L288.105 177.071L288.223 177.051V177.031L288.105 176.953L288.065 176.678L288.203 176.599L288.105 176.481L288.144 176.364L288.203 176.206L288.183 176.108L288.203 176.01L288.105 175.971L288.065 175.912L288.105 175.617H288.282L288.321 175.578L288.341 175.362L288.203 175.224L288.046 175.146L287.987 174.989L288.046 174.93L288.065 174.832L287.908 174.674L287.888 174.557L287.928 174.399L287.81 174.282L287.692 174.223L287.652 174.183L287.672 173.948L287.711 173.889L287.731 173.457L287.81 173.358L287.79 173.241L287.672 173.044L287.593 173.005L287.495 172.907L287.357 172.828L287.121 172.887L286.964 172.946L286.787 172.926L286.689 172.907L286.531 172.553L286.571 172.455L286.63 172.396L286.669 172.317L286.767 172.219L286.748 172.18L286.59 172.121L286.453 172.003L286.138 171.905L286.059 171.866L285.941 171.885L285.882 171.925L285.627 171.885L285.43 171.787L285.253 171.748L285.214 171.65L285.037 171.571L284.879 171.65L284.761 171.63L284.643 171.65L284.584 171.709H284.368L284.348 171.591L284.27 171.492L284.23 171.316L284.152 171.296L284.093 171.178L284.014 171.159L283.916 171.08L283.857 171.257H283.758L283.581 171.178L283.562 171.119L283.365 171.001L283.306 171.139L283.188 171.217L283.149 171.119L283.168 171.001L283.129 170.962V170.844L283.109 170.746L283.208 170.668L283.188 170.628L283.011 170.53L282.873 170.373L282.834 170.353L282.795 170.216L282.834 170.176L282.755 170.098L282.716 169.96L282.755 169.921L282.618 169.862L282.578 169.784L282.323 169.725L282.185 169.705L282.087 169.744L281.988 169.666L281.949 169.587L282.008 169.548L282.087 169.568L282.146 169.528V169.45L282.047 169.469L281.949 169.43L281.91 169.489L281.772 169.469L281.693 169.371L281.497 169.332L281.438 169.273L281.379 169.312L281.261 169.214L281.221 169.116L281.143 169.194L281.064 169.175L281.025 169.057H280.966L281.025 168.959L281.005 168.802L280.887 168.86V168.703L280.848 168.644L280.926 168.585L280.848 168.546L280.828 168.448L280.769 168.468L280.69 168.428L280.592 168.448L280.572 168.625L280.474 168.664L280.336 168.802L280.258 168.743L280.179 168.762L280.199 168.841H280.14L280.041 168.743L280.002 168.86H279.923L279.884 168.821L279.746 168.86L279.589 168.782L279.569 168.684L279.609 168.644L279.589 168.546L279.51 168.487L279.569 168.369L279.412 168.252L279.294 168.291L279.255 168.409L279.215 168.448L279.058 168.33L278.979 168.212H278.881V168.134L278.94 167.996L278.92 167.898L278.999 167.878L278.881 167.702H278.704L278.743 167.623L278.645 167.525V167.466H278.566L278.547 167.309L278.625 167.211L278.606 167.132L278.527 167.093L278.645 167.073L278.586 166.916L278.429 166.778L278.33 166.72L278.134 166.7L278.075 166.72V166.798L277.996 166.778L277.937 166.68L277.839 166.739L277.878 166.778L277.78 166.798V166.7L277.681 166.739V166.837L277.78 166.896L277.681 166.975L277.485 166.916L277.445 166.837L277.327 166.896L277.268 166.877L277.229 166.955L277.15 166.857L277.052 166.818L277.131 166.739L277.17 166.759L277.19 166.621L274.574 162.555L271.821 158.077L271.86 158.018L271.919 157.881L271.978 157.802L271.939 157.704L271.801 157.665L271.703 157.606L271.604 157.449L271.427 157.291L271.309 157.213V157.134H271.408L271.565 157.193L271.742 157.213H271.84L272.057 157.154L272.548 157.193L272.745 157.154L272.922 157.017L272.863 156.918L272.843 156.761L272.666 156.702L272.568 156.761H272.352L272.155 156.683L271.801 156.388L271.683 156.27L271.663 156.211L271.545 156.093V156.015L271.762 155.799L271.683 155.642L271.644 155.524L271.624 154.974V154.856L271.703 154.817L271.781 154.895L271.939 154.934H272.155L272.234 154.974L272.293 154.934L272.253 154.758L272.371 154.581L272.489 154.64L272.568 154.856L272.745 155.013L272.804 154.993L272.784 154.817L272.883 154.758L272.981 154.797L273.06 154.758L273.256 154.856L273.374 154.777L273.63 154.797L273.728 154.836H273.925L274.082 154.895L274.318 155.033V155.268L274.259 155.445L274.279 155.543L274.515 155.642H274.574L274.712 155.445L274.948 155.288L275.066 155.347L275.164 155.367L275.282 155.249L275.341 155.111V155.013L275.243 154.797L275.184 154.758L275.066 154.718L274.889 154.856L274.83 154.836V154.954L274.751 154.974L274.633 154.836L274.613 154.758L274.653 154.62L274.731 154.483L274.83 154.443L275.203 154.385L275.361 154.345L275.479 154.247L275.577 154.11L275.597 153.913L275.656 153.795L275.774 153.697L275.892 153.717H276.265L276.403 153.736L276.482 153.795L276.423 154.011V154.247L276.678 154.306L276.777 154.443L276.836 154.601L276.914 154.797L277.032 154.876L277.072 154.856L277.15 154.699L277.131 154.463L277.209 154.424H277.367L277.583 154.502L277.721 154.463L277.799 154.502L277.996 154.463L278.33 154.385L278.429 154.306L278.468 154.11L278.507 154.051L278.665 153.913L278.763 153.756L278.822 153.618L278.94 153.501L278.881 153.402L278.783 153.324L278.625 153.127L278.724 152.852V152.715L278.783 152.656H278.979L278.94 152.519L278.783 152.381L278.763 152.283L278.645 152.008L278.665 151.949L278.861 151.811L278.881 151.694L279.117 151.497L279.274 151.517L279.373 151.478L279.392 151.399L279.353 151.281L279.392 151.065L279.471 151.006L279.569 150.987L279.766 151.085L280.022 151.163H280.081L280.159 151.045L280.199 150.81L280.159 150.692L280.061 150.594L279.963 150.535L279.943 150.437L280.041 150.338L280.1 150.24V150.103L280.14 150.044V149.945L280.395 149.729L280.454 149.808L280.572 149.631L280.553 149.553L280.454 149.513L280.494 149.435L280.435 149.337L280.238 149.258L280.258 149.14L280.199 149.022L280.238 148.885L280.1 148.846L280.081 148.708L280.002 148.63L280.022 148.551L279.805 148.355L279.845 148.256L279.805 148.158L279.687 148.178L279.668 148.119L279.687 148.06L279.628 147.903L279.668 147.785L279.687 147.569L279.648 147.51L279.668 147.412L279.569 147.372L279.471 147.274L279.451 147.156L279.53 147.117L279.471 147.019L279.609 146.94L279.707 146.822L279.687 146.744L279.746 146.665L279.668 146.587V146.489L279.727 146.39L279.707 146.253L279.766 146.135L279.904 145.978V145.919L279.746 145.939L279.687 145.86L279.569 145.84L279.451 145.723L279.471 145.526L279.392 145.33L279.294 145.192L279.078 145.074H279.038L278.881 144.976L278.724 144.956L278.665 145.015L278.547 144.976L277.76 143.424L277.013 141.892V141.775L277.091 141.716L277.072 141.48L277.131 141.46L277.15 141.225L277.131 140.969L277.072 140.891L276.816 140.773L276.718 140.4L276.659 140.38L276.678 140.066L276.305 140.007V139.83L276.265 139.594V139.418L276.324 139.123L276.305 138.966L276.344 138.789L276.639 138.848V138.416L276.659 138.141L276.698 138.043V137.905L276.521 137.768L276.639 137.512L277.032 136.884L277.249 136.393L277.288 136.275L277.386 136.157L277.485 136.118H277.583L277.662 136.078L277.819 136.059L277.878 136.078L278.016 135.902L278.035 135.843L277.996 135.627L278.094 135.528L278.134 135.332L278.035 135.253L277.996 135.096H277.917L277.858 135.018L277.898 134.88L277.976 134.782V134.586L277.917 134.527L277.937 134.35L277.819 134.252L277.839 134.154L277.78 134.095L277.799 133.859L277.701 133.741L277.76 133.663L277.701 133.466L277.583 133.427L277.504 133.309L277.622 133.25L277.642 133.211L277.76 133.25L277.799 133.093L277.898 133.073L278.035 132.916L278.153 132.975L278.173 132.896L278.252 132.916L278.35 132.779L278.645 132.622L278.763 132.68L278.783 132.72L278.881 132.7L278.94 132.779L279.097 132.739L279.196 132.347L279.294 132.288L279.392 132.307L279.451 132.17L279.609 132.15L279.727 131.875L279.766 131.855L279.805 131.698L279.746 131.639L279.825 131.443V131.384L279.884 131.306L279.904 131.207H279.963L280.022 131.07L280.1 130.972L280.218 130.697V130.598L280.258 130.481L280.218 130.382L280.277 130.284L280.395 130.245L280.415 130.107L280.494 130.068L280.946 129.361L280.199 128.222L279.845 127.593L279.255 126.591L279.274 126.434L279.333 126.238L279.451 126.159L279.628 125.884L279.707 125.688L279.943 125.433L280.041 125.217L280.12 125.118L280.317 124.981L280.454 124.922L280.631 124.706L280.789 124.411L280.946 124.195V124.097L281.005 123.92L281.182 123.547L281.221 123.468H281.359L281.575 123.606L281.831 123.586L281.988 123.606L282.087 123.586L282.165 123.272L282.283 123.115V122.958L282.224 122.702L282.165 122.585L282.067 122.447L281.949 122.349L281.988 122.231L281.949 122.113L281.929 121.936L281.752 121.681L281.713 121.661L281.634 121.445V121.328L281.733 121.092L281.87 120.954L282.087 120.62L282.952 117.34L282.834 117.222L282.716 117.163L282.657 117.085L282.559 117.065L282.48 117.105L282.362 117.026L282.264 116.81L282.323 116.653L282.264 116.574L282.283 116.476L282.224 116.358V116.299L282.146 116.28L282.047 116.201L281.91 116.28L281.87 116.339L281.811 116.26L281.772 116.299L281.693 116.221L281.556 116.24L281.536 116.181L281.457 116.142L281.359 116.181L281.221 116.103L281.261 116.083L281.221 116.005L281.123 115.985L281.084 115.887L281.044 115.946L280.926 115.906L280.887 115.946L280.789 115.887L280.867 115.847L280.808 115.749L280.651 115.789L280.572 115.769L280.533 115.828L280.356 115.749L280.277 115.553L280.317 115.415L280.179 115.298H280.1L280.002 115.219L279.923 115.239L279.904 115.317L279.845 115.278L279.766 115.376L279.668 115.317L279.55 115.356L279.569 115.396L279.51 115.455H279.412L279.373 115.356L279.255 115.376L279.235 115.317L279.156 115.298L279.117 115.239L279.078 115.298L279.058 115.396H278.94L278.881 115.239L278.822 115.101L278.92 115.023L278.861 114.983L278.665 114.924L278.606 114.806L278.724 114.748L278.684 114.63L278.586 114.61V114.512L278.645 114.473L278.763 114.453L278.743 114.355L278.783 114.256L278.881 114.217L278.94 114.256L279.058 114.237L279.117 114.158V113.982L279.196 113.707L279.255 113.628L279.176 113.49L279.117 113.51L279.097 113.451H279.038V113.373L278.94 113.274L279.097 113.157L278.999 113.058L278.763 112.941L278.783 112.862L278.625 112.823V112.764H278.527L278.566 112.705L278.429 112.646L278.448 112.607L278.35 112.548V112.469L278.271 112.449L278.232 112.391L278.114 112.43L278.016 112.508L278.035 112.43H277.937L277.878 112.508L277.799 112.489L277.721 112.371L277.662 112.449L277.544 112.312H277.465L277.485 112.253H277.347V112.155L277.268 112.233L277.17 112.194L277.131 112.233L277.032 112.194L276.973 112.233L276.895 112.194L276.836 112.096L276.737 112.174H276.678L276.639 112.017H276.58V111.919H276.501L276.462 112.017L276.403 111.939V111.782L276.305 111.723H276.167L275.99 111.664L275.951 111.742L275.872 111.723L275.931 111.644L275.813 111.625L275.734 111.644L275.715 111.742L275.636 111.723L275.538 111.821L275.439 111.782H275.321L275.243 111.88L275.125 111.821L274.967 111.801L274.928 111.703L274.79 111.664L274.633 111.703L274.613 111.625L274.515 111.585L274.456 111.644L274.397 111.605H274.043L274.004 111.546L273.945 111.625L273.866 111.664L273.768 111.546L273.709 111.566L273.689 111.664L273.787 111.742V111.801L273.61 111.782L273.551 111.683V111.782L273.473 111.723L273.374 111.742L273.355 111.919L273.237 111.958L273.079 111.919L273.06 111.86H272.961L272.942 111.958L272.863 111.998L272.784 111.978L272.725 112.037L272.647 111.978L272.568 112.057L272.45 112.037L272.411 112.076L272.194 112.096L272.076 111.978L271.998 111.958L271.939 112.017L271.86 111.998L271.781 111.939L271.742 111.998L271.821 112.096L271.683 111.998L271.506 111.978L271.427 111.998L271.329 111.939L271.29 111.88L271.211 111.841L271.329 111.821L271.27 111.762L271.191 111.742L271.073 111.664L271.034 111.762L271.054 111.801L270.995 111.841L270.818 111.782L270.719 111.703L270.365 111.664L270.405 111.703L270.365 111.782L270.169 111.86L270.149 111.958L269.952 111.998H269.854L269.893 112.057L269.854 112.194L269.756 112.174L269.697 112.292L269.618 112.273L269.598 112.312H269.461L269.5 112.371V112.489L269.559 112.607L269.677 112.646L269.716 112.705L269.657 112.744L269.677 112.823H269.756L269.697 112.941L269.736 113.039L269.874 113.078L269.834 113.196H269.716L269.775 113.274L269.697 113.373L269.598 113.235L269.52 113.294L269.539 113.412L269.461 113.471L269.48 113.51V113.667L269.402 113.648V113.883L269.284 114.001L269.323 114.158L269.205 114.237L269.225 114.296H269.126L269.107 114.433L269.028 114.512L268.93 114.571L268.91 114.492L268.851 114.473L268.753 114.728L268.713 114.748L268.654 114.649L268.576 114.669L268.536 114.787L268.458 114.826L268.418 114.767L268.3 114.826V114.787L268.143 114.708L268.123 114.787L268.064 114.865L267.848 114.924L267.573 114.885L267.435 115.023L267.297 115.003L267.337 115.062L267.199 115.16H267.081L267.14 115.239L267.101 115.356L266.924 115.376L266.865 115.317L266.806 115.376V115.474L266.747 115.494L266.707 115.435L266.491 115.553L266.353 115.533L266.275 115.612L266.334 115.631L266.196 115.671L266.157 115.612V115.71L266.098 115.828L266.039 115.847L266.019 115.71L265.921 115.808L265.94 115.887L265.783 115.847L265.763 115.887L265.508 115.926L265.449 115.847L265.39 115.906L265.429 115.926L265.37 116.024L265.311 116.005L265.213 116.044L265.154 115.906L264.937 115.965L264.996 115.906L265.036 115.789L264.859 115.847L264.741 115.828L264.76 115.906L264.682 115.887L264.544 115.946H264.465L264.426 115.887L264.328 115.808L264.426 115.71L264.328 115.592L264.249 115.631L264.111 115.592L264.052 115.494L263.993 115.553L263.856 115.474L263.797 115.494L263.62 115.376L263.679 115.16V115.101L263.423 114.767L262.99 114.355L262.577 113.883L262.538 113.746L262.459 113.058L262.42 112.901L262.459 112.607L262.499 112.489L262.597 112.41H262.676L262.912 112.489L263.03 112.449L263.344 112.567L263.639 112.764L264.072 112.941L264.328 112.96L264.996 112.882L265.095 112.842L265.134 112.764L265.193 112.508L265.311 112.351L265.39 112.312H265.527L265.665 112.351L265.783 112.41L265.901 112.43L266.117 112.332L266.275 112.135L266.393 112.096L266.53 111.998L266.668 111.841L267.376 111.467L267.455 111.389L267.494 111.173L267.435 110.937L267.376 110.819L267.179 110.583L266.904 110.426L266.727 110.23L266.648 110.191L266.314 110.132L265.803 110.014H265.645L265.547 110.034L265.331 110.191L265.016 110.269L264.229 110.387H264.033L263.639 110.269L263.502 110.191L263.384 110.092L263.246 109.896L263.049 109.484L262.99 109.326L262.931 108.541L263.01 108.325L263.089 108.03L263.167 107.775L263.207 107.559L263.167 107.362L263.128 107.205L263.207 107.009L263.462 106.95L263.659 106.969L263.895 107.028L264.052 107.048L264.347 107.264L264.564 107.441L264.819 107.519L264.996 107.48L265.154 107.343L265.252 107.225L265.39 107.205L265.527 107.127L265.96 106.989L266.176 106.891L266.511 106.969L266.707 107.009L266.825 106.989L267.219 106.871L267.356 106.852L267.848 106.969L268.025 106.95L268.202 106.832L268.34 106.812L268.536 106.793H268.713L268.89 106.773L269.146 106.812L269.225 106.832L269.539 107.127L269.618 107.166L269.913 107.185L270.326 107.107L270.798 106.95L271.014 106.812L271.172 106.753L271.506 106.518L271.644 106.38L271.781 106.105L271.88 105.987V105.928L271.683 105.595L271.526 105.457L271.427 105.339L271.27 105.064L271.132 104.612L271.152 104.377L271.054 104.279L270.916 104.22L270.66 104.141L270.346 103.984L270.228 103.925L269.992 103.964L269.559 104.18L269.421 104.279L269.146 104.534L268.635 104.868L268.399 104.986L268.163 105.103L267.75 105.202L267.179 105.555L267.022 105.693L266.727 105.752L266.57 105.732L266.314 105.555L266.255 105.457L266.235 105.339L266.019 104.946L265.901 104.828L265.783 104.691L265.665 104.612L265.449 104.22L265.37 103.866L265.35 103.532L264.878 102.57L264.662 102.177L264.623 101.961L264.642 101.568L264.839 101.352L265.036 101.018L265.114 100.9L265.468 100.232L265.567 100.193L265.901 100.213L266.216 100.331L266.491 100.566L266.806 100.979L267.14 101.293L267.238 101.47L267.278 101.764L267.376 101.882L267.71 102.098L267.887 102.275L268.202 102.354L268.458 102.314L268.91 102.098L269.185 102.039L269.284 101.98L269.539 101.568L269.815 101.057L269.893 100.88L269.913 100.763L269.854 100.448L269.874 100.311L269.952 99.8591L269.933 99.702L269.775 99.3877L269.716 99.1127L269.697 98.8378L269.638 98.4842L269.52 98.2681L269.185 97.9932L268.615 97.9539H268.3L268.123 97.8753L268.005 97.7378L267.966 97.6396L268.163 97.3057L268.241 96.9718L268.34 96.7361L268.418 96.4218L268.576 95.9897L268.635 95.5969L268.595 95.4397L268.477 95.263L268.359 95.0469L268.34 94.929L268.379 94.8505L268.497 94.8308L268.733 94.8505L268.871 94.8308L268.949 94.713L269.008 94.3987L268.772 94.1237L268.615 93.8291V93.6523L268.694 93.4363L269.067 93.1613L269.225 92.9649L269.205 92.847L269.107 92.5328L269.126 92.356L269.303 92.1399L269.362 92.0024L269.52 91.9435L269.756 91.7667L269.854 91.6292L269.972 91.3543L269.992 91.0007L270.129 90.6079L270.287 90.3525V89.724L270.247 89.5669L270.149 89.2329V89.0955L270.11 88.9973L270.188 88.899L270.169 88.7026L269.952 88.408L269.913 88.2312L269.933 87.9955L270.031 87.858L269.992 87.5634L269.913 87.367V86.8367L270.011 86.1885L270.149 85.7564L270.287 85.4421L270.424 85.285L270.837 85.1671L271.132 85.1082L271.349 85.01L271.486 85.0493L271.801 84.8725H272.017L272.096 84.7939L272.017 84.4797V84.3225L272.076 84.244L272.096 84.0672L272.057 83.969L271.644 83.7333L271.349 83.5172L271.152 83.2619L271.014 83.1637L270.857 82.6726L270.739 82.5155L270.503 82.0048L270.365 81.6513L270.306 81.2977V81.1406L270.542 80.9049L270.582 80.6692L270.7 80.2567L270.719 80.0013L270.641 79.7656L270.483 79.2746L270.503 79.0978L270.641 78.8818L270.759 78.8621L270.995 79.0585L271.27 79.3532H271.526L271.644 79.4317H271.88L271.939 79.3532L272.47 79.4121L272.765 79.6478L272.942 79.7656H273.06L273.473 79.6871L273.571 79.5692V79.3139L273.591 79.2353L273.728 79.0585L273.748 78.9014L273.63 78.4693L273.748 77.8015L273.945 77.4283L273.925 77.3301L273.827 77.1337L273.669 77.0158L273.65 76.8783L273.374 76.623L273.217 76.5444L272.981 76.4069L272.607 75.9944L272.529 75.9748H272.371L272.037 75.8962L271.663 75.7587L271.329 75.7195L271.034 75.6998L270.719 75.7195L270.228 75.3855L270.149 75.2873L270.031 74.9141L269.992 74.1481L270.188 73.8535L270.424 73.3428L270.346 73.1267V73.0678L270.483 72.9893L270.542 72.8714L270.66 72.5179L270.641 72.2036L270.582 71.9482L270.483 71.8108L270.011 71.1036L269.972 70.9269L269.874 70.6519L269.913 70.5733L270.011 70.4948L270.051 70.3965L270.031 70.318V70.1216L270.11 70.0037L270.129 69.7484L270.051 69.6109L269.933 69.5127L269.893 69.3948L269.913 69.1591L270.129 68.9038L270.247 68.8449L270.208 68.5895V68.1967L270.169 67.9806L270.228 67.7842L270.483 67.5289L270.542 66.9003L270.464 66.5468L270.542 66.2521V65.1326L270.582 64.9754L270.719 64.7397H270.896L271.191 64.6808L271.349 64.5826L271.408 64.504L271.427 64.4058L271.506 64.3076L271.762 64.2094L271.781 63.9933L271.644 63.9737L271.624 63.8755L271.27 63.8166L271.211 63.7773L271.172 63.6398L271.054 63.5809L271.014 63.5023L271.152 63.4434L271.172 63.5612L271.25 63.6398L271.349 63.4434L271.211 63.3452L271.25 63.2862H271.388L271.467 63.4041H271.545V63.3059L271.467 63.1684L271.506 63.0702L271.624 62.8934H271.742L271.84 62.7952L271.919 62.7756L271.939 62.7363L271.821 62.697L271.86 62.5791L271.919 62.5399L271.998 62.5595L272.037 62.4809L272.155 62.3238L272.273 62.422H272.352L272.411 62.3631H272.529L272.706 62.2845L272.745 62.1863L272.725 62.0488L272.666 61.7738L272.607 61.6953L272.529 61.7149L272.352 61.6167H272.135L271.88 61.6756L271.703 61.7935L271.585 61.7345L271.368 61.7542L271.27 61.8131L271.073 61.8328L270.916 61.9113L270.719 61.8917L270.405 61.872H270.346L270.051 61.6953L269.933 61.8131L269.874 62.0095L269.736 62.1077L269.48 62.0488L269.225 62.0685L269.067 62.0095L269.008 62.0685L268.91 62.0095L268.851 61.9113L268.733 61.872L268.694 62.0685L268.615 62.0292L268.595 61.872H268.536L268.497 61.9899L268.359 62.147H268.281L268.202 62.0685L268.143 61.9703H268.084L268.045 62.0488H267.966L267.789 61.8917L267.828 61.8131L267.907 61.8524L267.966 61.8131H268.123L268.182 61.656V61.4006L268.477 61.2435L268.595 61.2042L268.713 61.1257L268.91 61.106H269.067L269.146 61.0274L269.067 60.9096V60.7917L268.91 60.5757L268.871 60.3203L268.733 60.2614L268.595 60.3007L268.556 60.1632L268.379 60.0846L268.32 60.1043L268.261 60.2221L268.202 60.2811V60.3793L268.084 60.4775L267.907 60.4186L267.769 60.2418L267.809 59.9275L267.789 59.6722L267.828 59.5936L267.789 59.4561L267.691 59.3775L267.671 59.2597L267.691 58.9061L267.651 58.8079L267.553 58.6901V58.6115L267.474 58.474H267.396L267.337 58.4347L267.278 58.2973V58.2187L267.219 58.1598L267.042 58.2973L266.963 58.3169L266.924 58.258L266.904 58.1008L266.825 58.0616L266.766 58.1008L266.648 58.0812L266.55 58.0223L266.294 57.9241L266.216 57.8651V57.7669L266.314 57.7473L266.412 57.6294L266.353 57.6098L266.294 57.6294L266.235 57.5705L266.412 57.4134H266.55V57.2562L266.609 57.2366L266.648 57.1384L266.825 56.9616L266.884 56.883L266.845 56.8241L266.865 56.667L266.806 56.4706L266.845 56.2349L266.727 56.1759L266.786 56.0777L266.747 55.8813L266.707 55.8224H266.57L266.491 55.8617L266.511 55.7831L266.432 55.7635L266.275 55.8813L266.235 55.8224L266.137 55.7635L266.078 55.6456L266.157 55.5671L266.058 55.4099L266.078 55.2921L265.999 55.1939V55.1349L265.881 55.0564L265.763 55.1153L265.744 55.1742L265.626 55.2135V55.1349L265.567 55.1153L265.527 55.2135L265.409 55.2528L265.213 55.1349L265.075 55.2331L265.095 55.351L265.016 55.4885H264.918L264.878 55.4099L264.8 55.4296L264.839 55.5671L264.819 55.6653L264.898 55.6456L264.957 55.6653L264.977 55.7242L264.878 55.842L264.819 55.7831L264.642 55.901L264.662 55.7635L264.603 55.7831L264.505 55.9206L264.347 55.9599V55.8617L264.288 55.8224L264.19 55.8813H264.092L263.954 55.842L263.856 55.8617L263.797 55.6456L263.738 55.5867L263.639 55.626L263.403 55.4492L263.305 55.5474L263.207 55.4688H263.03V55.6456L262.99 55.6653L262.813 55.5671L262.695 55.351L262.577 55.2724L262.538 55.1939L262.381 55.1546L262.4 55.076L262.302 55.0564L262.184 54.9974L262.086 55.0171L261.987 55.0564L261.83 55.0367L261.909 54.9582H261.968L262.046 54.8796L261.85 54.7814L261.791 54.8207L261.751 54.9778L261.633 55.0564L261.437 55.076L261.397 55.1546L261.417 55.2921L261.496 55.3706L261.417 55.3903L261.279 55.2724H261.142L261.083 55.3706L261.161 55.4688L261.201 55.7831H261.24L261.338 56.0385V56.0974H261.279L261.181 56.1563V55.9992L261.004 55.9795L260.984 56.0188L260.866 55.9992L260.788 56.0974L260.67 56.0777H260.571L260.473 56.2152L260.375 56.2742V56.2152L260.296 56.1956V56.1367L260.217 56.1759L260.257 56.0188L260.119 55.8617L260.139 55.7438L260.217 55.6063L260.178 55.5867L260.198 55.3903L260.139 55.4099L260.119 55.2921L260.04 55.2724L259.981 55.3706L259.942 55.3314L259.883 55.3903V55.2724H259.844L259.785 55.1742L259.804 55.1153L259.726 55.0957V55.0367L259.647 55.0171L259.608 54.9582L259.509 54.9189L259.529 54.8796H259.45L259.372 54.9385L259.175 54.8403L259.136 54.7814L259.155 54.6635L259.037 54.7028L258.959 54.6439L258.919 54.5653H258.959L258.978 54.4082L259.037 54.3689H258.959L258.919 54.1528L258.86 53.9368L258.762 53.9171L258.919 53.7797L258.9 53.7404L258.939 53.6618L259.018 53.6422L258.978 53.5832L259.155 53.544L259.096 53.4261L259.116 53.3279L258.939 53.21L258.86 53.3083L258.782 53.2297L258.664 53.1708L258.585 53.0529V52.9547L258.447 52.9743L258.467 52.8565L258.506 52.7779L258.447 52.719H258.29L258.093 52.5815V52.444H258.015L257.995 52.3458L258.074 52.2672L258.172 52.2476L258.251 52.1494L258.211 52.0512L258.231 51.9923L258.29 52.0119V51.7958L258.172 51.6976L258.034 51.678L258.015 51.6191V51.5012L257.936 51.4227L258.034 51.2655L257.857 51.1477L257.798 51.0887L257.838 50.912L257.877 50.853L257.818 50.7941L257.759 50.5781L257.838 50.4798L257.661 50.4013L257.68 50.3031L257.562 50.2049L257.621 50.087L257.562 49.9495L257.503 49.6745V49.5763L257.602 49.4585L257.503 49.3603L257.405 49.3799V49.321L257.484 49.3013L257.464 49.1246L257.385 49.0264L257.444 48.9674L257.366 48.8692V48.7317L257.307 48.6925L256.402 48.4764L255.773 47.7497L252.37 46.5711L252.331 46.4926L252.37 46.3354L252.331 46.2569V46.0801L252.292 45.9819L252.311 45.8837L252.252 45.7855L252.233 45.6087L252.154 45.4123L252.115 45.3926V45.2748L251.918 44.9998H251.859L251.839 44.9212L251.643 44.823V44.7641L251.505 44.6463L251.426 44.6266L251.289 44.5088V44.3713L251.171 44.2731L251.19 44.2534V44.0766L248.516 43.3106L248.535 43.2517L248.398 43.2124L248.299 43.2517V43.1731L248.221 43.2124L248.103 43.1338L248.024 43.1928L247.886 43.1142L247.827 42.8981L247.729 42.7999L247.749 42.7017L245.113 42.1714L245.035 42.0536L244.956 41.6607L244.877 41.5625L244.838 41.3465L244.759 41.2482L244.582 40.8947V40.7965L244.464 40.4822L244.445 40.2858L244.464 40.1679V39.9519L244.386 39.7751L244.366 39.6965L243.953 38.6163L243.245 37.4967V37.3003L243.304 37.1824L243.383 37.1038L243.56 36.986L243.855 36.9467H244.071L244.307 36.8289L244.327 36.6914L244.287 36.5735L244.268 36.3967L244.209 36.2396V36.0628L244.287 35.8468L244.405 35.4539L244.268 35.179V35.0807L244.248 34.8254L244.209 34.7075V34.4915L244.228 34.3933L244.386 34.1772L244.484 34.0987L244.464 33.9808L244.405 33.8826L244.287 33.804L244.307 33.7058L244.445 33.6862L244.563 33.6076L244.582 33.5094H244.622L244.72 33.6076L244.838 33.529L244.877 33.3916L245.015 33.1951L245.035 33.1166L245.113 32.9987L245.172 32.8416L245.389 32.6452L245.585 32.5273L245.723 32.4095L245.998 32.3505L246.018 32.2916L245.979 32.1345L245.998 32.0166L246.274 31.7613L246.372 31.5845L246.529 31.5256L246.765 31.4667L246.844 31.4077L246.903 31.231V31.0149L247.021 30.9167L247.257 30.7596L247.375 30.7203L247.395 30.5828L247.277 30.4649L247.296 30.3078L247.277 30.0328L247.336 29.9543L247.257 29.7186L247.041 29.3846L246.982 29.1882V28.9722L246.942 28.7954L246.962 28.7365L246.903 28.5793L246.962 28.2651L247.041 28.1865L247.001 28.0883L247.06 28.0294L247.1 27.8919L247.178 27.8329L247.159 27.6758L247.1 27.5383L247.198 27.558L247.139 27.4401L247.119 27.3026L247.139 27.2241L247.1 27.1455L247.139 27.0669V26.9294L247.178 26.8509L247.237 26.8705L247.355 26.6348L247.395 26.6741L247.454 26.5366L247.532 26.517L247.572 26.3991L247.611 26.3598L247.552 26.3205L247.709 26.0848L247.768 26.0259L247.709 25.967L247.788 25.9081L247.749 25.7313H247.808L247.788 25.6331L247.847 25.6134L247.906 25.4956V25.417L247.945 25.3777L247.886 25.3581H247.768L247.886 25.2402L247.965 25.2206V25.1028L248.083 24.926H248.142L248.221 24.8081L248.142 24.7688L248.24 24.651V24.5135H248.201V24.3564L248.122 24.3367L248.083 24.1992L248.103 23.9635L248.063 23.826L248.103 23.7082L248.063 23.6493L248.083 23.5903L248.004 23.4528L247.985 23.3546L248.004 23.1582L247.985 23.0011L248.26 22.9225L248.221 22.844L248.299 22.6279L248.221 22.4904L248.358 22.3922L248.339 22.2351L248.358 22.0583H248.299L248.319 21.9797V21.8422L248.378 21.7637L248.693 21.7047L248.752 21.6655H248.889L249.027 21.6065L249.145 21.6262L249.184 21.7047L249.322 21.6655L249.302 21.6262L249.42 21.4494L249.538 21.4298L249.479 21.3708L249.519 21.3315L249.637 21.3905L249.735 21.2333L249.794 21.253L249.853 21.1155L250.03 21.0762V21.0173L250.148 20.978L250.305 21.0173V20.9583L250.522 20.9387L250.581 20.8994L250.699 20.9387L250.718 20.8405L250.64 20.7816L250.581 20.6441L250.64 20.5262L250.699 20.5066L250.738 20.3102L250.718 20.2512L250.777 20.0548L250.718 19.937L250.561 19.662L250.541 19.5441L250.502 19.5245L250.423 19.3281L250.227 17.4228L250.109 15.9497L250.128 15.7337L249.145 14.7909V14.7712L249.066 14.5552L248.948 14.4962L248.889 14.4177L248.83 14.2605V14.123L248.791 14.0445L248.83 13.848L248.771 13.7302L248.594 13.5731H248.516L248.476 13.4552L248.378 13.3963V13.2588L248.457 13.1409L248.437 12.9642L248.319 12.9052L248.142 12.8463L248.122 12.7874L247.965 12.8267L247.867 12.7481L247.827 12.7678L247.808 12.6303L247.513 12.5321L247.473 12.5713L247.434 12.6892L247.257 12.7285L247.159 12.7088L246.942 12.7678L246.903 12.807L246.746 12.8463L246.628 12.9445L246.569 12.9249L246.451 13.0231L246.352 13.0624L246.175 13.2195L246.097 13.3374L245.9 13.4159V13.5927L245.684 13.7891L245.644 13.907L245.487 14.0248L245.389 14.2998H245.153L244.995 14.2605L244.897 14.2998L244.799 14.2605L244.582 14.3784L244.425 14.2998L244.307 14.2605L244.13 14.3784L243.933 14.3587L243.776 14.398L243.658 14.3391L243.501 14.2212H243.422L243.284 14.2802L243.107 14.2998L242.95 14.2802L242.793 14.2212L242.734 14.1427H242.616L242.458 14.0248L242.517 13.8677L242.498 13.8088L242.262 13.7106L242.006 13.6713L241.691 13.4552L241.475 13.4749L241.416 13.2784L241.337 13.1999L241.2 13.1606L241.042 13.0624L240.806 13.1017H240.629L240.433 13.0035L240.315 13.0427L240.177 13.1409L240.079 13.1017L240.039 12.9838L240.098 12.9249V12.7678L240.039 12.5321L240.059 12.4338L240 12.3749V12.2767L240.059 12.2571V12.1392L240.177 11.9624L240.256 11.8839H240.334L240.452 11.8053L240.61 11.5893L240.629 11.4518L240.57 11.3339L240.61 11.2161L240.551 11.1768L240.531 11.0786L240.452 11Z" fill="#E4EEEC"/>
</svg>
