<svg width="598" height="330" viewBox="0 0 598 330" fill="none" xmlns="http://www.w3.org/2000/svg">
<rect width="598" height="330" fill="white"/>
<path fill-rule="evenodd" clip-rule="evenodd" d="M156 132.224L156.048 132.177H156.143L156.238 132.32L156.477 132.463L157.001 132.701L157.382 132.558L157.525 132.511L157.907 132.558L158.193 132.511L158.383 132.415L158.717 132.368H158.812L158.955 132.415L159.051 132.511L159.146 132.558H159.289L159.575 132.415L159.67 132.32L159.623 132.129L159.67 131.986L159.813 131.795L159.956 131.652L160.338 131.557L160.576 131.414L160.719 131.319L160.862 131.271L161.1 131.366L161.434 131.319H161.529L161.72 131.414L161.863 131.557H162.101L162.197 131.462V131.319L162.101 131.033L162.006 130.794L161.863 130.461L161.768 130.27L161.529 129.984L161.291 129.698L161.148 129.459V129.364L161.196 129.269L161.339 129.221L161.72 129.364H161.958L162.244 129.269L162.387 129.173V129.078L162.292 128.554V128.363L162.34 128.22L162.483 127.982L162.626 127.934H162.769L163.055 128.029L163.341 128.172L163.484 128.125L163.579 128.077L163.627 127.839L163.674 127.409V127.171L163.865 126.837L164.246 126.599L164.485 126.456L164.723 126.599H164.818L165.009 126.361L165.2 126.075L165.533 125.693L165.486 125.121V124.883L165.533 124.406L165.581 124.072L165.724 123.929L165.915 123.882V123.834V123.548L165.819 123.453L165.247 122.88L165.104 122.833L165.057 122.737L165.152 122.261L165.39 121.927L165.676 121.641L165.772 121.546L166.201 121.641L166.63 121.689L166.916 121.641L167.154 121.689L167.392 121.832L167.726 121.879H167.917L168.06 121.689L167.964 121.26L168.012 121.069L167.869 120.735L167.964 120.688L168.012 120.64L167.964 120.401L168.012 120.258L167.917 120.211L167.869 120.02L167.774 119.925V119.782L167.869 119.543L167.964 119.496L168.012 119.353L167.917 119.162L167.726 119.067V118.971L167.631 118.876L167.488 118.828V118.781V118.59L167.44 118.399L167.249 118.161H167.202L166.963 117.97L166.868 117.827L166.916 117.732L166.868 117.541L166.677 117.493V117.35L166.773 117.303L166.963 117.017L167.059 116.969H167.249L167.392 117.112L167.583 117.207L167.821 117.255L167.964 117.207L168.203 117.064L168.346 116.874V116.826L168.203 116.588L168.155 116.349L168.107 116.302H167.869L167.821 116.206L168.155 116.016L168.203 115.872L168.346 115.729L168.489 115.682L168.536 115.634L168.679 115.586L168.87 115.491L168.918 115.443L168.87 115.253L168.727 115.205L168.918 114.871L169.204 114.681L169.299 114.538L169.394 114.442L169.442 114.347L169.49 114.061L169.347 113.775L169.442 113.632L169.585 113.489L169.633 113.298L169.68 113.203L169.633 113.107L169.585 113.012L169.49 112.774L169.585 112.583L169.728 112.488L170.014 112.345L170.109 112.44V112.631L170.062 112.869L170.157 112.964L170.3 113.012L170.634 112.917L170.729 112.869L170.92 113.012H171.015V113.107L170.872 113.203L170.586 113.346L170.443 113.393L170.538 113.584H170.634L171.11 113.393L171.253 113.25L171.206 113.012L171.253 112.535L171.206 112.345L171.253 112.297H171.444L171.587 112.202L171.635 112.106L171.587 111.916L171.73 111.773L171.873 111.725L171.968 111.582L172.016 111.534L171.921 111.439H171.873L171.921 111.344L172.159 111.296L172.254 111.153H172.111V110.914L172.064 110.771V110.676L172.207 110.581L172.397 110.628L172.54 110.771L172.493 110.962L172.54 111.057L172.683 111.153L172.922 111.2L173.065 111.153H173.255L173.637 111.2L173.78 111.057L173.875 110.914L174.066 110.724H174.161L174.304 110.533L174.256 110.485L174.399 110.152L174.542 110.104L174.828 109.77L175.162 109.866L175.4 110.056L175.543 110.199L175.686 110.247L175.925 110.009L176.068 109.866L176.211 109.77L176.401 109.818L176.544 109.77L176.878 109.627H176.973L177.069 109.58L177.355 109.341L177.45 109.198L177.688 109.103H177.879H178.022L178.165 109.008L178.451 108.769L178.642 108.578L178.594 108.34L178.403 108.197L178.356 108.102V108.006L178.403 107.911H178.594L178.737 107.816L178.785 107.53L178.88 107.482L178.928 107.291L178.737 107.148H178.642L178.594 107.005L178.737 106.767L178.88 106.719H179.023L179.118 106.576L179.214 106.29V106.099L179.118 106.052L179.261 105.956L179.5 105.861L179.643 105.909H179.881L180.024 105.861L180.167 105.623L180.215 105.527L180.262 105.48H180.501L180.596 105.289L180.691 105.098L180.834 104.955L180.93 104.908L181.12 104.812L181.216 104.717V104.526L181.12 104.479V104.336L181.168 104.24L181.263 104.192L181.168 104.145V103.954L181.073 103.859L181.025 103.668L181.073 103.525L181.454 103.191L181.597 103.144L181.883 102.953L182.169 102.715L182.217 102.619L182.169 102.429L182.312 102.095L182.455 101.856L182.598 101.713H182.693L182.979 101.523L183.075 101.475L183.218 101.237L183.122 101.141L183.218 100.998L183.456 100.951L183.742 100.617L183.933 100.331L183.885 100.188L183.98 100.045L184.076 99.9972L184.314 100.14H184.362L184.648 99.9019L185.077 99.9496L185.22 100.045L185.601 99.8542L185.887 99.6158L186.173 99.5205L186.316 99.4728L186.84 99.1391L186.888 99.0914L187.126 98.9484L187.174 98.8054L187.46 98.567L187.603 98.5193L187.555 98.4717L187.746 98.3287L188.032 98.0426L188.127 97.6612H188.175L188.318 97.7089L188.556 97.6612L188.747 97.5182V97.2798L188.652 96.9938L188.747 96.8508H188.842L189.081 97.1368H189.176L189.224 97.0415L189.128 96.8508L189.176 96.8031L189.224 96.7078L189.367 96.6601H189.653L189.986 96.4217L190.32 96.4694L190.368 96.374V96.231L190.32 96.0403L190.463 95.8496L190.797 95.5159L190.987 95.5636L191.083 95.5159L191.178 95.4206L191.559 94.9438L191.702 94.8008L191.941 94.7055L192.227 94.5148L192.274 94.4194L192.608 94.4671L192.751 94.3241V94.2764L192.703 94.1334L192.608 94.038L192.942 93.752L193.037 93.5136L193.18 93.3706L193.371 93.2276L193.657 93.1322L193.704 93.0846V92.8939L193.752 92.8462L193.943 92.9416L194.038 92.8939V92.6555L194.181 92.5602L194.372 92.4648L194.562 92.2741L194.896 92.0834L195.182 91.9881L195.468 91.6544L195.659 91.4637L195.706 91.559L195.754 91.7974L195.802 91.8451L195.992 92.0834L195.945 92.2265V92.3218L196.231 92.4648L196.326 92.5602L196.374 92.6078L196.66 92.3695L196.707 92.1788L196.803 92.0834L196.946 92.1311L197.232 91.9404L197.327 91.8927L197.422 91.7497L197.565 91.702L197.708 91.6067L197.899 91.5114L197.947 91.559L198.137 91.4637L198.233 91.3207V91.0823L198.376 90.9393L198.423 90.8916L198.662 90.7009L198.757 90.6056L199.043 90.5579L199.186 90.6532H199.234L199.52 90.3195L199.615 90.2718L199.901 90.1765L200.092 90.0335L200.187 89.9381L200.473 89.8428L200.711 89.6998L200.759 89.6044L200.95 89.5091L201.14 89.4137L201.236 89.366L201.426 89.223L201.522 89.1277L201.712 89.0323L201.855 88.937V88.6986L201.903 88.6509L202.189 88.5556L202.237 88.5079L202.284 88.1742L202.427 88.0312L202.523 87.9358L202.713 88.0312L202.761 88.1265L202.999 88.0312L203.095 87.5545L203.047 87.5068L203.142 87.3638L203.428 87.1731L203.524 86.9824L203.381 86.8393L203.285 86.887L203.333 86.744L203.905 86.0766L203.857 86.0289L203.714 85.8382H203.619V85.7429H203.714L203.857 85.7905L204.048 85.9335L204.334 85.9812L204.525 85.9335L204.572 86.0289L204.715 85.9812L204.858 86.0289H204.954L205.144 85.7905L205.24 85.6475L205.287 85.4091L205.335 85.2661L205.573 85.3138L205.526 84.9801V84.7894H205.43L205.287 84.8371L205.335 84.7417L205.478 84.551V84.4557L205.621 84.3127L205.526 84.2173L205.43 84.0743L205.478 83.9789L205.716 83.7406L205.907 83.5499L205.955 83.4069H206.05L206.098 83.2638L206.336 82.9778H206.431L206.527 82.8348V82.6918L206.574 82.5487L206.527 82.4057L206.622 82.215L206.717 82.072L206.574 81.929L206.527 81.7383L206.574 81.6906H206.717L206.813 81.8336V82.0243L207.003 82.1673L207.099 82.1197L207.146 81.8813L207.242 81.786L207.432 81.5953L207.48 81.4522L207.575 81.4046L207.909 81.2616L208.1 81.1662H208.433L208.481 81.0709L208.386 80.9755V80.8325H208.243L208.195 80.7371L208.386 80.5941L208.576 80.3081L208.672 80.1651L208.815 79.879L209.148 79.6407L209.387 79.736L209.625 79.3069L209.768 79.4023L209.863 79.3069L209.911 79.1162L209.863 78.9732L209.911 78.7825L210.054 78.5918L210.149 78.4965L210.388 78.2581L210.483 78.1628L210.435 78.1151H210.34L210.483 77.9721L210.626 77.9244L210.674 77.8767L210.626 77.686L210.674 77.5907L210.817 77.6384H210.96L211.055 77.543V77.4477L211.007 77.257L211.055 77.1616L211.246 77.0186V76.6372L211.15 76.4942L211.436 76.3035L211.627 75.9698L211.818 75.9221L211.865 76.0175L212.056 75.9698L212.008 75.8268L211.961 75.6361L212.199 75.7314L212.247 75.7791H212.294V75.6361L212.247 75.4931L212.437 75.3977L212.628 75.5407L213.009 75.2547L213.057 75.0163L213.152 74.9687L213.2 75.0163L213.343 75.2547L213.581 75.064L213.724 75.1117L213.867 75.064L213.82 74.9687L213.724 74.921L213.867 74.8733H214.058H214.249L214.582 74.4442V73.9675L214.725 73.9198V74.0152L214.678 74.1582L214.821 74.2059L214.964 74.1582V74.0152L215.059 73.8722L215.393 73.8245H215.488V73.6815L215.536 73.6338L215.869 73.7291L215.917 73.6338H215.965L216.489 73.8245L216.68 73.7768L216.775 73.7291L218.348 73.2524V73.0617L218.3 68.5327V63.0503V59.3318V54.7074L218.443 54.6121H218.634H218.777H218.872L219.015 54.4691L219.158 54.4214L219.444 54.3737L219.587 54.2784L219.921 54.2307L220.112 54.183H220.35L220.493 53.9923L220.588 53.8016L220.684 53.6586L220.874 53.3249L220.97 53.2296L221.113 53.0389L221.256 52.7528L221.351 52.6098L221.399 52.4191L221.589 52.1807L221.637 52.1331L221.685 51.99L221.828 51.7993L221.971 51.7517L222.018 51.6563L222.209 51.561V51.5133L222.447 51.3226L222.543 51.2273V51.0842L222.59 50.9889L222.733 50.8936L222.829 50.7505L222.924 50.7029L223.019 50.5598V50.3691L223.115 50.1308V50.0354L223.258 50.0831L223.448 49.9401L223.353 49.7971L223.448 49.7017L223.401 49.5587L223.544 49.4157L223.639 49.2727L223.734 49.225L223.925 49.082V48.9389L223.83 48.8436H223.639V48.7959L223.782 48.7006L223.83 48.6052L223.973 48.5099L224.02 48.5576L224.116 48.4622L224.402 48.2715L224.545 48.1285L224.783 47.9378L225.117 47.6518L225.212 47.5564L225.45 47.4611L225.498 47.4134L225.784 47.318L225.832 47.3657L226.022 47.318L226.118 47.3657L226.404 47.2704H226.594L226.642 47.1273H226.69L226.928 47.0797L227.023 46.9843L227.119 47.0797H227.262L227.452 46.9843V46.8413L227.5 46.7936H227.595V46.746L227.738 46.7936L227.834 46.746L227.929 46.6506L228.12 46.6029L228.215 46.5076V46.6506L228.263 46.6983L228.406 46.6506L228.501 46.6983L228.596 46.6029V46.6983L228.644 46.6506H229.025L229.073 46.6029L229.121 46.4599H229.168L229.216 46.5553L229.359 46.6983L229.407 46.6506L229.454 46.746L229.597 46.7936L229.693 46.6983L229.74 46.7936L229.788 46.889L229.931 46.7936L230.122 46.6983L230.36 46.9843H230.408L230.646 47.175L231.123 47.1273H231.266L231.361 47.175L231.504 47.1273H231.647L232.171 47.0797H232.219L232.314 46.9843H232.41L232.457 47.1273L232.505 47.0797L232.648 47.2227V47.175L232.743 47.0797V46.9843H232.934L233.22 47.0797L233.411 46.9367L233.363 46.889H233.22L233.077 46.746V46.6983H233.172L233.315 46.5553L233.363 46.4122L233.315 46.3169L233.411 46.1739L233.554 46.1262L233.697 46.1739L233.792 46.0785H233.887L234.03 45.9832L234.173 46.0785L234.269 45.9832L234.364 46.0309L234.459 46.1262V46.1739L234.364 46.2216L234.507 46.3169L234.841 46.3646L234.793 46.4122L234.841 46.5076L235.079 46.6029L235.174 46.6983L235.365 46.7936L235.317 46.8413L235.46 46.9367L235.508 46.889L235.603 47.032L235.651 47.0797L235.794 47.032L235.889 46.9367L235.937 46.889L236.032 46.7936L236.175 46.746L236.318 46.5553L236.366 46.5076L236.414 46.3646L236.461 46.2692H236.557L236.843 46.0309V45.9832L236.938 45.9355L236.986 45.7925H237.081L237.033 45.7448L237.129 45.6495V45.5064L237.224 45.4588L237.272 45.3158L237.415 45.2204L237.51 45.0774V44.982V44.839L237.653 44.7437L237.605 44.696L237.748 44.6483L237.891 44.5053L237.987 44.3623L238.034 44.1239L238.13 44.0286L238.082 43.9332L238.368 43.8856L238.606 43.7902L238.749 43.7425L238.797 43.6949L238.94 43.7902L239.178 43.7425L239.274 43.7902L239.226 43.6949L239.321 43.5995V43.5042L239.369 43.3611L239.321 43.3135L239.417 43.0751V42.9321L239.512 42.8367L239.417 42.7891V42.6937L239.56 42.5507L239.512 42.4553L239.703 42.217V42.1216L239.655 42.0263L239.703 41.9786L239.655 41.8833V41.6926L239.512 41.5496L239.464 41.4065L239.321 41.3589L239.274 41.2158V41.0251L239.178 40.9775L239.226 40.9298L239.321 40.7868L239.274 40.6914L239.035 40.6438L238.797 40.6914L238.749 40.5484L238.892 40.4054L238.749 40.2624V40.167L238.702 40.0717L238.797 39.8333L238.845 39.738L238.702 39.7856L238.606 39.6903V39.5949L238.654 39.2612L238.606 39.0705L238.416 39.0229L238.368 38.8798L238.32 38.8322L238.368 38.6891L238.273 38.5938L238.32 38.4984L238.273 38.3554L238.32 38.2124L238.177 38.0217V37.9264L237.987 37.688L238.13 37.545L238.368 37.3066L238.702 37.1636L238.749 37.0682L238.94 37.0206L239.035 36.9252L239.321 36.7822L239.178 36.4008V36.2578L239.321 36.2101L239.512 36.0194L239.464 35.8764L239.512 35.7811L239.464 35.6857L239.56 35.495V35.352L239.607 35.3043L239.512 35.066H239.655L239.798 34.9229L239.655 34.7799V34.6846L239.703 34.5892H239.75L239.703 34.3985L239.75 34.2555L240.036 34.1602V33.9695L240.179 33.7788L240.084 33.6358L239.893 33.5881L239.846 33.4927V33.3974L239.941 33.302V33.2067L240.084 33.1113V33.016L239.989 32.873L239.75 32.6823V32.5393L239.703 32.4439L239.75 32.3962L239.798 32.1579L239.893 32.0625L239.989 32.0149L240.036 31.8242L240.227 31.7288V31.5858L240.322 31.5381L240.275 31.3951L240.227 31.2998L240.275 31.2521L240.179 31.1567L240.227 31.0614H240.132L240.036 30.966L240.179 30.68L240.275 30.6323L240.227 30.4893L240.37 30.394L240.322 30.2986L240.418 30.2033H240.513L240.704 30.1556L240.847 29.9649L240.799 29.7742V29.6789L240.704 29.5835V29.4405L240.847 29.4882V29.2498L240.751 29.1544L240.99 29.0114L240.942 28.8684V28.7731L241.037 28.7254L240.99 28.487L241.085 28.4393V28.2963L241.18 28.1533V28.058L241.037 28.0103V27.9149L240.942 27.8196H240.751L240.704 27.7242V27.6289L240.799 27.5336V27.3905L240.847 27.2952L240.942 27.3429L240.99 27.1998V27.1045L241.276 26.8184L241.323 26.5801V26.3417L241.133 26.151L241.085 25.9603V25.8173L241.037 25.722V25.5789L240.99 25.3882L240.847 25.2929H240.751L240.608 25.1022L240.847 25.0545L240.894 24.9115L240.99 24.8162V24.6255L241.133 24.5301V24.3871L241.085 24.1964V24.0534L240.942 23.8627L240.894 23.7197L240.751 23.672L240.942 23.5767L240.99 23.4813L240.942 23.2429L241.419 23.1953L241.609 23.2429L241.752 23.2906L241.8 23.529L241.895 23.5767L242.277 23.529L242.515 23.3383L243.182 23.1476L243.564 23.1953L243.659 23.5767H243.85L244.088 23.2906L244.422 23.0522L244.612 23.2429L244.565 23.7197L244.422 23.7673H244.231L244.326 23.9104L244.469 24.0057H244.994L245.375 23.8627L245.613 24.1011H245.756L245.947 23.8627H246.09L246.233 23.7197L246.138 23.4813L246.281 23.1476L246.424 22.9569L246.614 22.9092L246.71 22.7662L246.757 22.7185L246.948 22.5278L247.091 22.4802L247.52 22.1464L247.615 22.0511L247.711 22.0988H247.806L247.949 21.9558L248.14 21.7651L248.283 21.7174L248.426 21.6697L248.616 21.5744H248.855L248.95 21.5267L249.141 21.336V21.2407L249.093 21.1453H248.998L248.855 21.05L248.807 20.9069L248.95 20.7639L249.141 20.7162L249.331 20.7639L249.522 20.8593L249.57 20.9069L249.665 20.9546L249.76 20.9069L249.903 20.9546H250.142L250.428 21.05L250.714 21.0976L250.952 21.0023L251.238 21.05L251.381 21.0023V20.7639L251.715 20.5256L251.762 20.3825L251.81 20.2395L251.858 20.1918L251.953 20.2872V20.4302L252.096 20.5732L252.239 20.6686H252.43L252.573 20.8593V21.0023L252.668 21.1453L252.954 21.336L253.097 21.4313L253.145 21.5267L253.049 21.622L253.097 21.7174H253.192L253.478 21.5744L253.574 21.622L253.621 21.479L253.86 21.3837L254.432 21.2883L254.67 21.4313V21.5267L254.908 21.4313L254.956 21.336L255.051 21.4313V21.6697L255.147 22.0034H255.242L255.385 21.9081L255.576 21.8604H255.719H255.814L255.957 22.0034L256.1 22.1941L256.386 22.3848L256.529 22.4325L256.767 22.5755L256.91 22.7185L257.149 23.386L256.958 23.672L256.863 24.0057V24.2441L256.672 24.3871L256.481 24.6731L256.386 24.8162L256.338 24.9592L256.243 25.1022L256.338 25.1976V25.4836L256.195 25.865L256.148 26.008L256.005 26.1987V26.2464L256.052 26.5324V26.8661V27.1522L256.148 27.3905L256.052 27.6766L256.291 27.7242H256.529L256.767 27.6766L257.339 27.6289H257.482L257.625 27.4382L257.673 27.2952L257.816 27.1998L258.102 27.1522L258.34 27.2475L258.388 27.3429L258.483 27.2952L258.865 27.1045L259.103 26.9138L259.198 26.7708L259.675 26.6754L259.818 26.7231L260.009 26.6754L260.152 26.5801L260.342 26.4847L260.819 26.4371L260.914 26.4847L260.962 26.3894L260.867 26.294L260.914 26.1033L261.01 25.9603L261.153 25.865L261.248 25.722L261.486 25.6266L261.725 25.3882L261.963 25.1976L262.106 25.2452L262.201 25.2929L262.344 25.2452L262.535 25.1022L262.678 24.7685L262.773 24.5778L263.059 24.3871L263.107 24.3394H263.25L263.345 24.1964L263.631 24.0534L264.108 23.672L264.156 23.5767L264.442 23.6243L264.489 23.7197L264.632 23.672V23.6243L264.585 23.386L264.728 23.2906H264.918L265.061 23.1953L265.157 23.1476L265.252 23.0522L265.3 22.9569L265.443 22.9092H265.729L265.776 22.8616L265.919 22.7185L266.062 22.6709L266.348 22.6232L266.539 22.5755L266.873 22.6232L266.968 22.6709H267.302L267.445 22.7662L267.635 22.8139L267.731 22.7662V22.9569L267.874 23.0522H268.017L268.207 22.7662H268.446H268.684L268.922 22.7185L269.113 22.7662L269.256 22.7185L269.351 22.7662H269.637L269.733 22.6232H269.923L270.162 22.5755L270.352 22.7662L270.495 22.9092L270.686 23.0999V23.2906L270.877 23.386L270.972 23.529V23.6243L270.781 23.7197V23.7673L270.877 23.815L271.067 23.7197L271.115 23.672L271.306 23.386V23.0999L271.353 23.0522H271.639L271.83 23.0046L271.735 22.7662L271.687 22.6232L271.735 22.5278L271.973 22.4325L272.164 22.4802L272.307 22.5755L272.45 22.5278L272.545 22.4325H272.64H272.926H273.069L273.403 22.4802L273.498 22.5278L273.784 22.3371H273.927L274.023 22.2418L274.213 22.1464H274.452L274.547 22.0988L274.595 22.0034L274.547 21.8604L274.642 21.5267L274.595 21.479L274.404 21.4313L274.213 21.336L274.166 21.2883V21.2407V21.0976V20.8116H273.927L273.88 20.9069V20.7639L274.023 20.5732L274.07 20.3825L274.213 20.2872L274.261 20.1442H274.404L274.642 20.2395L274.833 20.3349L274.881 20.2872L275.024 20.0488L275.119 19.8581L275.31 19.6674L275.453 19.3814L275.596 19.143L275.834 19.0477H275.929L276.025 19L276.311 19.0477L276.454 19.143L276.692 19.2384L276.93 19.3337H277.026L277.216 19.4767L277.407 19.5244L277.598 19.7628L277.931 20.1442L278.313 20.2395L278.694 20.4302L278.837 20.5256L278.932 20.6686L279.123 20.8116V20.8593L279.075 21.336L279.028 21.622L278.742 21.8127H278.646L278.599 21.7174H278.456L278.313 21.8127H278.122L277.931 21.9081L277.836 21.9558L277.788 22.1941V22.3848L277.931 22.6709L277.979 22.9569L278.122 23.2906L278.17 23.3383V23.529L278.313 23.672V23.9104L278.456 24.2441V24.5778L278.646 24.7208L278.742 24.8638L278.885 24.9115L278.98 25.0545L279.028 25.1499H279.123L279.218 25.0069H279.266L279.504 25.2452L279.552 25.3406L279.647 25.4836L279.79 25.6743V25.865L279.743 25.9127L279.647 26.0557L279.695 26.2464L279.647 26.3894V26.5801L279.6 26.8184V26.8661L279.695 26.9138L279.981 26.8661L280.029 26.7231H280.076L280.172 26.6754L280.076 26.6278L280.124 26.5324H280.219L280.172 26.4847L280.219 26.3894L280.267 26.2464L280.362 26.0557L280.505 26.1033L280.648 25.9603V25.865H280.744L280.791 25.7696H280.887L280.934 25.6266V25.5313L280.791 25.3406L280.744 25.2929V25.0069L280.839 24.8638V24.7208L280.791 24.5778L280.887 24.4348V24.2918V24.0534V24.0057L281.03 23.672H281.22H281.316L281.745 23.4336L282.078 23.1953L282.126 23.1476L283.032 22.6709L283.127 22.5278L283.175 22.4802L283.365 22.5278L283.413 22.7662L283.604 22.9092H283.699L283.747 22.9569L283.842 23.1476L283.937 23.1953H284.176L284.271 23.1476L284.414 23.1953L284.509 23.2429L284.366 23.5767L284.319 23.7197L284.223 23.8627L284.176 24.0534L284.08 24.1964L284.033 24.3394L283.985 24.4348L284.08 24.4824H284.223L284.414 24.3871L284.557 24.4824L284.938 24.3871H285.177L285.272 24.4348L285.701 24.4824V24.5778L285.653 24.7208V24.9115L285.796 25.1022L285.987 25.1499L286.13 25.2929L286.225 25.5313V25.6266L286.321 25.6743L286.368 25.9127L286.273 26.008H286.178L285.987 26.1987L285.892 26.3894L285.749 26.5801V26.8184L285.463 27.1045L285.177 27.3429L284.938 27.4859L284.795 27.5336L284.652 27.7719H284.557L284.366 27.7242H284.271L284.223 27.8196L284.176 27.9626L284.128 28.058L284.033 28.2487H283.937L283.985 28.5347L283.937 28.6777L283.747 28.7731L283.651 29.0591L283.699 29.2021L283.747 29.2975L283.937 29.3451L284.128 29.2975L284.223 29.3451L284.366 29.5835L284.414 29.8219L284.557 29.5358L284.938 29.4405L285.034 29.3928L285.129 29.2975H285.463L285.606 29.1544L285.939 29.2498L286.035 29.2021L286.273 29.1544L286.464 29.2021L286.511 29.1544H286.654L286.797 29.2975H286.893H287.179L287.322 29.1544L287.56 29.0591H287.751L287.798 28.9638L287.941 28.9161L288.037 28.8684L288.18 28.8207L288.275 28.5347L288.227 28.3917V28.1056L288.18 28.058L288.227 27.9149L288.418 27.8673L288.561 28.1533L288.704 28.2487L288.799 28.344L288.942 28.3917H289.181H289.276L289.848 28.8207L289.991 28.9638L289.943 29.0591L290.372 29.8219L290.468 30.2033L290.706 30.1556L290.801 30.2033L290.897 30.2986V30.4893L290.944 30.6323L291.04 30.8707L291.373 31.0137L291.469 31.0614L291.564 31.1091L291.707 31.0614L291.85 30.966H291.945L292.088 31.1091H292.279L292.47 31.0614L292.517 31.0137H292.708H292.851L293.042 31.1567H293.137L293.328 31.0614H293.661L293.757 31.1567L293.947 31.2521L294.233 31.4428L294.424 31.4904H294.71H294.853L294.948 31.5381V31.6335L294.853 31.8242L294.901 31.9672L295.187 32.0149H295.234V32.2056H295.377L295.473 32.1102L295.52 32.1579L295.473 32.3486L295.902 32.73H295.997L296.045 32.8253L296.092 32.9683L296.188 33.2067L296.045 33.7788L295.997 33.8264L295.949 33.6834L295.663 33.4927H295.568L295.52 33.5881L295.377 33.8741H294.996L294.901 34.0171L294.615 34.3032L294.329 34.4939L294.186 34.5416L293.947 34.7322V34.7799V35.0183L293.804 35.066L293.614 35.1136L293.375 35.3043L293.328 35.4473L293.375 35.5904L293.566 35.7811L293.661 35.8764L293.804 35.9718L293.947 36.1148L294.186 36.1624H294.424L294.519 36.2101L294.901 36.2578L294.948 36.3055V36.7345L294.853 37.0206L294.71 37.2589L294.519 37.402L294.567 37.5927L294.472 37.7833V37.8787L294.519 38.1171L294.615 38.1647L294.853 38.2124L295.044 38.3554L295.234 38.3078L295.282 38.4031L295.377 38.5938V38.8322L295.425 38.9275V39.0229L295.282 39.1182L295.187 39.2136L294.948 39.4519L294.853 39.6426L294.662 39.7856L294.424 39.9287L294.376 40.024L294.329 40.1193L294.281 40.2624L294.138 40.31L294.043 40.4531L293.9 40.5007L293.804 40.6914H293.947L294.186 40.7868L294.472 40.8344H294.567L294.662 40.9298V41.0251L294.519 41.1682L294.376 41.4065L294.281 41.5019L294.186 41.6926L294.233 41.7879L294.329 41.9786L294.281 42.1693L294.424 42.2647V42.36L294.376 42.503L294.281 42.6937V42.7414L294.376 42.8367V42.9321L294.329 43.0274L294.138 43.1704L294.09 43.3135H293.995L293.852 43.4565V43.5518L293.661 43.8856L293.566 44.0286L293.614 44.3623L293.709 44.41L293.852 44.6483L293.995 44.696H294.186L294.281 44.6483L294.376 44.696L294.758 44.553L294.996 44.5053L295.091 44.6007L295.139 44.839L295.091 45.1727V45.2681L295.187 45.3158L295.282 45.2681H295.568L295.663 45.0774L296.045 44.9344L296.235 44.982L296.331 45.0774L296.521 45.0297L296.855 44.982L296.903 45.0297L296.95 45.2204H297.046L297.189 45.1727L297.284 45.2204L297.475 46.2692V46.3646L297.332 47.6994L297.189 47.7471L297.141 47.8424V47.9855L297.236 48.0808L297.522 48.1285L297.618 48.2238H297.856L298.047 48.1762L298.19 48.2715L298.142 48.4622L298.047 48.5576L297.856 48.7006L297.761 48.8913L297.713 49.1773L297.761 49.368L297.904 49.4633L297.808 49.5587H297.713L297.665 49.654L297.713 49.8924L297.761 49.9878L297.808 50.2738L297.999 50.5122L298.094 50.7029L298.285 50.7982L298.333 50.9889L298.237 51.1796L298.285 51.2749L298.333 51.3226L298.428 51.5133L298.714 51.704V51.7993V51.8947L298.619 52.0854L298.428 52.5145L298.333 52.6098L298.285 52.7051V52.8005L297.999 53.1342L297.856 53.3726L297.761 53.4679L297.665 53.6586L297.379 53.897L297.284 54.04V54.2307L297.332 54.4214L297.427 54.5167L297.522 54.6121L297.713 54.5167L297.761 54.326V54.2307L297.904 54.0877L298.142 53.9447L298.38 53.8493L298.571 53.7063L298.809 53.6586L298.905 53.5633L299.048 53.4679L299.238 53.4202L299.477 53.3249L299.62 53.1819L299.81 53.1342L300.001 53.0389L300.192 52.9912L300.382 53.0865L300.621 53.1342L300.764 53.2772H300.907L300.764 53.4202V53.5633L300.907 53.754L301.05 53.8493L301.145 54.0877L301.193 54.2307L301.097 54.4691L301.145 54.7074L301.097 54.8981L301.002 55.1365L300.954 55.5179L301.193 55.7562L301.24 56.1376L301.097 56.2807L300.859 56.4713L300.668 56.5667L300.573 56.6144L300.478 56.7097V56.8051L300.287 57.0911V57.1864L300.096 57.3771L300.001 57.5202L299.81 57.7109H299.62L299.429 57.8062L299.334 57.9492L299.143 58.1876L298.952 58.3783L298.857 58.569L298.762 58.9504L298.619 59.1411V59.2841L298.714 59.5224L298.666 59.7131V60.0945L298.619 60.2376L298.714 60.3806L298.952 60.6189V60.8096L299.048 61.048V61.1433L298.905 61.3817L298.666 61.5724L298.571 61.7631V61.9538V62.1922L298.619 62.2875L298.809 62.4305L298.857 62.5259L298.714 62.7642L298.762 63.0026L298.952 63.1456V63.3363L299.143 63.4317L299.191 63.527L299.143 63.8607L299.048 64.0514L299 64.2421V64.4328L298.952 64.5282L298.905 64.7189V64.9096L298.857 65.0049L298.809 65.1479L298.905 65.3386V65.577L299.048 65.8153L299.095 66.1014H299.143H299.334L299.429 66.2921L299.381 66.3874L299.286 66.4828L299.334 66.8165L299.286 66.9595L299.334 67.0549V67.3409L299.381 67.4362H299.572L299.62 67.77L299.763 68.0083H299.906L300.049 68.199L300.239 68.2944L300.382 68.4851L300.43 68.5804V69.2002L300.478 69.3432H300.668L300.716 69.3909H300.859L300.954 69.4385L301.097 69.7246L301.24 69.8199L301.336 69.7722L301.383 69.8199L301.526 70.0583V70.249L301.479 70.535L301.526 70.6304L301.669 70.7734L301.765 71.0594L302.003 71.3455H302.098L302.289 71.2024H302.527L302.718 70.8687L302.909 70.7734L303.052 70.8687V71.0594L303.099 71.1548L303.29 71.2501L303.242 71.4408L303.385 71.5838H303.576L303.671 71.7269V71.8699L303.767 71.9176V72.0606L303.862 72.2036V72.3466L303.814 72.4896V72.8233L303.767 73.014L303.814 73.0617L304.1 72.871L304.243 72.9187L304.291 72.9664V73.2524V73.4431L304.339 73.5385L304.386 73.7291L304.339 73.8722L304.196 73.9198L304.243 74.2536L304.386 74.3489L304.529 74.6826L304.672 74.7303L304.815 74.8256L305.054 75.207L304.577 76.0175L304.672 76.2082V76.3035L304.577 76.3989L304.529 76.6372L304.577 76.8279L304.529 76.9709L304.148 77.257V77.4953L304.053 77.7337L303.91 77.8291L303.862 77.9721L303.814 78.2104L303.719 78.2581L303.624 78.4011L303.481 78.5918L303.385 78.8302V78.9732L303.29 79.0686L303.338 79.4023L303.29 79.593V79.736L303.338 79.8313L303.242 80.1651V80.6418L303.29 80.6895H303.433L303.481 80.7848L303.385 80.8325L303.29 81.0709L303.242 81.1662H303.147L302.956 81.3092V81.4522L303.052 81.4999L303.195 81.7383V81.8336L303.052 82.1673L303.242 82.4057V82.5964L303.195 82.7394L303.385 82.9301V83.0731H303.528V83.1685L303.481 83.3115L303.576 83.3592L303.719 83.3115V83.3592L303.671 83.5022L303.719 83.5976H303.814L304.005 83.5022H304.386L304.434 83.6452L304.339 83.8836L304.434 84.0743L304.386 84.2173V84.551L304.1 84.4557L304.053 84.5033L304.005 84.6464L303.91 84.7417V84.8371L303.814 85.0754L303.91 85.2184V85.3138L303.767 85.3615V85.5522L303.576 85.7429L303.481 85.8859L303.338 85.9335L303.195 85.9812L303.147 86.1242L303.052 86.2673V86.3626L303.099 86.4103L303.147 86.601L303.099 86.6963L303.004 86.7917L302.813 86.887L302.67 87.03L302.623 87.2207V87.5068V87.5545L302.718 87.7928V87.8882L302.623 87.9835L302.432 88.4126L302.241 88.5556L302.194 88.6986L301.955 89.1753V89.2707L301.86 89.4614L301.669 89.5091L301.622 89.4614H301.574L301.526 89.6044L301.479 89.8428L301.336 90.1288V90.3195L301.288 90.5579L301.145 91.0823L301.097 91.273L300.954 91.4637V91.6067L300.907 91.7974H300.716L300.621 91.8927L300.43 92.4171L300.382 92.6078H300.525L300.478 92.7032L300.382 92.8939L300.287 92.9892L300.239 93.2753L300.144 93.5136L299.953 93.8473L299.81 93.9427L299.763 94.0857L299.858 94.2764L299.81 94.3718L299.572 94.5148L299.429 94.7531L299.286 94.7055L299.143 94.8008L299.095 94.9438L299 95.0869H298.905L298.809 95.2776L298.714 95.3252V95.5159L298.523 95.5636H298.333V95.8496H298.19L298.142 95.802L297.999 95.7543L297.856 95.8973L297.713 95.8496L297.57 96.088V96.1357L297.427 96.3264L297.475 96.5171L297.189 96.8031L297.141 96.9461V97.0415L296.903 97.2798L296.855 97.3275L296.807 97.8519L296.95 97.8996L297.046 97.9949L296.95 98.0903H296.76L296.712 98.1856L296.664 98.3287L296.617 98.4717L296.664 98.567L296.712 98.9961L296.617 99.0914L296.474 99.4251V99.7112L296.331 99.8065L296.283 99.9496L296.331 100.045L296.235 100.331V100.379L296.14 100.617L296.045 100.76L295.806 100.855L295.759 100.951V101.046L295.902 101.094L295.997 101.237L295.902 101.427L295.854 101.666L295.949 101.761H295.997L296.14 101.618L296.235 101.713H296.331L296.426 101.475L296.474 101.189L296.617 101.094L296.712 100.998V100.808V100.665L296.807 100.617V100.474L296.903 100.379V100.283L296.807 99.9972L296.855 99.7589L296.903 99.6635L297.141 99.6158L297.189 99.5205L297.332 99.4728H297.427L297.522 99.4251L297.713 99.3298H297.808L297.904 99.3775L297.999 99.2821L298.047 99.0914L298.19 98.9961H298.333L298.38 98.9484L298.476 98.9007L298.809 98.71L298.952 98.567L299.048 98.5193L299.095 98.281L299.238 98.138L299.334 98.1856L299.381 98.3287L299.524 98.3763L299.715 98.281L299.81 98.1856L299.906 97.9949V97.8042L300.001 97.6135L300.144 97.5182L300.192 97.5659L300.335 97.4705H300.525L300.573 97.4229L300.668 97.5659V97.8519L300.716 97.9473L300.668 97.9949L300.716 98.0903H300.859L300.907 98.1856L300.859 98.281L301.05 98.5193H301.145L301.24 98.424L301.336 98.5193L301.383 98.6624L301.288 98.8054L301.193 98.9484V99.0438L301.383 99.1868L301.431 99.2345L301.383 99.3775L301.193 99.6635L301.145 99.8065L301.05 99.9972L301.097 100.093H301.288L301.336 100.188L301.526 100.14L301.622 99.9972V99.8065L301.765 99.7589V99.7112H301.955L302.098 99.7589L302.194 99.6635L302.337 99.7112L302.48 99.7589L302.527 99.8065L302.623 99.7589L302.67 99.7112L302.718 99.4728V99.2821L302.766 98.9484H302.813V98.8054L302.909 98.7577H303.004L303.195 98.6624L303.242 98.567L303.481 98.3763L303.719 98.4717L303.862 98.3763L303.91 98.4717H304.005L304.1 98.3763V98.281H304.053L303.862 98.0426L303.814 97.8996V97.8042L303.91 97.6612L304.1 97.5659V97.5182L303.957 97.3752L303.91 97.2798L304.053 97.1845L304.291 97.0415H304.434L304.529 97.0891L304.577 97.2322L304.768 97.1845L304.863 97.0891L304.911 96.8984H304.958L305.054 97.0415V97.1845H305.197L305.34 97.3275L305.53 97.3752H305.816L305.959 97.2798H306.055L306.293 97.3752L306.388 97.4705H306.484V97.3752L306.341 97.2798L306.436 97.1845L306.627 97.1368L306.77 97.0415L306.96 96.8508L307.246 96.9461H307.628L307.723 96.9938L307.771 97.1845L307.914 97.4229V97.5659V97.6612L308.057 97.7566H308.152L308.295 97.6612L308.486 97.4705H308.676H308.772L308.867 97.5659V97.6612L308.915 97.7089L309.058 97.9949L309.01 98.0903V98.1856L308.962 98.3763L309.058 98.6147L309.153 98.71L309.296 98.7577V98.9007L309.248 99.2345L309.153 99.4728L309.058 99.9019L309.01 99.9972L308.962 100.188L308.915 100.236L308.962 100.331L309.058 100.379L309.201 100.188L309.248 100.283L309.296 100.569L309.344 100.808L309.439 100.998H309.582L309.725 101.094H309.868L310.106 100.998H310.154L310.297 100.951L310.488 100.998L310.631 100.951L310.726 100.903L310.821 100.855L310.869 100.76L311.06 100.712L311.155 100.569L311.346 100.522L311.536 100.426L311.632 100.474L311.775 100.426L311.918 100.474H312.061L312.156 100.331L312.394 100.188L312.49 100.093L312.585 100.14L312.68 100.093L313.062 100.045L313.205 100.14H313.538L313.586 100.331H313.92L314.158 100.379H314.253L314.492 100.331L314.587 100.236L314.778 100.188L314.921 100.14L314.968 100.283L315.207 100.379L315.254 100.665L315.207 100.808L315.111 100.903L315.064 101.189L315.111 101.38L314.968 101.666H315.159L315.207 101.809L315.159 101.856L315.111 102.143L315.207 102.19L315.254 102.238L315.159 102.381H315.064L314.968 102.619L314.873 102.667L314.921 102.858L315.016 102.905L315.111 103.096V103.144L315.064 103.287L315.159 103.477L315.254 103.573L315.302 103.716L315.159 104.049L315.254 104.24L315.207 104.431V104.717L315.111 104.908L315.207 105.051H315.302L315.397 105.098L315.493 105.051V105.194L315.54 105.241V105.432L315.779 105.623H315.826L315.874 105.766L315.969 105.861L316.208 105.909L316.351 106.147L316.494 106.242L316.589 106.147L316.637 106.195H316.78V106.29L316.875 106.338V106.528L316.923 106.576L316.875 106.672L316.923 106.815L317.018 106.767V106.91H317.209L317.256 107.053L317.399 107.101V107.196L317.447 107.244L317.542 107.387L317.59 107.53L317.542 107.768L317.59 107.863L317.733 107.816L317.781 107.911L317.876 107.959L317.924 108.054H318.067L318.114 108.149L318.257 108.102L318.448 108.292L318.496 108.388L318.591 108.292L318.734 108.34L318.829 108.292L318.925 108.34L319.115 108.292L319.211 108.34L319.401 108.292H319.64L319.783 108.197H319.973L320.116 108.149H320.355L320.498 108.102H320.593L320.688 108.245L320.736 108.388L320.688 108.626L320.736 108.769L320.641 108.864L320.45 109.246V109.437L320.545 109.484H320.688L320.784 109.58L320.736 109.675L320.879 109.818L321.07 109.77V109.818L321.26 109.866V109.913L321.356 109.818H321.451L321.546 109.913L321.451 110.009L321.356 110.438L321.546 110.533V110.581L321.403 110.724L321.451 110.914H321.594L321.499 110.771L321.642 110.676L321.785 110.628L321.832 110.724L321.88 110.628L321.975 110.676L322.023 110.819L321.928 110.914L321.88 111.057L321.975 111.105L321.928 111.391L322.023 111.582L322.118 111.725L322.166 111.963L321.975 112.059L322.023 112.297L321.975 112.345L321.737 112.44V112.535L321.594 112.726V112.869L321.499 113.107L321.642 113.393L321.737 113.536L321.689 113.727L321.737 113.966L321.832 113.87L321.88 113.441V113.203L322.023 113.155L322.118 112.917V112.821L322.214 112.869L322.357 112.821L322.452 112.678L322.547 112.583L322.643 112.631V112.726L322.833 112.774L322.881 112.964V113.107L322.929 113.155L323.167 113.107L323.358 113.155L323.405 113.107L323.596 113.155L323.548 113.25H323.596L323.739 113.107L323.691 113.012L323.739 112.964L323.882 113.06L324.025 113.203L324.073 113.346L324.359 113.441L324.406 113.346L324.216 113.155V113.107L324.359 113.06L324.406 112.917L324.502 112.821L324.692 112.726H324.835L324.931 112.821L325.074 112.678L325.121 112.583L325.169 112.44L325.264 112.345L325.407 112.297L325.503 112.202L325.455 112.011L325.646 112.106L325.598 112.202L325.693 112.249L325.884 112.154L325.979 111.963L326.027 111.916H326.17L326.218 111.773L326.408 111.63L326.313 111.487L326.17 111.391V111.296L326.361 111.153L326.265 111.105H326.122V111.057L326.17 110.962H326.313L326.408 111.01L326.504 110.962H326.837L326.933 110.867L326.837 110.771V110.581L326.885 110.485L327.076 110.342L327.171 110.438H327.266L327.314 110.342L327.266 110.247L327.314 110.152L327.409 110.056H327.505L327.6 110.247H327.791L327.838 110.104V109.913L327.934 110.009L328.077 109.913L328.124 110.056L328.172 110.199L328.41 110.295L328.458 110.199L328.649 110.104H328.696L329.078 110.009L329.221 109.866L329.316 109.723L329.411 109.627L329.554 109.675L329.745 109.532L329.84 109.484L330.126 109.77V109.866L330.174 109.961L330.317 109.818V109.627L330.365 109.532H330.651L330.889 109.58V109.675L331.08 109.58L331.223 109.627L331.318 109.58L331.413 109.437L331.318 109.341L331.413 109.246H331.509L331.652 109.341L331.699 109.103H331.795L331.938 108.96V108.912L331.747 108.817L331.461 108.721V108.626L331.604 108.578L331.795 108.34L331.89 108.197L332.128 108.102L332.224 108.149L332.414 108.245H332.653L332.7 108.388L332.653 108.483L332.462 108.531L332.51 108.626H332.7L332.748 108.388H332.939V108.483L332.843 108.674L332.51 108.864V108.912H332.7L332.843 108.721L333.034 108.769L333.129 108.721L333.082 108.245L332.939 107.911L333.034 107.863L333.129 108.054L333.225 108.102L333.415 108.054L333.511 107.911V107.816L333.32 107.577H333.177L333.034 107.434L333.082 107.387L333.034 107.148L333.32 107.005V107.244H333.368L333.606 107.196L333.701 107.291L333.844 107.339H333.987L334.035 107.148L334.178 107.053L334.273 107.101L334.416 107.053L334.464 106.958L334.559 107.053L334.607 107.005H334.845L334.798 106.91L334.893 106.767L334.845 106.672H334.941L335.084 106.815V107.005V107.148L335.131 107.291V107.53L334.941 107.72L335.036 107.816L335.227 107.863L335.084 108.006V108.054L335.274 108.197L335.322 108.006H335.513V108.245L335.322 108.388L335.37 108.578L335.322 108.674L335.37 108.864L335.465 108.817L335.703 108.864L335.751 108.912L335.703 109.008L335.656 109.103L335.703 109.198L335.751 109.389H335.799L336.085 109.246V109.103L336.132 109.055L336.275 108.96L336.323 108.912L336.418 108.769H336.609L336.657 108.817H336.752L336.99 108.912L337.133 108.96L337.276 109.103L337.515 109.198H337.705L338.039 109.341L338.087 109.389L338.134 109.151L338.277 109.103L338.42 109.198H338.563L338.659 109.151L338.706 109.055L338.802 108.96V108.817L338.706 108.721V108.674L338.992 108.578L339.183 108.864L339.278 108.96L339.374 108.912L339.517 108.769L339.803 108.674L339.898 108.578L339.803 108.34L339.707 108.388L339.66 108.483L339.612 108.435L339.755 108.292H339.898L340.089 108.245L340.279 108.054L340.422 108.006L340.47 107.863L340.375 107.768V107.482L340.518 107.196L340.47 107.005L340.518 106.91H340.422L340.327 107.005L340.279 106.91L340.327 106.624L340.041 106.338L340.089 106.147L340.041 106.099H339.946L339.85 105.956L339.898 105.909L339.993 106.004L340.136 106.052H340.327L340.375 105.956L340.327 105.861H340.136L340.089 105.813L340.184 105.67L340.375 105.623L340.518 105.575V105.48L340.422 105.289L340.327 105.194H340.136L340.041 105.241L339.946 105.146L340.089 105.051L340.041 104.955H339.898L339.755 105.051L339.66 105.003L339.803 104.908L339.898 104.765V104.431L340.041 104.288V103.954L339.898 103.906L339.66 103.811V103.763L339.755 103.716L339.707 103.62L339.803 103.477L339.612 103.43L339.517 103.382L339.469 103.287L339.517 103.191H339.421V103.096H339.326V102.953L339.421 102.858L339.612 102.572L339.803 102.381L339.993 102.429L340.041 102.381L340.136 102.047L340.279 101.904L340.422 101.761V101.618L340.661 101.427L340.804 101.284L340.851 101.189L340.899 100.903L341.09 100.808L341.042 100.665L341.137 100.522L341.28 100.474L341.328 100.283L341.423 99.9972L341.519 99.9496L341.662 99.9019L341.805 99.7112L341.852 99.5682V99.2821L341.948 99.0914V99.0438V98.9484L342.043 98.8054H342.186L342.329 98.9484H342.377L342.329 99.0914L342.71 98.9484L342.806 98.8531L342.949 98.8054L342.996 98.567L342.853 98.281L342.949 98.2333L343.139 98.3287L343.33 98.5193L343.568 98.3763L343.664 98.2333L343.807 98.281L343.95 98.3287L343.997 98.424L344.14 98.3287L344.283 98.424L344.236 98.5193V98.6624L344.379 98.567L344.426 98.4717L344.379 98.3287V98.138L344.283 98.0903L344.331 97.9949L344.474 97.8996L344.522 97.9473L344.569 97.8996L344.522 97.6612L344.617 97.2798V97.1368L344.522 96.8508L344.665 96.6601L344.76 96.5171V96.3264L344.855 96.1833L344.951 96.1357L344.76 95.945L344.617 95.8496L344.665 95.7543L344.617 95.7066L344.474 95.802L344.522 95.6589L344.76 95.6113L344.903 95.5636L344.951 95.4682L345.284 95.3252L345.332 95.2776V95.1345H345.38L345.475 95.3729L345.618 95.4682H345.666L345.761 95.2299L345.856 95.0869L345.999 95.0392L345.952 94.8485L346.047 94.7531L346.142 94.8962H346.19L346.428 94.6578L346.524 94.3718L346.619 94.2764L346.667 94.2287L346.857 94.0857L346.905 93.8473H347.143V93.5613L347.286 93.5136L347.382 93.5613L347.477 93.3706V93.2753L347.572 93.0369L347.715 92.8939L347.858 92.7032L347.906 92.6555H348.049V92.5125L348.24 92.4171L348.383 92.2741L348.478 92.0834L348.669 91.8927L348.716 91.8451L348.669 91.7974L348.764 91.702L348.907 91.7497L348.955 91.702H349.098L349.145 91.6067H349.241L349.288 91.4637L349.384 91.3683H349.479L349.431 91.2253H349.384L349.336 91.3207L349.193 91.2253L349.241 91.1776L349.384 91.13L349.241 91.0346L349.336 90.8916H349.241V90.8439L349.05 90.7009V90.6532L349.145 90.5102L348.955 90.3672L348.812 90.5102H348.669L348.716 90.3672H348.669L348.859 90.0335V89.7951L348.907 89.6521L349.002 89.6044L349.098 89.4137L349.193 89.223H349.002L348.907 89.2707L348.859 89.1277L348.907 88.937V88.937L349.05 88.9847L349.002 88.8893L349.145 88.794L349.05 88.7463H348.955L348.907 88.6509L348.812 88.6986L348.764 88.794V88.937L348.716 89.0323L348.573 88.9847V88.794H348.478L348.43 88.6033L348.287 88.5079L348.24 88.6509L348.144 88.6033V88.5079L348.24 88.3649L348.335 88.4126L348.383 88.1742L348.43 88.2219L348.383 88.0312L348.478 87.9358L348.526 87.9835L348.716 87.7928L348.526 87.6975V87.5545L348.478 87.4591H348.43L348.478 87.3161H348.383L348.287 87.1731L348.526 86.9824V86.8393H348.621L348.669 86.744L348.573 86.5056L348.812 86.458V86.2673L348.907 86.1242L348.955 86.0289L348.907 85.9335L349.05 85.7905L349.098 85.6952L349.241 85.7429L349.145 85.6475L349.002 85.5998L349.05 85.4568L349.098 85.4091V85.2661H348.955L348.907 85.1708L349.098 85.0278L349.05 84.9801L349.098 84.9324L349.145 84.8371L349.098 84.7417V84.6464L349.002 84.551H349.098V84.4557L349.193 84.3127L349.241 84.3603V84.265L349.336 84.3127L349.431 84.1696H349.479V84.0743L349.288 83.9313L349.384 83.8836H349.479L349.574 83.7882L349.622 83.6929L349.431 83.5976V83.5499L349.527 83.4069H349.479V83.2638H349.384L349.431 83.1685L349.336 83.0255L349.241 82.8824L349.098 82.7394L348.955 82.7871V82.6441V82.5487L349.05 82.5011V82.4534L349.336 82.2627L349.479 82.358L349.574 82.215L349.527 82.1197L349.431 81.9767H349.574L349.622 81.929L349.574 81.8813L349.67 81.8336L349.765 81.6906H349.813V81.5476L349.908 81.4999L350.099 81.2139L350.194 81.1185L350.146 80.9755L350.242 81.0709L350.385 80.9755L350.528 80.7848H350.575L350.766 80.6418V80.4988L350.909 80.4034L350.957 80.4511L350.909 80.5465L351.052 80.4988L351.195 80.5465L351.338 80.3081L351.29 80.2604L351.338 80.1174L351.481 79.9744L351.433 79.879L351.338 79.7837H351.195L351.243 79.6883L351.147 79.593L351.338 79.4023L351.481 79.3069L351.529 79.0209L351.481 78.9256L351.529 78.8779L351.576 78.7825H358.107H360.013L360.061 78.9256L359.966 79.0209L359.918 79.0686L359.775 79.2593L359.68 79.3546L359.727 79.5453V79.736L359.87 79.8313L359.918 80.1174L359.87 80.2127H360.013V80.4034L359.918 80.4988L359.966 80.5941L359.87 80.6418V80.7371L359.775 80.8802L359.823 80.9755L359.775 81.0709L360.013 81.4999L359.918 81.6906L359.87 81.929L359.775 82.072V82.1197L359.632 82.215L359.584 82.358V82.4057L359.489 82.4534L359.537 82.5964L359.394 82.7394L359.346 82.8348H359.298L359.155 82.9301L358.965 83.0731L358.917 83.1685V83.2638L359.012 83.3115L359.251 83.4069L359.394 83.5499L359.68 83.6452L362.254 85.5998L363.731 86.744L363.779 86.7917L365.686 88.3172L365.733 88.4126L365.829 88.8416L366.019 89.08V89.223L366.115 89.366L366.258 89.4614L366.353 89.5091L366.687 89.6998V89.8428V90.0335L366.83 90.1288L366.973 90.2242L367.306 90.2718L367.402 90.3195V90.1765H367.497L367.735 90.0335H367.783L367.926 89.9381L367.878 89.8428L368.164 89.8904H368.212L368.355 89.8428L368.593 89.9858H368.736V90.0335L368.927 90.0811V90.2718L369.07 90.4625L369.022 90.7962L369.07 90.9393L369.022 91.0823L369.07 91.1776L369.118 91.416L369.022 91.5114V91.6544L369.07 91.7497L369.213 91.8927L369.356 92.0834H369.451V92.2741L369.499 92.3218L369.594 92.4648V92.6555L369.499 92.7032L369.451 92.9892L369.547 93.0369V93.1322L369.69 93.2753L369.785 93.3229L369.88 93.4183L369.976 93.7043L369.928 93.8473L369.976 93.9904L369.88 94.0857V94.1334H369.737L369.69 94.1811L369.785 94.2764L369.833 94.3718L369.976 94.4671L370.166 94.7055L370.023 94.8485L370.071 95.0869L370.166 95.1822H370.214L370.262 95.3252L370.214 95.3729L370.166 95.4682L370.119 95.5636H370.214V95.8496V95.9927L370.071 96.088V96.1357L369.976 96.1833L370.023 96.3264L370.071 96.4217L369.88 96.5647L369.928 96.6124L369.737 96.7078L369.69 96.8031H369.642L369.594 96.9461H369.69L369.737 97.0415L369.642 97.1845V97.4229H369.737V97.6612H369.785L369.88 97.6135L369.928 97.7089L370.166 97.8996L370.262 97.9473L370.357 98.0426L370.5 98.281V98.3763L370.643 98.5193H370.595L370.691 98.9007L370.738 99.1391L370.691 99.2345L370.738 99.4728L370.834 99.5682L370.786 99.7589L370.834 99.8542V100.093L370.738 100.188V100.283L370.834 100.379L370.881 100.474L370.786 100.522L370.834 100.617L370.786 100.76L370.738 100.855L370.691 100.998L370.738 101.094L370.834 101.189L370.786 101.284V101.475V101.57V101.713L370.834 101.856L370.881 102L370.834 102.095L370.738 102.143L370.643 102.238H370.834L370.881 102.286L370.834 102.429L370.881 102.572V102.619L370.786 102.572V102.667L370.691 102.905L370.834 103.001V103.287L371.024 103.477V103.573L370.929 103.668L370.977 103.811L370.929 104.049L370.881 104.097H370.977V104.288L370.929 104.383L371.072 104.526L371.12 104.574L371.263 104.812L371.358 104.86L371.501 105.051L371.644 105.098V105.289L371.787 105.48L371.835 105.527L371.978 105.623L372.121 105.909L372.073 106.004L372.121 106.052H372.264L372.311 106.099L372.359 106.242L372.264 106.385L372.407 106.528V106.624H372.502L372.55 106.767L372.693 106.91L372.645 107.005H372.74L372.883 106.958L373.026 107.101L372.979 107.244L373.026 107.482H373.122L373.169 107.577L373.026 107.673L373.074 107.863H372.979L373.074 108.006L373.265 107.959L373.312 107.863H373.455L373.408 107.959H373.503V108.054L373.598 108.102L373.551 108.149L373.694 108.245L373.551 108.34L373.646 108.531L373.598 108.674L373.646 108.721L373.598 108.817V108.96L373.455 109.008L373.408 109.103L373.312 109.198H373.169L373.122 109.294L373.169 109.341L373.265 109.532L373.122 109.58V109.627L372.979 109.723L372.883 109.913L372.788 110.009L372.836 110.104L372.979 109.961L373.026 110.056L372.931 110.152L373.026 110.342L373.074 110.39V110.485L373.265 110.628L373.312 110.581L373.408 110.724L373.503 110.676L373.598 110.771L373.741 110.724L373.694 110.819L373.837 110.867V111.01L374.075 110.962L374.313 111.105V111.153L374.17 111.296V111.439L374.361 111.582L374.409 111.534V111.391H374.647L374.79 111.487L374.838 111.63L374.79 111.773V111.963L374.885 112.059L374.981 112.106L375.124 112.249L375.076 112.392L375.124 112.488L374.933 112.44L374.838 112.583L375.171 112.774L375.219 112.917L375.362 113.012L375.41 113.107L375.505 113.06V113.012H375.6L375.743 112.821L375.791 112.869V113.012L375.886 112.869L375.934 112.964L376.077 113.06H376.125V112.917L376.268 113.06V113.25L376.363 113.346L376.411 113.489L376.554 113.584V113.68H376.649L376.744 113.727H376.792L376.697 113.632L376.84 113.584L376.887 113.68V113.584L376.983 113.632L377.078 113.68L377.126 113.775L377.03 113.823L377.078 113.918L377.459 113.966L377.555 113.918L377.65 114.013H377.793L377.65 114.156V114.204H377.793L377.984 114.347L377.841 114.442V114.49L377.984 114.585H378.174L378.222 114.49L378.174 114.299L378.365 114.204L378.413 114.252L378.508 114.395L378.651 114.49L378.842 114.538L378.889 114.585L378.746 114.681L378.699 114.776L378.746 115.014L378.794 115.157L378.651 115.396L378.603 115.586L378.746 115.634V115.729L378.794 115.825H378.889L378.937 116.016L378.842 116.111L378.937 116.302V116.492L378.842 116.54L378.746 116.683H378.556L378.413 116.778L378.365 116.921L378.27 116.969L377.841 117.255L377.793 117.398H377.698L377.364 117.779L377.412 117.875H377.555L377.745 117.922V118.065L377.65 118.161V118.256L377.793 118.352L377.841 118.447L377.936 118.685L377.793 118.924L377.745 119.162L377.698 119.305L377.602 119.4V119.543L377.507 119.639L377.364 119.734L377.412 119.829L377.316 119.972L377.221 120.306L377.412 120.449V120.544L377.364 120.735L377.269 120.783V120.878L377.316 120.974L377.221 121.117L377.316 121.355L377.269 121.546V121.927L377.316 122.022L377.412 122.07L377.65 122.118L377.698 122.165L377.65 122.308L377.555 122.356V122.404L377.602 122.594L377.555 122.737L377.507 122.785V122.88L377.65 122.976V123.167L377.698 123.214L377.745 123.31L377.793 123.405L377.936 123.834L377.888 124.072L377.936 124.168L378.031 124.311L378.127 124.549L378.079 124.692V124.835L378.317 125.026L378.365 125.073V125.169L378.222 125.216L378.031 125.36V125.455V125.693L378.222 125.789L378.27 125.932L378.317 126.027L378.508 125.979L378.556 125.884L378.746 125.932L378.937 125.979L379.08 126.075L378.985 126.218L378.794 126.265L378.746 126.361L378.889 126.551L379.08 126.647L379.318 126.837L379.271 126.933L379.223 127.028L379.08 127.171H378.889L378.794 127.123H378.556L378.508 127.219L378.46 127.409L378.413 127.457L378.46 127.552L378.651 127.839L378.699 127.886L378.651 128.125H378.603L378.508 127.982L378.46 127.934L378.174 127.982L377.984 128.172L377.936 128.268L377.745 128.411H377.602L377.412 128.458V128.506L377.364 128.887L377.173 128.935L377.078 129.03H377.03L376.935 128.792L376.792 128.697L376.744 128.792L376.84 128.935L376.792 129.03H376.601L376.363 129.078L376.077 129.126L375.791 129.173L375.696 129.269L375.743 129.507L375.839 129.745L375.982 129.888L376.077 129.984L376.029 130.127L375.886 130.222V130.318L376.077 130.556L376.125 130.699L376.077 130.842L376.125 131.319L376.172 131.414V131.652V131.748L376.315 131.843V131.986L376.22 132.177L376.268 132.415L376.744 133.035L376.983 133.226L377.03 133.321L376.84 133.75L376.697 133.941H376.554L376.411 133.893L376.22 133.845L375.982 133.893L375.648 133.941L375.553 133.988L375.6 134.036L375.743 134.131V134.274L375.839 134.37V134.513L375.696 134.608H375.6L375.553 134.704L375.219 134.799L375.171 134.847L375.124 134.99L375.028 135.133V135.228L375.171 135.419L375.362 135.514L375.41 135.895L375.553 135.991L375.696 135.895H375.791V136.038L375.553 136.086L375.505 136.134V136.229L375.648 136.42L375.791 136.563L375.934 136.658L376.029 136.801L376.077 136.944L376.22 137.183H376.315L376.363 137.135L376.458 136.658L376.554 136.515H376.649L376.887 136.61V136.753L376.744 136.896L376.649 137.04V137.135L376.84 137.23V137.326L376.697 137.612L376.601 137.802L376.506 137.898L376.315 138.231L376.172 138.279L375.934 138.327L375.553 138.47L375.505 138.66L375.553 138.756V139.137L375.696 139.328L376.029 139.519L376.077 139.662V139.852L376.172 140.043L376.077 140.186L375.791 140.281H375.743L375.553 139.995H375.457L375.41 140.043V140.186L375.362 140.329L375.457 140.567L375.553 140.806L375.505 140.901H375.41L375.219 140.949L375.171 141.092L374.933 141.33L374.647 141.282L374.504 141.33H374.313L374.218 141.378V141.425L374.123 141.616L374.218 141.902L374.266 142.188V142.379L374.218 142.57L374.361 142.856L374.409 143.094L374.504 143.428L374.647 143.571L374.599 143.761L374.552 143.857L374.266 143.952H374.218L374.17 143.714L374.266 143.571L374.409 143.523V143.428L374.313 143.38L374.266 143.428L374.17 143.571L374.075 143.618H373.884L373.694 143.523L373.646 143.428L373.551 143.38L373.408 143.428L373.312 143.666L373.122 143.857L373.217 143.952H373.36L373.408 144.048L373.455 144.334L373.408 144.524H373.169L373.074 144.715L372.931 145.096L372.883 145.144L372.788 145.192L372.74 145.096L372.883 145.049L372.931 145.001L372.836 144.858V144.715L372.74 144.62L372.597 144.715L372.311 144.763V144.81H372.454L372.502 144.906V145.096L372.407 145.144L372.359 145.239V145.335V145.478H372.311L372.168 145.335L372.025 145.287H371.978L371.882 145.43L371.787 145.478L371.596 145.43L371.549 145.525V145.954L371.644 146.002H371.739L371.835 145.907L371.978 145.859L372.121 145.954L372.073 146.097L371.978 146.24L371.835 146.431L371.787 146.574L371.644 146.67H371.596L371.644 146.527L371.596 146.384L371.453 146.288L371.31 146.193H370.977L370.881 146.288L371.167 146.527L371.215 146.622L371.263 146.86L371.215 146.908H370.977L370.786 147.051L370.691 147.146L370.452 147.194L370.309 147.146L370.166 147.051H370.119L369.88 147.385L369.833 147.623V147.766L369.88 147.861L370.023 147.957L370.262 148.052L370.119 148.195V148.338L370.023 148.481V148.624L370.119 148.815L370.262 149.006L370.309 149.149H370.214L370.023 149.101L369.976 148.958L369.88 149.053L369.785 149.196L369.642 149.292L369.499 149.482L369.356 149.816L369.261 149.911L369.022 150.007H368.975L368.832 149.721L368.689 149.673L368.546 149.768L368.498 149.864L368.546 150.102L368.403 150.388V150.579L368.355 150.674L368.212 150.865L368.117 150.96L368.069 150.912L367.974 150.674L367.878 150.531L367.735 150.436H367.545L367.259 150.722L366.973 150.769L366.925 150.817V151.103L366.877 151.389V151.628L367.068 151.818L367.116 152.009L367.068 152.152L367.02 152.247L366.734 152.343L366.591 152.438L366.448 152.486L366.258 152.39L366.162 152.295H366.067L366.019 152.486L366.162 152.676L366.115 152.772H365.924L365.781 152.819L365.686 152.772L365.733 152.676L365.59 152.438H365.447L365.304 152.533L365.257 152.581L365.209 152.962V153.058H365.114L365.066 152.962L364.971 152.867L364.828 152.819H364.685L364.589 152.915L364.399 153.296V153.392L364.542 153.582L364.78 153.725V153.916L364.589 154.154L364.256 154.202L364.065 154.297L363.97 154.25V154.154L364.113 154.059L364.16 153.964L364.017 153.773L363.827 153.63H363.779L363.636 153.821L363.445 153.773H363.35L363.112 153.964V154.059V154.202L363.255 154.536L363.302 154.774L363.112 155.012L363.016 155.155V155.394L362.826 155.298L362.587 155.108H362.492H362.301L362.206 155.203L362.015 155.346L361.92 155.251L361.968 155.06L362.063 154.726L362.015 154.679L361.872 154.488L361.682 154.202L361.586 154.154H361.491L361.348 154.25L361.205 154.297L360.967 154.44V154.583L361.062 154.631L361.205 154.679L361.3 154.774L361.396 155.06V155.251L361.348 155.441V155.632L361.3 156.014L361.348 156.204L361.443 156.3L361.586 156.443L361.634 156.49V156.776L361.539 156.872L361.443 157.015L361.205 157.11L361.11 157.205L361.062 157.348L361.11 157.491L360.967 157.682L360.919 157.825L360.824 157.873L360.538 157.825L360.442 157.73L360.299 157.396L360.204 157.348L359.918 157.444L359.775 157.396L359.441 157.158H359.346L359.298 157.348L359.155 157.539L359.06 157.825L358.965 158.016L359.108 158.207H359.298L359.584 158.111H359.632L359.87 158.397L359.823 158.493L359.727 158.683L359.68 158.731H359.489L359.394 158.779L359.298 158.874L359.155 159.112L359.012 159.208V159.303L358.965 159.684V159.923L358.822 160.066V160.447L358.583 160.543L358.297 160.495H358.059L358.011 160.447V160.256L357.773 160.113L357.535 160.066L357.439 160.113L357.106 160.256L356.915 160.638L356.963 160.876L356.915 161.115L356.82 161.305L356.772 161.591L356.724 161.639L356.867 161.591L357.01 161.639L357.058 161.782V161.973H357.01L357.201 162.02H357.392V162.068H357.63L357.725 162.116L357.821 162.02H357.964L358.25 161.782L358.393 161.734L358.536 161.782L358.583 161.83L358.726 161.877L358.774 161.782L358.869 161.83L358.965 162.02L359.203 162.068L359.298 161.973H359.441L359.489 161.877L359.632 161.925V162.02L359.87 162.116L360.013 162.163L360.061 162.02L360.299 162.116L360.347 162.211L360.395 162.354H360.585L360.728 162.545L361.014 162.688L361.11 162.783L361.3 162.879L361.348 162.974L361.443 163.069H361.634L361.682 163.117L361.825 163.355L361.92 163.451L361.872 163.594L361.92 163.689V163.832L361.968 164.07L362.206 164.356L362.254 164.547L362.349 164.595L362.397 164.738L362.54 164.976L362.683 165.119L362.778 165.358L362.873 165.405L362.969 165.548L363.207 165.739L363.398 165.93H363.493L363.541 166.025L363.588 166.073L363.636 166.12L363.779 166.216L364.303 166.454L364.542 166.549L365.018 166.597L365.161 166.549L365.4 166.406L365.495 166.263L365.543 166.025L365.638 165.787V165.501V165.167L365.686 165.072L365.876 164.976L366.067 164.833L366.258 164.785L366.448 164.595L366.496 164.452L366.687 164.213L366.782 164.023V163.927L366.687 163.832L366.639 163.594L366.591 163.403L366.496 163.117L366.353 162.879L366.305 162.592L366.067 162.259V162.116L366.115 162.02L366.305 161.782H366.448L366.639 161.83L366.877 161.925L367.068 162.116L367.354 162.211L367.64 162.163L367.735 162.259L367.831 162.402L367.926 162.783L367.878 162.974L367.926 163.117L367.974 163.26V163.641L368.021 163.832L368.117 164.023L368.26 164.261L368.45 164.356L368.832 164.833L368.975 164.881H369.165L369.356 165.024H369.547L369.69 165.215L369.976 165.358L370.071 165.453V165.548L370.262 165.739L370.5 165.882H370.643L370.834 165.93L370.929 166.025L370.691 166.168L370.595 166.263L370.452 166.311H370.262L370.166 166.502L369.785 166.74V166.788V167.026L369.88 167.169L370.023 167.217L370.119 167.074L370.214 166.692L370.262 166.645L370.452 166.788L370.405 167.264L370.548 167.598L370.834 167.884L371.12 168.218V168.313L371.692 169.934L371.12 170.506L370.786 170.459L370.452 170.649L370.214 170.888L370.166 170.935L369.976 170.983L369.833 170.888H369.69L369.642 171.031L369.785 171.221L369.976 171.126L370.071 171.078L370.214 171.126L370.309 171.221L370.595 171.603L370.691 171.984L370.834 172.175L371.263 172.366L371.453 172.413L371.549 172.27L371.501 171.889L371.549 171.793L371.835 171.603H371.978L372.311 171.698L372.407 171.603L372.359 171.221L372.454 171.174L372.55 171.317H372.788L372.979 171.507L373.074 171.698H373.122V171.46L373.408 171.317H373.503L373.598 171.221H373.646L373.694 171.317L373.98 171.364L374.027 171.221L374.075 171.126H374.17L374.266 171.078L374.361 170.935L374.409 170.745L374.552 170.506L374.742 170.459L374.695 170.649L374.742 170.84L374.933 170.983L375.124 170.888H375.219L375.505 171.078L375.6 171.221L375.791 171.269L375.934 171.364L376.077 171.555L376.363 171.841L376.554 171.555L376.601 171.746L376.744 171.793L376.84 171.984V172.127L376.935 172.318L377.173 172.509L377.269 172.556L377.412 172.413L377.459 172.175L377.507 172.127L377.602 172.08L377.841 172.175H377.936L378.079 172.223L378.222 172.27L378.556 172.223H378.603L378.651 172.366L378.699 172.556V172.699L378.603 172.795V172.89L378.746 173.081H378.794L378.985 172.985L379.128 172.938L379.557 173.081V173.319L379.7 173.367L379.747 173.462L379.604 173.605H379.271L379.032 173.653L378.842 173.796H378.699L378.508 173.939V173.986L378.651 174.129L378.699 174.272L378.842 174.32L378.985 174.272L379.271 174.225L379.652 174.32L379.747 174.416L379.89 174.463L380.081 174.416L380.176 174.368L380.319 174.129L380.415 174.177L380.796 174.463L381.225 174.368L381.368 174.129L381.463 174.177L381.559 174.225V174.368L381.702 174.416L381.797 174.511L382.131 174.654L382.369 174.892L382.56 175.131H382.75L382.798 175.178L382.75 175.226L382.846 175.321L382.989 175.417L383.179 175.369H383.322L383.561 175.131H383.751L383.799 175.226L383.704 175.321V175.464L383.751 175.56L383.99 175.512H384.133L384.276 175.321L384.419 175.226L384.466 175.274L384.514 175.369L384.657 175.512L384.8 175.56L384.895 175.703L385.134 175.75L385.229 175.798L385.134 175.941L385.229 176.036V176.227L385.324 176.418H385.467L385.61 176.37L385.706 176.513L385.849 176.561L385.944 176.656L386.087 176.704L386.135 176.799L386.087 176.895L386.135 177.276L386.182 177.371L386.278 177.324L386.516 177.276L386.754 177.324L386.993 177.228L387.04 177.085L387.088 176.99L387.183 177.038L387.326 177.181H387.517L387.755 177.038L387.851 177.133L388.041 177.181L388.184 177.276L388.28 177.228V177.133L388.423 177.085L388.613 177.038L388.804 176.99H388.899L389.09 177.133H389.281L389.424 176.99L389.567 176.942L389.853 176.895L390.043 176.799L390.091 176.608L390.329 176.561L390.52 176.418L390.806 176.37L390.997 176.465L391.235 176.418L391.378 176.179L391.569 176.036L391.616 175.846V175.703L391.807 175.56L391.902 175.464L392.141 175.369L392.284 175.464L392.379 175.512V175.703L392.57 175.846H392.713H392.951L393.094 175.75L393.189 175.56L393.237 175.512L393.428 175.607L393.523 175.56L393.761 175.321L393.904 175.274L394.095 175.321L394.286 175.274L394.333 175.321L394.572 175.512H394.667L394.905 175.321L395.001 175.226L395.144 175.035L395.239 174.892L395.334 174.845L395.43 174.94L395.763 174.845L396.049 174.797H396.145L396.288 174.749L396.431 174.654L396.478 174.606H396.764L397.05 174.559L397.336 174.511L397.479 174.463L397.861 174.368L398.004 174.416L398.147 174.654L398.29 174.797L398.385 174.94L398.433 175.131L398.576 175.655L398.528 175.846L398.623 176.036L398.766 176.179H398.862L399.052 175.941L399.1 175.893L399.529 175.846L399.577 175.941L399.529 176.036L399.481 176.227L399.577 176.322H399.767L399.815 176.275L399.863 175.989L399.958 175.941H400.101L400.339 176.132L400.387 176.179L400.482 176.513L400.53 176.656L400.673 176.847L400.864 176.942H401.102L401.15 176.799L401.436 176.37H401.579L401.674 176.322V176.227L401.626 176.036L401.674 175.941H401.865L401.96 176.132L402.151 176.275L402.437 176.752L402.77 177.133L402.961 177.228H403.104L403.295 177.038L403.39 176.895L403.438 176.656L403.485 176.513L403.628 176.418H403.771L403.867 176.513L403.962 176.704L404.01 176.847L403.962 177.038L403.914 177.276L404.01 177.61L404.153 177.8L404.296 177.705L404.343 177.419L404.296 177.133L404.343 177.085L404.629 176.895H404.772L405.011 176.99L405.058 177.038L405.106 177.181L404.963 177.324L404.915 177.467L405.011 177.657L405.154 177.848L405.249 178.039L405.535 178.611L405.583 178.897L405.726 178.992L405.821 179.135H406.012L406.107 179.04H406.202L406.298 179.135L406.345 179.326L406.441 179.517L406.488 179.66L406.822 179.755L407.108 179.898L407.394 180.089L407.489 180.184L407.632 180.327L407.775 180.518L407.966 180.613L408.109 180.661L408.347 180.899L408.443 181.09L408.538 181.328L408.586 181.424H408.776L408.872 181.519V181.71L408.967 181.853L409.205 182.091L409.444 182.234L409.539 182.472L409.634 182.568L410.159 182.949L410.445 183.092L410.54 183.235V183.378L410.445 183.473L410.302 183.569L410.111 183.616L409.825 183.569L409.396 183.378H409.253H409.158L409.015 183.473L408.967 183.712L409.062 183.903H409.301L409.539 184.046L409.587 184.141L409.444 184.332L409.348 184.57L409.301 184.951V185.094L409.396 185.19L409.777 185.428L409.73 185.619L409.587 185.714H409.158L408.967 185.952L408.729 186L408.586 186.143L408.538 186.286V186.811L408.633 186.954L408.681 187.097V187.43L408.633 187.669L408.538 187.764L408.443 187.859L408.395 188.002L408.443 188.241L408.395 188.765L408.443 189.099L408.538 189.528V189.671L408.347 190.052L408.252 190.243V190.386L408.347 190.434H408.49L408.776 190.386L408.872 190.434L408.919 190.577L408.681 190.958L408.586 191.244L408.538 191.387L408.586 191.53L408.681 191.578L408.824 191.53L408.967 191.34L409.062 191.292H409.301L409.491 191.197L409.539 191.006L409.444 190.911V190.815L409.491 190.624L409.634 190.481L409.777 190.148L409.873 190.052H409.968L410.254 190.148L410.635 190.338L410.778 190.434L410.921 190.577L411.112 190.911L411.207 190.958H411.303L411.398 190.863L411.303 190.624V190.481L411.398 190.386L411.732 190.291H411.875L412.018 190.338L412.065 190.386L412.113 190.624L412.161 190.768L412.399 190.958L412.542 191.054V191.149L412.494 191.34L412.542 191.435L412.733 191.626L412.78 191.769V191.864L412.637 192.055L412.256 192.436L412.161 192.579L412.113 192.722L412.208 192.913L412.304 193.008L412.494 193.104L412.733 193.342L412.923 193.437H413.114L413.257 193.485L413.352 193.771L413.448 193.819H413.638L413.734 193.866L414.21 194.248V194.343L414.067 194.486V194.629L414.163 194.677V194.772L414.02 194.867L413.686 195.01L413.448 195.201L413.4 195.249H413.066L412.971 195.296L412.876 195.392L412.78 195.726V195.869L412.828 195.964L412.923 196.012L413.209 196.107L413.305 196.155L413.209 196.345L413.257 196.536V196.631L412.971 196.727L412.828 196.774L412.637 196.87L412.542 197.251V197.346L412.637 197.585L412.78 197.966L412.923 198.109L413.162 198.252L413.877 198.348L414.353 198.443L414.449 198.491L414.592 198.586L414.687 198.824L414.639 199.015L414.544 199.11L414.496 199.206V199.539L414.544 199.825L414.592 199.968L414.639 200.064L414.925 200.112L415.45 200.445L415.831 200.827L415.879 201.017L416.022 201.351L416.212 201.494L416.308 201.542L416.403 201.303L416.546 201.256L417.07 201.494L417.166 201.685L417.404 201.732L417.595 201.971L417.833 202.161L417.785 202.304L417.928 202.495L418.214 202.638L418.739 203.02L418.929 203.163L419.12 203.401L419.215 203.449L419.406 203.496L419.835 203.878H419.93H420.073L420.169 203.782L420.312 203.687L420.407 203.592L420.598 203.449L420.645 203.258L420.55 203.067L420.359 202.877L420.121 202.734L420.026 202.591V202.4V202.209V202.114L419.883 202.066L419.835 201.923L419.787 201.828L419.93 201.685L420.216 201.732L420.359 201.685L420.645 201.446V201.303L420.693 201.017V200.874L420.788 200.684L421.074 200.35L421.217 200.159L421.313 200.064L421.456 200.016L421.551 200.064L421.599 200.159L421.646 200.255L421.503 200.445V200.588L421.551 200.731L421.599 200.779L421.789 200.922L421.885 201.017L421.932 201.256L421.885 201.494L421.789 201.685L421.599 202.114V202.543V202.686L421.694 202.829L421.885 202.781L422.028 202.591L422.171 202.495L422.266 202.448H422.409L422.504 202.495L422.933 202.972L422.981 203.163L423.076 203.21L423.267 203.115L423.41 203.02L423.505 203.067L423.553 203.163L423.696 203.258L423.934 203.21L424.173 203.163L424.554 203.401L424.697 203.353V203.258L424.792 203.21L424.888 203.306L424.983 203.449V203.735L424.935 203.925L424.983 204.068L425.126 204.116L425.174 203.973L425.364 203.925L425.46 203.973L425.603 204.164L425.65 204.402L425.698 204.545L425.793 204.593L425.889 204.545L425.984 204.402L426.079 204.259V203.973L426.127 203.925L426.27 203.83L426.747 203.782H426.842L427.033 203.878L427.223 203.973L427.319 204.116L427.795 204.545L428.034 204.784L428.177 205.07L428.32 205.26L428.796 205.642L428.939 205.785L429.082 205.975L429.035 206.118L428.844 206.166L428.51 206.118L428.224 205.88L428.034 205.785L427.843 205.832L427.7 205.88L427.557 206.071L427.605 206.166L427.748 206.214L428.081 206.118H428.224L428.32 206.166L428.415 206.309L428.51 206.5L428.606 206.881L428.749 207.453L428.796 207.501L428.987 207.596L429.178 207.787L429.225 207.93L429.321 208.168L429.368 208.454L429.464 208.502L429.654 208.407L429.797 208.121L429.845 208.025V207.882L429.75 207.596L429.702 207.501L429.75 207.406L430.179 207.501H430.322L430.465 207.406L430.608 207.263L430.846 206.881L431.037 206.738L431.084 206.69H431.275L431.513 206.786H431.704L431.847 206.881L431.942 207.12L431.99 207.263V207.596L431.895 207.787L431.704 207.882L431.418 207.93L431.323 207.978L431.275 208.121L431.323 208.168H431.466L431.656 208.073H431.799L432.038 208.216L432.324 208.311L432.419 208.359L432.514 208.502L432.419 208.74L432.467 208.836L432.61 208.979L432.657 209.026L432.753 208.931H432.848L433.039 209.217L433.277 209.408L433.611 209.551L433.754 209.646L433.897 209.837H433.992H434.135L434.373 209.885L434.469 209.837L434.516 209.742V209.551L434.564 209.408L434.516 208.931V208.788L434.755 208.407L434.898 208.264V208.073L434.802 207.978L434.707 207.739V207.596L434.898 207.31L434.945 207.215L434.993 206.881L435.088 206.5L435.184 206.357H435.279L435.327 206.5L435.47 206.547H435.803L435.899 206.595L436.042 206.738H436.185L436.232 206.643L436.28 206.5L436.328 206.452L436.518 206.404L436.614 206.452L436.661 206.738L436.804 206.881L436.852 207.215L437.233 207.406L437.376 207.692H437.519L437.805 207.596L437.996 207.549L438.091 207.596V207.692L438.187 207.93V208.025H438.091L437.996 207.93H437.758H437.615L437.567 208.025L437.519 208.216V208.502L437.567 208.74V209.169L437.424 209.456L437.376 209.742L437.186 210.075L437.043 210.409L436.995 210.504L436.804 210.552V210.743L436.995 210.981L436.947 211.029L436.995 211.315L437.186 211.41H437.424L437.519 211.553L437.567 212.03V212.125L437.71 212.268L437.758 212.554V212.745L437.567 213.031H437.424L437.233 213.174L437.09 213.365L436.852 213.46L436.757 213.555L436.709 213.651V213.841L436.9 214.08L436.995 214.175L437.138 214.461L437.281 214.747L437.329 215.081V215.224V215.367L437.281 215.701L437.424 215.891L437.376 216.177L437.424 216.32L437.376 216.559L437.281 216.702L437.424 216.75L437.567 216.797L437.71 216.893L437.662 217.083L437.519 217.226V217.465L437.71 217.655L437.615 217.941L438.187 218.037L438.425 217.989L438.52 218.037V218.227L438.568 218.323L438.52 218.466L438.33 218.609V218.847L438.425 219.038L438.473 219.181L438.616 219.276L438.806 219.515L438.949 219.562V219.753V220.325L439.092 220.563V220.802L439.474 221.183L439.569 221.374L439.807 221.66L440.046 221.851L439.95 222.184L439.998 222.327V222.423L439.855 222.613L439.998 222.709L440.093 222.661L440.189 222.518L440.332 222.423L440.618 222.47L440.904 222.661H441.142L441.237 222.804L441.38 222.995L441.285 223.185V223.281L441.428 223.567V223.662L441.285 223.805L441.142 224.044L441.19 224.377L441.142 224.52L441.094 224.711V224.854L441.333 225.283L441.619 225.712L441.666 225.808L441.571 225.951L441.428 225.998L441.19 225.855L441.047 225.808H440.856L440.665 225.903L440.379 225.855H440.236L440.093 225.998L440.046 226.141L440.189 226.809V227.095L440.141 227.285L440.236 227.476L440.189 227.667L440.141 227.762L439.95 227.905L439.855 227.953V228.191L439.903 228.287L440.141 228.477L440.332 228.668L440.522 228.906L440.999 229.192L441.094 229.335L441.047 229.669L440.951 229.907L440.856 229.955L440.475 230.098H440.332L439.95 229.907L439.664 229.86H439.521L439.426 229.955V230.05L439.474 230.193L440.046 230.527L440.332 230.718L440.379 230.909L440.332 231.099L440.284 231.147L439.998 231.195L439.617 231.338L439.474 231.433L439.426 231.576V231.671L439.521 231.814V231.91L439.378 232.243L439.235 232.386L439.14 232.577L439.092 232.625L438.949 232.672L438.711 232.625L438.52 232.577L438.425 232.625L438.377 232.863L438.139 233.197V233.292V233.721L438.091 234.055L438.139 234.198L438.33 234.484L438.52 234.722L438.663 235.056V235.39L438.616 235.533L438.425 235.771L438.377 235.914V236.248L438.33 236.391L438.282 236.439L438.139 236.486L437.996 236.343L437.901 236.296H437.472L437.329 236.2L437.233 236.105L437.186 235.962L437.138 235.533L436.995 235.438L436.9 235.485L436.757 235.628L436.566 235.819L436.423 236.057L436.328 236.248V236.391L436.471 236.725L436.709 236.963L437.281 237.392L437.662 238.06L437.948 239.299L438.091 239.49L438.949 240.253L439.426 240.586L439.617 240.777L439.76 240.872L439.903 240.92L440.093 240.825L440.427 240.539L440.57 240.443V240.348L440.522 240.11V239.824L440.618 239.585L440.856 239.394L441.237 239.347H441.38L441.428 239.442V239.537L441.285 239.728L441.142 239.967L441.047 240.396V240.968V241.206L440.904 241.444V241.587L440.951 241.969L440.904 242.303L440.951 242.493L441.047 242.684L441.237 242.827L441.476 242.875L441.809 242.827L441.905 242.875L442 243.018L441.952 243.304L441.714 243.59L441.428 244.019L441.333 244.162L441.19 244.209L440.522 244.352L440.332 244.4L440.189 244.543L440.141 244.734L440.093 244.877L440.189 245.449L440.379 245.735L440.427 245.926V246.021L440.379 246.164L440.236 246.259L439.855 246.307L439.664 246.402L439.474 246.545L439.426 246.688V247.165V247.261L439.235 247.356L439.14 247.451L438.997 247.785L438.854 248.071L438.711 248.214L438.52 248.309H438.33H437.853L437.805 248.262L437.853 248.119L438.091 247.928L438.282 247.69L438.377 247.451V247.165V247.07H438.091L437.948 246.927L437.805 246.832L437.853 246.688L437.901 246.498L437.948 246.45L438.139 246.498L438.33 246.45L438.473 246.116L438.711 245.687V245.497L438.663 245.449L438.473 245.544L438.091 245.497L437.805 245.544L437.615 245.687L437.376 245.878L437.138 246.021L437.043 246.164L436.995 246.212L436.423 246.259L436.137 246.402L435.994 246.545L435.946 246.784L435.708 247.07L435.565 247.165H435.47L435.374 247.118L435.279 246.879L435.041 246.688H434.898H434.755L434.564 246.879L434.469 247.07V247.213L434.516 247.356L434.469 247.594V247.785L434.516 247.928L434.564 247.976H434.802H434.945L435.231 248.214L435.327 248.309V248.548L435.374 248.786V248.881L435.279 249.072L435.231 249.168V249.263L435.327 249.406L435.374 249.549V249.74L435.279 249.93L435.184 249.978H434.85H434.659L434.516 250.121L433.992 250.931V251.122V251.36L434.04 251.456L434.135 251.599L434.516 251.79L434.802 251.98L434.898 252.171L434.945 252.314L434.993 252.505L434.945 252.6L434.802 252.648L434.659 252.791L434.564 253.029L434.612 253.22L434.659 253.41L434.85 253.553L434.898 253.649L434.802 254.364L434.85 254.602L434.898 254.793L434.707 255.651L434.612 255.842L434.469 256.08L434.421 256.223L434.278 256.366L434.183 256.509L434.04 257.081L433.992 257.415L433.801 257.796L433.706 257.844H433.325L433.134 257.892L432.991 258.035L432.896 258.273V258.512L433.039 258.559L433.086 258.655L433.039 258.798L432.562 259.322L432.371 259.513L432.228 259.56H432.038L431.942 259.513L431.895 259.322V259.036V258.845L431.799 258.75L431.656 258.655L431.323 258.75L430.989 258.988L430.703 259.322L430.274 259.656L429.607 260.037L429.273 260.371L429.178 260.657L428.892 260.848V260.943L428.939 261.134L429.035 261.372V261.515L428.987 261.658L429.035 261.801L429.13 261.944L429.368 262.087V262.182V262.611L429.416 262.85L429.607 263.088L429.702 263.184L429.75 263.374L429.702 263.613L429.607 263.756L429.225 264.042L429.178 264.232L429.13 264.804L429.178 265.043L429.225 265.138L429.464 265.281L429.607 265.52L429.797 265.806L429.893 266.187L429.94 266.473L429.893 266.711L429.702 267.093L429.511 267.379L429.321 267.522L428.939 267.808L428.844 267.903L428.796 268.046L428.844 268.142L428.939 268.285L429.035 268.332L429.464 268.475L429.654 268.571L429.94 268.761L430.369 269.095L430.465 269.19L430.512 269.333L430.465 269.619L430.226 269.905L430.322 270.525L430.56 270.811L430.655 271.002L430.846 271.05L430.941 271.193L431.037 271.288L431.084 271.479L431.037 271.717L430.941 271.812L430.608 271.955L430.226 272.051L429.893 272.003L429.797 271.908L429.654 271.669L429.511 271.574L429.368 271.479H429.13L428.892 271.526L428.653 271.622L428.558 271.717L428.463 271.86L428.415 272.241V272.432L428.32 272.528L428.177 272.623L427.938 272.718H427.795L427.366 272.384L427.271 272.337H427.128L427.033 272.432L426.508 272.575L426.318 272.718L426.175 272.909L425.984 273.433V273.576L426.079 273.767L426.175 273.91L426.508 274.148L426.604 274.339V274.864L426.699 275.531L426.842 276.151L426.651 276.198L426.556 276.294L426.508 276.437L426.365 276.484L426.461 276.866L426.699 277.247L426.794 277.438L427.08 277.772L427.128 278.01V278.153L427.033 278.201L426.413 278.487L426.318 278.63L426.27 278.773V278.963L426.365 279.392V279.631L426.318 279.726V279.965L426.365 280.06L426.699 280.346L427.033 280.632L427.319 280.823L427.462 280.87L428.224 281.013L428.51 281.109L428.653 281.252L428.51 281.538V281.728L428.463 281.872L428.224 282.158L428.177 282.301L428.224 282.396L428.415 282.587L428.463 282.777L428.367 283.206V283.492L428.463 283.731L428.653 284.16L428.749 284.303V284.78L428.653 285.161L428.558 285.352L428.51 285.828L428.606 286.21L428.796 286.496L428.844 286.687V287.259V287.497L428.749 287.592L428.463 287.688L427.986 287.831L427.938 288.021L428.177 288.403L428.272 288.689L428.51 288.927L428.749 289.166L428.701 289.261L428.081 289.452L427.795 289.642L427.557 290.119V290.262L427.652 290.405L427.748 290.5H427.891L428.177 290.405L428.415 290.453L428.51 290.548L428.844 291.072L429.035 291.692L429.082 292.646L429.511 293.122V293.265L429.368 293.456L428.844 294.41L428.701 294.553L427.938 294.648L427.795 294.839L427.748 295.077L427.843 295.22L428.034 295.363L428.32 295.649L428.796 296.221L428.844 296.46V296.603L428.653 296.793L428.606 296.841V297.079L428.844 297.651L428.892 297.937L428.844 298.033L428.51 297.937L428.367 298.224V298.653L428.51 298.986L428.844 299.463L429.178 299.797L429.225 300.083V300.273L428.987 300.655L428.892 300.893L429.035 301.275L429.178 301.608L429.225 301.656L428.987 301.894L428.606 302.323L428.653 302.562L428.32 302.991L428.224 303.325L428.177 303.563L428.224 303.849L428.51 304.278L428.892 304.564L429.654 304.898L429.988 305.041L430.131 305.184V305.375L429.845 305.565L428.939 306.233L428.415 306.948L428.224 307.615L428.272 308.283L428.32 308.473L428.844 308.95L429.178 309.093L430.036 309.474L430.131 309.617L430.56 309.951L430.655 310.094L430.798 310.428H430.703H429.273H428.987H428.653L428.177 310.476L427.7 310.523L427.366 310.476L427.08 310.523H426.937L426.699 310.571L426.461 310.666L426.27 310.714L426.222 310.809V310.857L426.127 310.905V310.905L426.032 310.857L425.793 310.952L425.603 310.905H425.46L425.174 310.952L425.031 310.905L424.888 310.857L424.745 311V310.905L424.649 310.714L424.506 310.619L424.22 310.428L423.934 310.333L423.172 310.237L422.647 310.19L422.171 310.094H421.742L421.599 310.047L420.836 309.951L420.359 309.904L419.835 309.856V309.904L418.977 309.808H418.691L418.357 309.761H418.071H417.595L417.499 309.808L417.166 309.951V309.999L417.261 310.094L417.07 310.19H416.975L417.023 310.142V310.094V310.094L417.118 310.047V309.951H417.023L417.07 309.856L417.213 309.808L417.356 309.761L417.404 309.665L417.309 309.617L417.261 309.427L417.166 309.284L417.023 309.188L416.784 309.045L416.117 308.855L415.926 308.807L415.45 308.759L414.973 308.664L414.735 308.569H414.496L413.924 308.473L413.734 308.426L413.4 308.33L413.257 308.378L413.162 308.33V308.283H413.257L413.162 308.14L413.352 307.901L413.305 307.758L413.162 307.615L412.971 307.52L412.876 307.472L412.733 307.329L412.494 307.234L412.208 307.138H412.065L412.113 307.091L411.875 306.852L411.493 306.709L410.778 306.519L410.254 306.471H410.206L410.159 306.423L410.206 306.328V306.233L410.254 306.185L410.445 306.09L410.54 306.042L410.683 305.947L410.778 305.851V305.708L410.874 305.661V305.518L410.826 305.279L410.683 304.993L410.445 304.612L410.159 304.23L409.825 303.944L409.634 303.801L409.587 303.754L409.205 303.515L409.015 303.372L408.586 303.182L408.109 302.991L407.489 302.752L407.013 302.609L406.25 302.323L404.772 301.847L404.391 301.751L403.819 301.561L403.628 301.513V301.465L403.533 301.37H403.295L403.104 301.275L402.866 301.227H402.675L402.627 301.179L402.437 301.132L402.484 301.036L402.532 300.989L402.437 300.798L402.246 300.607L401.865 300.273L401.626 300.13L401.102 299.987L400.768 299.844L400.339 299.749L399.577 299.558L398.957 299.415L398.576 299.272L398.242 299.225L397.67 299.034L396.955 298.891L395.859 298.748L394.858 298.557L394.667 298.51L394.619 298.462V298.319L394.429 298.462H394.238L393.618 298.319L392.903 298.081L392.665 298.033L391.998 297.89L391.521 297.794L390.425 297.556L390.043 297.461L389.662 297.413L389.424 297.365L388.804 297.27L388.327 297.222L387.946 297.127H387.565L387.183 297.079L386.707 297.032H386.564L385.61 296.936L385.372 296.889H384.991L384.943 296.841L384.8 296.746L384.609 296.698L384.085 296.65L383.704 296.555L383.513 296.507L383.227 296.46H383.084V296.364L382.846 296.269L382.274 296.126L382.226 296.078L381.654 295.983L381.273 295.888H380.987L380.701 295.697V295.554L380.605 295.506L380.51 295.363L380.176 295.172L380.081 295.077L380.033 294.982L379.89 294.791V294.696L379.652 294.6L379.271 294.457L378.889 294.314L378.365 294.076L378.079 293.981L377.984 293.79L378.031 293.695L377.984 293.599V293.504L377.936 293.408L377.793 293.361L377.841 293.313L377.793 293.218L377.65 293.122L377.507 292.979L377.03 292.741L376.935 292.598L376.792 292.455L376.649 292.407L376.363 292.169H376.268L376.125 292.026L376.029 291.931L375.314 291.692L375.171 291.597L374.742 291.549L374.695 291.454L374.456 291.311L374.17 291.216L373.98 291.168L373.694 291.12L373.312 290.977H373.217L372.264 290.739L371.882 290.643L371.501 290.596L371.024 290.5L370.977 290.453L370.881 290.405H370.691L370.452 290.31L370.357 290.357H370.166L370.071 290.31V290.167L369.547 289.881L369.356 289.785L368.927 289.69L368.736 289.642L368.546 289.595V289.499H368.45L368.498 289.404L368.403 289.261L367.926 289.118L367.878 289.213L367.783 289.023L367.688 288.975L367.259 288.832L367.116 288.784V288.736L367.163 288.641L367.116 288.403L367.02 288.26L366.877 288.212L366.639 288.117L366.544 288.069L366.401 287.878L366.21 287.783H366.067L365.876 287.688L365.781 287.402L365.686 287.163L365.638 287.02L365.59 286.925L365.4 286.687L365.257 286.591L364.875 286.401L364.732 286.257L364.446 286.067L364.208 285.924L363.731 285.733L363.636 285.638L363.255 285.447L363.159 285.304L363.207 285.256L363.112 285.209L362.969 284.97L362.683 284.875L362.444 284.78L361.682 284.398L361.348 284.208L361.205 284.16L360.919 283.921L360.776 283.826L360.156 283.588L360.013 283.54L359.68 283.397L359.537 283.254L359.346 283.206L358.822 283.111V283.016L358.726 282.92L358.44 282.73L358.107 282.587H358.011L357.63 282.444H357.344L357.106 282.301L356.915 282.253L356.82 282.158L356.581 281.919L356.343 281.728L355.914 281.538L355.628 281.442L355.437 281.347H355.151H355.008L354.865 281.395L354.675 281.204L354.436 281.061L354.103 281.013L353.817 280.918L353.388 280.775L353.197 280.727L352.768 280.632L352.053 280.346H351.958L351.91 280.203L351.815 280.108L351.576 280.012H351.338L350.718 279.869L350.385 279.822L349.527 279.631L349.288 279.583L349.098 279.536H348.859L348.812 279.44L348.669 279.202L348.335 279.106L348.192 279.059L348.335 279.011H348.383L348.478 278.963L348.526 278.82V278.677L348.383 278.439L348.287 278.391V278.248L348.192 278.105L348.001 277.962L347.858 277.867L347.429 277.772L347.096 277.676L346.571 277.581V277.486L346.428 277.533L346.19 277.486L345.856 277.39L345.475 277.295L345.141 277.2L344.855 277.056L344.76 277.009L344.474 276.866L344.331 276.818L343.568 276.437H343.473L343.568 276.294V276.103L343.473 275.96L343.425 275.865L343.187 275.722L342.996 275.483L342.806 275.388L342.663 275.34V275.293L342.615 275.102V275.007L342.52 274.864L342.424 274.721L342.329 274.673V274.625L342.091 274.53V274.482L341.9 274.434L340.804 273.91L340.661 273.862L340.518 273.719L340.327 273.672L340.279 273.576L339.946 273.433L339.707 273.338L339.66 273.195L339.707 273.1H339.803L339.898 273.004V272.861L339.85 272.671L339.755 272.575L339.707 272.48L339.564 272.241L339.135 271.955L338.706 271.717L338.754 271.622L338.563 271.431L338.134 271.193L337.801 271.002L337.467 270.811L337.324 270.764L336.943 270.621L336.466 270.478L336.275 270.382L335.894 270.239L335.56 270.096L335.036 269.905L334.845 269.81L334.75 269.715L334.702 269.762L334.559 269.715L333.892 269.476L333.558 269.381L333.082 269.238L332.414 269L331.461 268.714L331.127 268.618L330.46 268.428L329.697 268.189L329.221 268.094L328.887 267.999H328.696L328.553 267.951L328.506 267.856H328.267V267.808L327.266 267.617L326.694 267.522H326.599V267.379L326.504 267.331L326.17 267.236V267.093L326.313 267.045L326.408 266.997L326.361 266.807L326.313 266.759L326.408 266.616H326.456V266.711L326.551 266.616L326.599 266.425V266.33L326.551 266.092L326.504 265.901V265.853L326.361 265.663L325.884 265.329L325.264 264.995L324.74 264.709L324.359 264.518L323.596 264.232L322.929 263.899L322.5 263.708L322.309 263.613L321.165 263.279V263.184L320.974 263.088L320.831 262.993V262.945L320.593 262.85L320.545 262.754L320.688 262.707L320.784 262.516L320.736 262.421L320.879 262.278L320.784 262.087L320.641 261.944L320.402 261.753L320.069 261.61L319.211 261.372L319.163 261.324L318.877 261.229L318.782 261.134L318.591 261.086L318.162 260.943L318.067 260.895L318.019 260.848L317.733 260.752L317.638 260.657L317.399 260.609L317.352 260.466L317.209 260.275L317.066 260.18L316.923 260.085L316.827 259.989L316.16 259.656L316.017 259.608L315.826 259.465L315.397 259.274L315.254 259.036V258.893H315.302L315.207 258.75H315.159L315.064 258.607L314.873 258.464L314.539 258.273L314.11 258.13L313.872 258.082L313.586 257.939L313.205 257.844L313.062 257.749L312.919 257.701L312.823 257.653L312.442 257.463L311.965 257.32L311.822 257.272L311.441 257.129L311.393 257.081L311.298 256.891L311.155 256.795L310.964 256.7L310.011 256.366L309.677 256.223L308.962 255.937L308.724 255.746L308.581 255.699L308.676 255.556H308.772V255.651L308.915 255.699L309.058 255.651L309.153 255.603L309.344 255.365L309.391 255.413L309.439 255.365L309.487 255.222L309.63 254.984V254.888L309.582 254.602L309.534 254.364L309.391 254.126L309.153 253.887L308.772 253.506L308.39 253.267L308.2 253.172L307.914 253.077L307.628 252.886L307.103 252.695L306.388 252.362L305.912 252.171L305.673 252.028L305.34 251.933L305.244 251.837V251.694H305.197L305.054 251.504L304.482 251.313L304.339 251.122L304.148 251.074L304.005 250.931L303.91 250.741L303.767 250.645L303.624 250.55L303.29 250.455L303.147 250.264V250.169L303.242 250.216L303.385 250.073L303.433 249.93L303.385 249.787L303.242 249.549L303.147 249.454L303.004 249.358L302.718 249.215L302.48 249.168L302.432 249.12L302.098 249.024L301.86 248.881L301.812 248.738L301.622 248.595L301.24 248.405L301.145 248.357V248.214L300.907 248.023L300.382 247.642L299.81 247.213L299.429 246.975L299.191 246.832L299.048 246.593L298.905 246.498L298.666 246.259L298.619 246.069H298.666L298.523 245.878L298.476 245.735L298.142 245.449L297.999 245.354H297.951L297.332 244.925L297.236 244.829L297.093 244.686L297.236 244.591L297.284 244.496L297.236 244.4L297.189 244.257L296.998 244.066L296.664 243.876L296.617 243.828L296.521 243.733L296.378 243.542L296.474 243.447V243.351L296.331 243.161L296.14 243.018L295.854 242.827L295.759 242.732L295.568 242.589L295.33 242.303H295.425V242.112L295.377 241.969L295.282 241.826L295.377 241.683V241.492L295.234 241.254L295.282 241.158L295.33 241.015V240.777L295.139 240.396L294.758 239.967L294.567 239.728L294.519 239.585L294.281 239.394L293.947 239.204L293.614 238.965L293.375 238.775L292.994 238.489L292.708 238.155L292.374 237.917L291.993 237.726L291.659 237.535L291.612 237.488L291.183 237.249L290.801 237.058L290.515 236.915L290.134 236.772L289.848 236.629L289.133 236.439L288.752 236.343L288.561 236.248L288.323 236.2L288.18 236.153L288.132 236.105L288.18 236.01H288.227L288.323 235.819L288.418 235.771V235.581V235.39H288.561L288.799 235.342L288.895 235.104L288.942 234.913L288.847 234.532V234.389L288.895 234.103L288.847 234.007L288.752 233.817L288.466 233.483L288.227 233.245L288.037 233.054L287.655 232.816L287.369 232.672L286.035 231.91L285.653 231.671L285.463 231.528L285.129 231.29L284.843 231.099L284.462 230.861L284.176 230.67L283.89 230.48L283.842 230.384L283.794 230.289L283.699 230.193L283.461 230.146L283.318 229.907L283.127 229.812L282.889 229.669L282.698 229.621L282.65 229.526L282.364 229.288L282.126 229.097V229.049L282.031 228.906L281.554 228.62L281.22 228.477L281.03 228.334V228.287L280.934 228.191L280.744 228.096L280.553 228L280.219 227.81L279.695 227.619L279.361 227.381V227.238L279.266 227.142L279.123 226.999L279.028 226.904L279.123 226.856V226.761L278.885 226.57L278.742 226.475L278.551 226.38L278.122 226.189L277.836 226.046L277.693 225.903L277.502 225.712L277.216 225.569L277.121 225.474V225.426L277.073 225.378L276.549 225.045L276.263 224.902L276.215 224.854L276.025 224.711L275.548 224.473L275.453 224.377L275.357 224.282L275.262 224.187V224.091L275.167 223.996V223.853L274.976 223.758L274.928 223.662L274.69 223.472L274.547 223.233L274.499 223.138L274.166 222.947V222.899L274.023 222.661L273.975 222.613L273.927 222.518L273.546 222.28L273.451 222.184L273.26 221.946L273.117 221.851L272.974 221.66L272.831 221.517L272.736 221.279L272.402 220.992L272.164 220.849L272.068 220.754L271.925 220.659L271.878 220.563L271.639 220.325L271.592 220.23L271.258 219.944L271.306 219.896V219.801L271.21 219.705L271.067 219.467L270.972 219.324V219.276L270.829 219.133L270.781 219.038L270.829 218.99L270.734 218.847L270.352 218.561L270.257 218.513L270.162 218.37L270.019 218.227L269.971 218.132L269.78 217.989L269.494 217.703L269.399 217.512L269.304 217.417L269.065 217.226V217.179L268.827 217.036L268.493 216.893L268.303 216.797L267.683 216.559L267.206 216.368L266.968 216.273L267.016 216.177L266.92 216.082L266.825 215.891L266.444 215.701L266.301 215.558L265.919 215.319L265.776 215.176L265.49 214.89L265.3 214.652L265.204 214.557L265.014 214.318L264.775 214.128L264.632 214.08L264.537 214.032L264.156 213.555L263.917 213.412L263.584 213.079L263.536 212.936L263.393 212.84L263.345 212.745L263.298 212.697L263.202 212.554L263.107 212.459V212.364L262.869 212.125L262.583 211.935L262.44 211.792L262.249 211.744L262.011 211.553L261.868 211.41L261.486 211.219L261.296 211.076L261.153 210.886L260.914 210.695L260.39 210.409L260.104 210.266L259.913 210.123L259.675 210.028L259.58 209.885L259.627 209.837V209.646L259.58 209.551L259.437 209.312L259.341 209.169L259.103 208.931V208.931L258.912 208.74L258.865 208.645L258.817 208.454L258.674 208.311L258.007 207.787L257.673 207.549L256.815 206.976H256.577L256.195 206.786V206.738L256.577 206.976L256.863 206.929L256.91 206.881L256.815 206.69H256.672L256.529 206.595V206.5L256.195 206.214L256.148 206.261L256.195 206.5L256.148 206.547L256.1 206.357L256.148 206.214L256.052 206.118L256.005 205.975L256.1 205.88L256.291 205.737L256.386 205.642L256.434 205.26V204.974L256.386 204.879L256.481 204.784L256.434 204.354L256.291 204.068L256.195 203.973L255.957 203.592L255.623 203.353V203.258L255.528 203.163V202.972L255.433 202.734L255.385 202.543L255.29 202.448H255.337L255.385 202.543H255.433L255.48 202.591L255.576 202.495L255.433 202.304L255.385 202.161L255.433 202.114H255.528L255.623 202.066L255.814 201.875L256.1 201.351L255.957 201.113L255.48 201.351L255.242 201.589L255.147 201.828L255.004 201.875H254.861L254.908 202.114L254.861 202.304L255.051 202.448L255.147 202.638L255.385 202.877L255.29 202.972V202.877L255.147 202.686L254.956 202.495L254.67 202.257L254.336 202.066L253.764 201.732L253.478 201.542L253.145 201.399L252.573 201.017V200.97L252.382 200.874V200.779L252.334 200.731L252.001 200.588L251.858 200.445L251.333 200.159L250.952 200.016L250.714 199.873L250.523 199.682L250.38 199.635L250.285 199.539L250.142 199.444L250.046 199.349L249.951 199.206V199.063L249.903 198.967L249.713 198.872L249.522 198.824L249.284 198.729L248.95 198.586L248.426 198.395L248.14 198.3L247.901 198.252L247.52 198.109L247.234 198.014L247.139 197.919L246.71 197.776L246.567 197.632L246.424 197.442L246.328 197.251V197.203L246.185 196.965L246.042 196.822L245.899 196.584V196.393L245.804 196.202L245.756 196.059L245.518 195.63L245.613 195.535V195.44L245.47 195.249L245.28 195.01L245.137 194.772L245.089 194.534L244.994 194.391L244.755 194.2L244.66 194.057L244.517 193.962L244.04 193.533L243.468 193.104L243.135 192.913L241.895 192.293L241.371 192.055L240.465 191.626L239.941 191.387L239.512 191.197L238.463 190.768L237.367 190.386L236.938 190.243L235.889 189.814L235.27 189.623V189.433L235.127 189.29L234.888 189.147L234.793 189.004L234.316 188.813L234.269 188.765L234.316 188.67L234.269 188.432L234.459 188.288L234.412 188.098L234.173 187.812L233.935 187.621L233.887 187.526H233.983L233.887 187.287L233.601 187.192L233.172 186.906L232.791 186.715L232.41 186.572L232.171 186.477L231.075 186.096L230.741 185.952L229.502 185.523L228.93 185.285L228.596 185.19L227.834 184.904L227.5 184.808L227.119 184.713L226.499 184.522L226.165 184.379L225.736 184.236L225.26 184.093L225.117 184.046L224.402 183.855L223.639 183.616L223.401 183.521L223.067 183.426L221.971 183.14L221.303 182.949L220.874 182.854L220.302 182.663L219.683 182.472L218.348 182.091L217.585 181.853L216.68 181.614L216.251 181.567L215.822 181.471L215.631 181.424L215.107 181.328L214.916 181.233L214.344 181.09L214.249 181.042L213.724 180.947L213.438 180.899L213.391 180.851L212.866 180.661H212.676L212.58 180.613L212.342 180.565H212.199L211.865 180.375L211.818 180.279V180.232L211.675 180.089L211.436 179.898L211.293 179.66V179.564L211.246 179.421L211.15 179.135L210.864 178.944L210.626 178.801L209.863 178.515L208.672 178.134L208.243 178.039L207.623 177.848L207.385 177.705L207.337 177.61L207.194 177.514L207.003 177.324L206.765 177.133L206.622 176.99L205.955 176.704L205.669 176.561L205.24 176.418L205.049 176.227L204.858 176.084L204.715 175.846V175.703L204.334 175.512L203.81 175.226L203.619 175.083L203.571 175.035L203.619 174.797L203.667 174.463L203.762 174.368H203.81L204.048 174.416L204.143 174.272L204.191 174.129L204.239 173.891L204.334 173.796H204.477L204.429 173.843H204.382V173.939L204.525 173.796L204.62 173.843L204.858 173.796V173.605L204.668 173.367L204.477 173.176L204.525 173.367L204.429 173.462L204.334 173.7L204.382 173.414V173.319L204.334 173.176L204.191 172.938L204 172.699L203.953 172.556V172.556V172.604L204 172.652H204.239L204.382 172.795L204.334 172.842L204.239 172.89L204.382 173.081L204.572 173.176L204.668 173.367L204.763 173.462H204.906L205.144 172.938L205.24 172.699V172.461V172.27L205.287 172.223V172.127L205.144 171.936L205.097 171.984H205.049L204.096 172.413H204.048L205.287 171.841V171.507V171.412L205.144 171.078L205.097 170.935L204.906 170.697V170.602L204.858 170.506L204.906 170.411L204.858 170.316L204.715 170.268V170.077L204.525 169.696L204.477 169.6L204.143 169.219V169.124L204 168.981V168.79V168.695L203.953 168.504L203.571 168.027L203.476 167.884L203.095 167.598L202.999 167.503L202.38 167.026L202.189 166.835L202.141 166.74L201.76 166.216L201.569 165.834L201.331 165.596L201.093 165.31L200.711 164.976L200.425 164.738L199.949 164.356L199.424 164.023L199.091 163.784L198.757 163.546L198.09 163.117L197.804 162.926L197.279 162.64L197.232 162.545L197.184 162.449L196.946 162.259L196.707 162.116L196.183 161.83L195.992 161.639L195.802 161.544L194.944 161.019L194.705 160.924L194.276 160.686L194.038 160.495V160.352L193.847 160.256L193.752 160.161L193.18 159.875L193.037 159.827L192.274 159.351L191.702 159.112L191.321 158.874L191.035 158.731V158.731L190.94 158.636L190.558 158.445L189.653 158.016L188.795 157.682L187.937 157.348L187.746 157.301V157.11L187.603 157.015L187.508 156.967L187.365 156.872L187.126 156.729L186.459 156.49L186.316 156.395L185.839 156.204L185.458 156.014L184.886 155.775L184.743 155.68L184.076 155.394L183.361 155.06L182.836 154.822L182.503 154.679L182.074 154.488L181.406 154.202L180.787 153.964L180.548 153.868L179.976 153.63L179.547 153.439L178.594 153.01L178.165 152.867L177.545 152.533L176.64 152.152L175.829 151.771L175.448 151.628L174.352 151.151L173.541 150.769L172.111 150.15L171.587 149.911L170.3 149.387L169.394 149.006L168.155 148.529L167.535 148.338L166.63 147.957L166.582 147.861L166.344 147.766L166.105 147.671L165.962 147.48L165.915 147.432L165.724 147.289L165.676 147.146L165.486 147.003L165.581 146.908L165.533 146.717L165.39 146.574L165.247 146.288L165.104 146.145L164.818 145.907L164.771 145.811L164.675 145.716V145.621L164.485 145.43V145.287L164.342 145.049L164.437 144.953L164.485 144.81L164.628 144.715L164.771 144.477L164.866 144.381L165.009 144.238L165.295 143.857L165.533 143.714L165.581 143.571L165.533 143.189V142.951L165.629 142.856H165.724L165.676 142.903V143.094V143.237V143.475L165.724 143.618L165.962 143.475L165.867 143.189L165.915 142.999L165.772 142.617V142.427L165.819 142.236L165.629 141.521L165.2 140.567L165.009 140.234L164.58 139.566L164.294 139.042L164.151 138.756L163.96 138.47L163.579 137.802L163.388 137.612L163.198 137.421L162.721 137.04L162.387 136.801L161.815 136.467L161.625 136.324L160.767 135.848L159.766 135.323L159.67 135.228L159.527 135.133V134.99V134.942L159.384 134.751L159.432 134.656L159.384 134.513L159.337 134.465L159.289 134.37L158.955 134.036L158.717 133.75L158.336 133.464L158.097 133.321L157.764 133.13L157.096 132.797L156 132.224Z" fill="#095845"/>
</svg>
