<svg width="598" height="330" viewBox="0 0 598 330" fill="none" xmlns="http://www.w3.org/2000/svg">
<rect width="598" height="330" fill="white"/>
<path fill-rule="evenodd" clip-rule="evenodd" d="M110.299 257.966L110.4 257.814L110.35 257.006L110.552 256.754L110.35 256.602L110.4 256.299L110.804 255.39L111.056 255.642L110.955 255.996L110.754 256.349L110.703 256.501L110.955 256.451L111.157 256.198L111.208 255.895L111.309 255.693L111.107 254.834L111.157 254.582L111.359 254.329L111.612 254.279L111.763 253.824L111.511 253.521L111.309 254.026L111.157 254.178L110.804 254.279L110.501 254.127L110.552 253.673L110.703 253.219L110.653 252.916L110.854 252.461L111.006 251.855L111.208 251.653L111.056 251.148L111.359 250.592L111.511 250.491V250.138L111.813 249.936V249.481L112.116 248.674L112.066 248.371L112.167 247.966L112.015 247.815L111.914 247.411L112.015 247.259L111.763 246.856L111.864 246.401L111.712 246.047H111.965L112.015 245.644L112.217 245.29H112.369V244.936L112.57 244.836V244.634L112.772 244.381L112.873 244.078L113.075 243.926L113.277 244.078L113.428 243.926V243.775L113.883 243.522L114.034 243.169L114.236 243.119L114.337 243.27L114.387 243.522L114.69 243.674L114.791 243.876L114.993 243.826L115.043 243.624L114.69 243.219L114.842 242.967H115.043L115.548 242.512L115.649 242.26L116.002 241.906L116.154 242.058L116.053 242.563L116.305 242.765L116.356 243.017L116.507 243.119L116.406 242.714L116.255 242.512L116.558 242.209L116.507 242.512L116.81 243.219H117.012L117.163 243.371L117.264 243.119L117.163 242.916L117.415 242.714H117.819L118.173 242.512V242.058L118.324 241.906L118.273 241.401L118.526 241.351L118.677 241.099L119.333 240.694L119.485 240.139L119.636 239.937L119.888 240.038V240.24L119.788 240.492L119.939 241.048L119.535 241.25L119.636 241.604L119.989 241.755L120.191 242.007L120.141 242.462L120.343 242.361L120.595 242.311L121.049 242.007L121.1 241.704L121.352 241.301L121.504 241.351L121.857 241.654L122.16 241.704L122.866 241.301L122.917 240.997L123.018 241.099V241.654L122.715 242.159L122.563 242.614L122.967 242.361L123.27 241.957L123.371 242.109L123.068 242.512L123.421 242.614L123.573 242.816L123.926 242.563L124.33 242.714L124.431 242.462L124.178 242.058L124.582 241.906L124.683 241.604L124.33 241.452L124.431 241.301L124.33 240.997L124.582 240.846V240.644L124.986 240.391L125.087 240.189L124.986 240.089L125.339 239.786L125.743 239.179L126.046 238.876L126.45 238.624H126.651L127.005 239.129L127.055 239.533L127.207 239.886H127.408V240.038L127.661 239.987L127.711 239.684L127.863 239.533L127.61 238.876L127.812 238.523L128.165 238.271L128.216 237.967L128.62 238.271V238.422L129.023 238.674L129.124 238.422L128.721 238.169V237.866L128.62 237.614L128.367 237.462V237.21L128.165 237.059L128.014 236.654L128.266 236.099L128.67 235.594L128.822 235.544L129.478 236.402L129.528 236.049L129.326 235.746L129.276 235.493L129.124 235.19L128.67 235.039L128.822 234.736L128.67 234.382L128.872 234.18H129.377L129.528 234.029V233.826L129.377 233.473L129.427 232.917L129.528 232.614L129.831 232.514L130.083 232.564L130.184 233.17H130.336L130.487 232.514L130.739 232.412L130.79 232.211H130.083L130.033 231.857L130.437 231.655L130.538 231.099L130.487 230.847L130.689 230.645L131.093 230.594L131.143 230.342L131.093 229.938L131.345 229.786V229.382H131.597L131.799 229.181V228.877L131.9 228.372L132.254 228.271L131.799 228.019L131.698 227.716L131.85 227.514L132.052 227.464L132.254 227.564L132.354 227.211L132.859 227.059L132.354 226.656L132.102 226.959L131.799 226.857V226.605L132.203 226.504V226.352L131.9 226.251L131.799 225.797L132.405 225.544L132.153 225.494L131.547 225.141L131.799 225.039L132.102 225.141H132.506L132.809 225.039L132.91 224.888L133.313 225.241L133.717 224.888L133.869 224.282L134.222 224.686L134.575 224.837L134.676 224.939L135.332 225.241L135.484 225.847L135.585 226.049L136.342 226.807L136.745 227.413L136.947 227.564L137.099 227.514V227.867L137.452 227.969L137.3 228.322L137.048 228.625L137.149 228.928L136.998 228.979L136.947 229.281L136.695 229.786L136.998 230.089L136.897 230.291V230.948L136.543 231.301L136.442 231.554L136.039 231.706L136.089 232.009L135.988 232.109L135.786 231.857L135.585 232.059V232.614L135.534 232.917L135.736 233.069L135.534 233.271L135.786 233.574L135.635 233.877L135.988 234.382L135.837 234.483L135.938 234.786L135.837 235.089L136.039 235.291L136.493 235.341L136.695 235.846L136.897 236.149L137.25 236.402L137.351 236.049L137.452 236.099L137.603 235.897V235.695L137.957 235.796L138.058 235.947L137.856 236.301L137.906 236.554H137.755L137.654 236.856L137.755 237.059H138.158V236.957L138.562 237.109V237.361L138.764 237.664L138.411 237.866L138.31 237.967L137.906 238.069L137.856 238.271L138.158 238.523L138.058 238.674L138.209 238.776L137.856 239.482V239.634L137.603 239.886H137.401L136.998 240.139L136.897 240.442L136.241 241.149L136.19 241.401L135.736 242.007L135.484 242.109L135.13 242.361L135.231 242.563L135.13 242.916L134.878 243.119V243.371L135.13 243.573L135.181 243.876L135.383 243.724L135.534 243.826V244.078L135.786 244.482L136.089 244.431L136.543 244.987L136.897 244.583L136.846 244.129L136.745 243.977L136.846 243.674L137.149 243.169L137.603 242.765V242.512L137.805 242.361L138.209 242.209L138.461 241.906L138.209 241.704L138.31 241.25V240.947L138.461 240.644L138.613 240.189L138.714 240.24L138.815 240.594L139.067 240.24V239.987L139.218 239.886L139.42 239.937L139.673 239.786L139.622 239.584L139.218 239.533L139.117 239.381L139.168 239.179L139.37 239.129V238.876L139.521 238.472L139.874 238.371L139.925 238.271L140.379 238.574L140.631 238.624L141.035 238.977L141.338 239.028L141.691 238.624L141.792 237.967L141.742 237.462L141.944 237.109L141.641 236.856L141.59 236.705L141.742 236.301L141.893 236.251L141.843 235.998L141.944 235.746L142.146 235.695L142.246 235.442L142.095 234.937L141.893 234.786L141.944 234.685L141.742 234.534L141.641 234.281L141.439 234.231V234.129L142.045 233.675L142.095 233.473L142.347 233.321L142.448 232.867L142.347 232.766L142.398 232.463L141.893 232.665L141.641 232.564L141.59 232.665L141.086 232.564L140.934 232.816L140.026 232.514L139.622 232.311L139.874 232.16L139.723 231.857L139.925 231.806L140.329 232.16L140.732 232.362H140.985L141.237 231.958L141.54 231.756L141.742 231.907L141.792 232.412L142.146 232.514L142.246 232.362L142.499 232.311L142.65 232.412L143.104 232.261L143.054 231.706L143.306 231.504L143.609 231.402L144.114 230.948L144.316 230.847L144.719 231.099L144.77 231.301H144.972L145.022 231.554L144.871 231.706L144.417 231.958L144.568 232.059L145.123 232.009L145.073 232.261L145.426 232.211L145.577 232.059L145.83 232.16L146.335 231.857L146.183 231.453L146.385 231.301L146.234 231.099L146.335 230.948L146.082 230.443L145.729 230.342L145.83 230.14L145.678 229.736L145.779 229.584L146.284 229.433L146.486 229.534L146.789 229.231L146.486 229.079L146.637 228.676L146.839 228.625V228.474L146.587 228.221V227.918L146.486 227.766L146.082 227.867L145.981 227.766L146.082 227.362L146.335 227.059L146.688 226.756L146.839 226.454L147.344 226.403L147.899 226.959H148.252L148.707 226.756L148.808 226.504L148.555 226.151L148.656 225.847L149.211 225.746L149.514 225.595L149.766 225.191H150.322L150.725 225.949L150.271 226.403L149.817 226.454L149.312 226.959L149.262 227.161L148.707 227.362L148.505 227.666L148.555 227.918L149.009 227.867L149.262 228.171L149.211 228.322L149.665 228.423L149.817 228.12L150.019 227.969L150.221 228.171L149.968 228.221L150.069 228.474L149.817 228.574L149.716 228.827L149.766 228.979L149.464 229.079V229.332L149.211 229.433L149.009 229.332L148.959 228.979L148.707 229.281L148.303 229.13L148.202 229.181L148 229.635L148.101 229.837L148.353 229.938L148.707 230.291L148.606 230.594L148.303 230.645L148 230.443V230.191L147.748 230.14L147.849 230.392L147.596 230.443L147.546 230.544L147.95 230.696L147.899 230.847H147.647L147.596 230.999L147.394 231.049L147.596 231.301V231.504L148.252 231.049L148.454 231.099L148.303 231.251L148.404 231.504L148.202 231.604L148.151 231.806L148.454 231.756L148.555 231.907L147.95 232.412L148.303 232.564V232.311L148.505 232.109L148.656 232.16L148.858 232.514L149.06 232.463V232.766L149.413 232.412H149.615L149.716 232.16L149.514 232.009L149.262 232.211L148.908 232.16L148.959 231.806L149.11 231.706L149.161 231.201L149.363 230.999L149.514 231.15H149.918V231.049L149.716 230.746L149.766 230.594L150.17 230.645L150.221 230.443L150.019 230.191L150.069 229.736L150.271 229.635L150.322 229.433L150.776 229.281L150.624 229.029H151.028L150.877 228.877L150.826 228.574L150.978 228.524V228.322L151.381 228.12L151.583 228.221L151.684 228.474L151.987 228.221L151.634 227.867L150.826 227.918L150.574 227.867L150.927 227.464L151.482 227.261L151.432 226.959L151.836 226.403L152.391 225.898L152.34 225.292L152.795 225.141L153.148 225.393L153.249 225.696L153.501 225.847L153.905 225.898L154.107 225.646H154.359V225.292L154.107 224.837L153.854 224.585L153.905 224.434L154.208 224.383V224.787L154.41 224.939L154.813 224.837L155.116 225.09L155.167 225.292L155.318 225.393L155.369 225.141L155.217 224.736L155.318 224.636L155.52 224.131L155.873 223.626L155.823 223.474L155.621 223.424L155.52 223.676L155.318 223.626L155.268 223.373H154.813L155.066 223.121L155.318 223.171L155.217 222.919L155.318 222.666L154.864 222.969L154.813 222.767L154.561 222.716V222.161L154.712 222.111L154.763 221.909L154.561 221.706L154.864 221.656L154.763 221.454L154.864 221.353L154.965 220.797L155.318 220.848L155.369 220.696H155.57L155.823 220.444L156.025 220.545L156.277 220.848V220.444L155.823 220.04H156.176L156.378 220.191L156.63 220.091L156.731 219.787L156.428 219.889V219.384L156.58 218.929H156.782L156.63 219.232H157.034L157.135 219.333L157.185 219.787L157.337 220.04L157.539 219.333L157.69 219.131L157.942 219.03L157.993 219.282L158.296 219.333L158.649 218.879L158.447 218.727L158.75 218.323L158.649 218.576L159.002 218.626L158.952 218.929L159.255 219.181L159.002 219.384L159.103 219.686L158.75 219.586L158.901 219.838L158.952 220.141L158.851 220.848L159.204 220.696V220.242L159.608 219.989L159.709 219.787L160.062 219.586L160.264 219.434L160.012 218.979L160.264 219.081L160.415 218.727L160.264 218.626L160.466 218.525L160.516 218.272H160.92L161.122 218.474L161.273 218.323L161.526 218.474V218.626L161.879 218.525L161.778 218.879L161.93 219.03L161.677 219.232L161.879 219.333L162.031 219.586L162.182 219.636L162.081 219.282H162.283L162.485 219.686L162.687 219.737L162.434 219.181L163.09 219.586L163.141 219.737L163.393 219.636L163.04 218.879L162.636 218.777V218.525L162.989 218.424L162.838 218.071L162.989 217.919H163.393V217.616L163.746 217.869L163.646 217.515H163.847L163.444 217.364L163.191 217.111L163.141 216.859L163.393 216.606L163.242 216.454L162.989 216.909L162.737 217.061L162.788 217.364L162.687 217.818H162.485L162.586 218.02L162.434 218.323L162.131 218.222V217.919L161.829 218.071L161.627 218.02L161.173 217.616L160.92 217.717L160.567 217.666L160.466 217.464L160.113 217.515L160.062 217.364L159.961 217.666L159.759 217.869L159.558 217.515L159.759 217.262H159.255L159.305 216.757L159.911 217.061L160.415 217.111L160.668 217.313L160.567 216.757L160.365 216.656L160.466 216.505L160.113 216.556L160.012 216.252H159.658L159.507 216.101L159.457 215.747H159.709L159.608 215.546L159.658 215.192L159.759 214.99L160.062 215.091L159.911 214.737L160.264 214.839L160.315 214.485H160.062L160.163 214.232L159.911 214.031L160.062 213.626L160.365 213.778L160.466 213.526V213.324H160.87L161.273 213.222L161.475 213.475L161.425 212.97H161.173L161.223 212.667L161.021 212.97H160.769L160.819 212.667L161.223 212.263L160.92 212.314L160.87 212.011L160.718 211.657L161.072 211.809L161.324 212.061L161.526 211.859L161.324 211.758L161.273 211.506L161.072 211.455L161.273 211.304L161.425 211.455L161.829 211.253L161.627 211.051L161.273 211.001V210.748L161.425 210.647L161.273 210.192L161.223 209.738L161.728 209.435L161.93 209.081L162.081 209.384L162.485 209.637L162.687 210.041H162.939V210.243L163.545 210.496L163.444 210.394L163.898 210.243L163.999 210.445L164.201 210.091L164.604 210.647V210.849L164.756 210.899L164.806 210.748L165.16 210.697L165.008 210.496L164.705 210.091L164.857 209.991L164.756 209.839L164.504 209.889L164.453 209.435H164.251L164.352 209.132H164.655L164.453 208.829L164.705 208.627L164.554 208.374V207.92H164.403L164.251 207.566L164.15 207.718L164.352 208.122L164.201 208.425L163.999 208.324L163.948 208.576L163.797 208.627L163.646 208.324L163.292 208.172L162.788 208.274L162.838 208.476L162.636 208.627V208.021L162.434 207.466L162.586 207.314L162.283 207.112L162.232 206.759L161.778 206.556L162.031 206.152L161.778 205.496L162.283 205.395H162.535L162.485 205.546L162.535 205.951L162.788 206.051L163.09 205.951L163.242 206.051H163.746V205.647L163.948 205.496L163.746 205.092L163.999 204.941L163.847 204.486L164.15 204.536L164.251 204.839L164.705 204.587L165.008 204.688L165.21 204.637L164.958 203.779L164.604 203.173L163.948 202.516L164.403 202.617L164.554 202.819L165.059 202.719L164.857 203.274L165.008 203.577H165.311L165.513 203.426L165.664 204.031L165.917 204.183L166.018 204.536L166.27 204.385L166.068 203.224L166.32 203.173L166.472 203.526L166.522 203.88L166.371 204.234L166.674 204.132L166.825 203.678L166.977 203.526V203.224L167.279 203.324V203.072L167.633 202.971L167.38 202.466L167.279 202.416L167.077 202.011L167.481 202.112L167.835 202.011L167.986 202.112L168.238 202.062L168.39 202.264L168.642 202.314L168.541 202.617L168.642 202.87L168.793 202.819L168.642 203.274L168.995 203.224L169.096 203.375L168.945 203.678L169.349 203.627L169.298 203.173L169.399 202.516L169.55 202.466L169.248 201.658L169.298 201.052L169.197 200.85L169.248 200.699L169.45 201.052L169.399 201.355L169.702 201.102L169.954 200.749L170.156 200.85L170.005 200.547L170.106 200.446L170.358 200.85L170.308 201.102H170.005L169.904 201.506L169.702 201.658L169.752 201.86L169.904 201.709L170.055 201.86L170.106 201.658L170.308 201.709L170.257 201.961L170.56 201.86L170.711 201.355L171.014 201.304L171.266 201.355L171.216 201.557L171.418 201.658L171.569 201.456L172.023 201.658L171.923 202.112L172.326 201.809L172.932 202.416L173.184 202.314V202.466L172.932 202.516L172.982 202.819L172.73 203.274L172.881 203.375L172.932 203.173L173.386 203.224L173.285 203.577L173.437 203.779L173.739 203.577L174.042 203.627V203.981H174.244L174.496 204.234L174.396 204.587L174.547 204.789L174.749 204.839V205.041L175.001 205.244L174.951 205.597L175.455 205.496L175.556 205.749L175.809 205.951L175.859 206.203L175.809 206.456V206.708L175.657 206.961L175.758 207.112H176.011L176.162 206.91L176.364 206.456L176.212 205.849L176.011 204.739L175.809 204.486L175.607 204.082L175.304 204.031V203.627L174.85 203.526L175.001 203.274L175.052 203.021L174.648 203.072L174.396 202.668V201.759L174.093 201.658V201.052L173.891 200.951L173.79 201.102H173.336L173.083 200.901L172.982 200.699L173.083 200.496L173.336 200.749L173.538 200.699L173.184 200.294L173.235 200.042L173.033 200.143L172.932 199.941L173.083 199.689L172.73 199.638L172.68 199.436L172.478 199.689L172.276 199.436L172.175 199.032L171.973 198.931L171.771 198.376L171.872 198.174L171.418 198.022L171.468 197.719H171.115L171.065 197.921L170.711 198.072L170.61 197.971L170.812 197.618L171.065 197.466L171.115 197.164L171.014 196.81H171.216L171.065 196.456L171.266 196.305L171.115 196.154L171.266 196.002L171.468 196.103L171.721 196.002L171.569 195.598L170.964 195.346L170.762 195.042L171.014 194.689H170.661L170.509 194.639L170.61 194.436L170.257 194.184L170.509 194.083V193.881L170.661 193.679L170.762 193.729V194.083L171.065 194.336L171.367 194.134L171.317 193.78L171.519 193.578L171.569 193.174L171.418 193.022L171.519 192.77L171.872 193.326L172.023 193.729H172.124L172.478 193.275L172.326 193.174V192.972L172.579 192.568L172.478 192.063L172.326 192.012V191.709H172.68L172.781 191.811L173.083 191.659L172.932 191.558L173.083 191.204L172.982 191.002L173.083 190.75L173.235 190.548L173.386 190.952L173.639 190.901V190.396L173.689 190.194L173.941 190.144L174.042 190.75L174.295 191.507L174.244 191.911L174.396 192.265L174.345 192.871L174.093 192.821L173.84 193.022L173.891 193.174L174.244 193.073L174.396 193.376L174.143 193.629L174.396 193.881L174.295 194.487L174.496 194.436L174.547 194.841L174.496 195.144L174.648 195.244L174.85 196.002L174.9 196.456L174.799 196.861L174.951 196.961L174.85 197.366L174.698 197.669L174.496 197.618V197.769L174.093 197.921L174.244 198.072L174.093 198.274L173.739 198.527L173.84 198.729L174.446 198.376L174.295 198.679L174.597 199.082L175.001 198.931L174.85 199.234L174.951 199.386L174.799 199.537H175.052L175.001 199.789L175.254 199.891L175.607 199.537L175.405 199.436L175.657 199.284L175.758 198.577L175.354 198.476L175.153 198.274L175.254 198.174L175.607 198.274L175.708 198.174L175.506 198.022L175.708 197.971V197.769L176.011 197.921L176.061 197.567L176.465 197.466L176.818 197.567L176.919 197.769L176.869 198.072L177.121 198.022L177.222 198.174L177.373 197.971L177.272 197.567L177.373 197.214L177.07 197.164L176.919 196.911L176.414 197.012L176.515 196.659L176.364 196.507L175.96 196.861L175.556 196.659L175.607 196.204L175.455 195.8L175.556 195.396L175.455 194.588H175.254L175.203 194.134L175.405 193.477L175.354 193.174L175.405 192.719L175.556 192.871L175.506 192.316L175.607 191.962L175.809 191.811L175.607 191.609L175.455 191.255V190.801L175.607 190.346L175.556 189.992L175.657 189.791L175.859 190.245V190.801L176.011 190.851L176.212 190.649L176.313 190.396L176.566 190.144L176.465 189.992L176.566 189.689L176.717 189.589L176.768 189.134L177.171 189.084L177.323 189.286L177.222 189.487L177.323 189.639L177.676 189.589L177.626 189.286L177.827 189.235L177.928 189.487L178.13 189.437L178.181 189.235L178.383 189.336V189.134L178.736 189.033L179.039 189.184L179.14 189.084L179.089 188.831L179.14 188.679L179.493 188.781L179.392 188.932L179.897 189.589L180.502 189.942L180.401 189.74L180.553 189.689L180.906 189.74L180.957 189.589L181.108 189.841L181.31 189.791L181.461 189.841L181.259 190.043L181.31 190.346L181.512 190.599L181.31 190.851L181.411 191.356L181.613 191.255L181.714 191.558L182.168 191.507L182.269 191.609L182.319 191.962L182.521 192.164L182.773 192.063L182.874 192.164L183.026 192.063L183.329 192.265L183.228 192.467L183.278 192.619L182.975 192.719L183.177 192.871L183.127 193.124L183.278 193.326L183.026 193.376L183.177 193.931L183.48 193.881L183.43 194.134L183.278 194.234L183.329 194.436L183.631 194.386L183.682 193.729L183.581 193.527L183.732 193.376V193.124L183.833 192.972L183.581 192.821L183.631 192.517L183.884 192.265L184.086 192.366L184.136 192.265L183.985 192.012L183.631 191.911L183.783 191.609L183.48 191.709L183.732 191.457H183.985L184.288 191.609V191.76L184.641 191.962L185.095 192.114L185.246 192.316H185.499L185.246 192.012L184.843 191.558L184.59 191.053H184.288L184.136 190.952L184.187 190.599L183.783 190.447L183.531 190.75L183.278 190.599V190.296L183.127 190.144L183.177 189.992H183.379L183.329 189.74H183.127L183.177 189.589L182.773 189.386L182.874 189.235L182.723 189.134L182.925 189.033L183.329 189.386L183.278 189.033L183.127 188.932L183.329 188.629L183.026 188.679L182.874 188.376V188.276L182.622 188.225L182.572 187.972L182.37 187.922L182.117 187.972L182.067 187.771L182.319 187.821L182.521 187.569L182.622 187.266L182.42 187.164L182.067 187.215L181.865 186.861H182.016L182.218 186.609L182.067 186.306L182.269 186.154L182.521 186.559L182.723 186.356L183.026 186.407V186.659L183.228 186.761L183.278 186.962L183.026 187.316L183.43 187.619L183.732 187.215L183.48 187.164L183.682 187.013L183.531 186.861L183.682 186.659L183.833 186.861H184.237L184.389 187.013L184.54 186.861L184.489 186.508L184.641 186.559L184.742 186.356L184.944 186.457L184.893 186.104L185.347 186.256L185.448 186.356L185.751 186.306L185.852 186.154L185.65 185.952L184.994 185.549L184.792 185.346L184.187 185.246L183.985 185.144L184.439 184.993L184.489 184.841L183.934 184.639L183.581 184.437L183.329 184.539L183.127 184.437L183.682 184.185V184.336L184.136 184.589L184.439 184.539L184.691 184.841L184.59 184.942L184.893 185.144L185.146 185.094L185.246 184.942L185.549 185.044L185.347 185.094L185.398 185.346L185.549 185.498L185.802 185.447L186.256 185.7L186.559 185.498H186.862L186.962 185.397L186.862 185.195L186.66 185.296L186.306 185.246L186.004 185.044L186.71 185.144L186.559 184.69H187.114L187.063 184.387L186.66 184.336L186.962 183.932L186.71 183.831L186.407 184.084H186.155L186.104 183.831L186.306 183.579L186.054 183.326L185.549 183.427L185.398 183.226L185.953 183.124L186.205 183.175L186.508 183.024L186.559 183.427L186.862 183.226V183.024L186.962 183.226L187.215 183.276L187.366 182.973L187.619 183.124L187.568 183.529L187.719 183.781L188.073 183.932L188.224 183.68L188.325 183.781L188.376 184.084L188.527 184.134V184.488H188.376L187.972 184.892H187.568L187.921 185.246L188.174 185.447V185.549L187.669 185.447L187.82 185.902L188.073 185.801L188.123 186.104L188.628 186.205L188.729 186.407L188.376 186.609L188.073 186.457L187.972 186.609L188.224 186.811L188.123 187.064H188.376L188.678 187.316L188.83 187.266L188.981 187.518L189.133 187.266V186.508L189.738 186.71L189.789 186.861H190.092L190.546 187.215L190.344 187.467L190.445 187.619L190.647 187.72L191.151 187.316H191.353L191 186.811L190.647 186.609L190.546 186.407L190.243 186.356L189.991 186.104L189.637 186.154L189.536 186.054L188.931 185.751V185.7L189.587 185.599H189.789L189.94 185.498L189.435 185.346L189.032 185.144L189.234 184.892L189.133 184.841L189.335 184.639L189.284 184.488L189.637 184.336L189.688 184.034L189.234 183.629L189.335 183.529L189.234 183.326L189.587 183.175L189.486 183.024L189.637 182.821H189.991L190.142 183.024V183.226H190.394L190.495 183.024L190.596 183.175L190.798 182.721L190.697 182.367H190.394L190.293 182.468L189.89 182.165H189.133L189.183 182.417L188.83 182.468L188.477 182.064L188.729 181.963L188.83 181.711L188.678 181.407L188.88 181.306V181.559L189.082 181.609L189.234 181.458L189.536 181.711L189.789 181.509H190.192L190.394 181.761L190.849 181.609L191 181.862L191.151 181.811L191.252 181.559L191.454 181.761L191.555 181.559L191.808 181.66V181.963L192.009 181.862V181.609H192.514L192.615 181.811L192.817 181.256H192.615V181.004H192.514L192.413 181.256H192.262L191.858 181.155L191.908 180.701L191.656 180.953H191.353L191.404 180.801L191.252 180.701L191.101 181.004L190.697 180.902L190.596 180.599H190.293L190.243 180.902L190.041 180.852L189.991 180.65L189.688 180.448L189.435 180.499L189.133 180.094L189.385 180.044L189.284 179.892L189.587 179.842L189.839 180.196H190.092L190.293 179.994L190.445 180.044L190.596 179.741L190.546 179.489L190.192 179.539L190.344 179.186L190.041 179.286L189.839 179.186L190.041 178.731H190.546V178.529L190.142 178.63L189.839 178.327L189.789 178.781L189.435 179.084L189.133 178.781L189.082 178.933L188.628 179.084L188.779 179.337L188.376 179.438L188.174 179.791L188.022 179.741L188.174 179.589V179.387L188.325 179.034L188.224 178.882L188.376 178.731L188.224 178.529L187.871 178.63L187.669 178.529L187.619 178.327L187.82 178.276L187.719 178.176L187.972 177.974L188.325 178.125L188.224 177.822L188.073 177.671L188.275 177.519L188.123 177.317L188.224 177.115L188.678 177.064L188.628 176.862L188.275 176.761L188.426 176.509L188.779 176.61V176.459L188.931 176.307H188.729L188.376 175.903H188.073L187.921 176.004V176.256L187.719 176.459H187.467L187.669 176.661V176.913L187.417 176.761L187.265 176.913H186.912V176.761L187.164 176.509L187.063 175.954L186.912 176.004L186.962 176.307L186.508 176.761V176.559L186.66 176.459L186.407 175.499L186.508 175.196L186.407 174.59H186.71L187.215 174.186L187.366 173.832H187.619L187.669 173.984L187.972 174.034V173.731L188.174 173.479H187.921L187.77 173.277L187.619 173.327L187.366 173.126H187.215V172.772L187.063 172.621L186.962 172.772L186.862 173.176L186.761 173.277L186.609 172.974L186.66 172.822L186.458 172.772L186.306 173.024L186.407 173.378L186.205 173.631L185.852 173.075H185.65V173.226L185.448 173.327L185.701 173.529L185.6 173.731L185.246 173.782L185.045 173.984H184.742L184.944 173.782L184.893 173.529L185.095 173.479L184.893 173.378L185.095 173.075L184.742 173.176L184.893 172.772L184.742 172.57H184.59L184.54 172.772L184.389 172.671L184.338 172.822L183.934 172.519V172.216L184.187 172.166L184.237 172.014L183.934 171.964L184.136 171.711L183.934 171.611L183.732 171.156L184.086 171.206L184.338 170.904L183.985 170.701L184.237 170.601L183.783 170.499H183.631L183.732 170.146L183.934 170.096V169.742L183.531 169.439L183.783 169.287L183.732 169.035L183.531 168.884V169.035L183.177 169.086L183.026 168.681L183.581 168.429L183.329 168.328L183.177 168.379L183.127 168.176L182.874 168.076L183.379 167.974L183.329 167.823L183.581 167.671H183.783L183.732 167.419L183.531 167.369L183.884 167.015L184.035 167.166L183.985 166.762L183.531 166.611L183.48 166.762L182.874 166.813V166.409L183.278 166.308L182.874 166.156L182.622 166.005L182.673 165.752L183.127 165.399H183.228L183.379 164.894L183.228 164.793L183.076 164.995L182.773 165.096L182.572 164.591L182.622 164.187L182.723 163.884L183.177 163.682L183.026 163.429H182.925L183.228 163.026L183.026 162.773L182.925 162.47H182.521L182.572 162.874L182.269 163.48H181.966L181.865 163.783L181.966 164.036L181.714 164.339L181.512 164.389L181.31 164.742L181.209 165.146L181.36 165.5L180.957 165.449L180.603 165.651L180.553 165.803L180.351 166.005L180.401 165.702L180.553 165.5L180.452 165.298L180.2 165.601L179.947 165.803L179.796 165.651L179.594 165.752L179.442 165.349L179.241 165.247L179.291 164.944L179.493 164.793V164.541L179.241 164.49L179.291 164.086H178.988L178.938 164.591L178.534 164.541L178.433 164.641L178.231 164.389L177.878 164.49L177.272 163.985L177.525 163.732L177.827 163.783L177.727 163.581L177.827 163.379L177.474 162.975L177.575 162.722L177.827 162.419L177.575 161.965L177.373 161.763L177.121 161.965L177.02 161.864L176.869 161.258L176.667 161.207L176.313 161.511V161.864L176.061 161.611L176.313 161.46L176.263 161.258L176.414 161.157L176.515 160.904L176.717 160.804V160.551L176.515 160.349V159.945L176.263 159.289H176.061L175.859 159.591L175.758 159.289L175.304 159.137L175.102 159.289L175.001 159.036H174.749L174.799 158.834L175.556 158.733L175.708 158.329L175.254 158.228V158.026H174.9L175.001 157.723L174.799 157.622L174.698 157.774L174.345 157.925L174.042 157.672L173.992 157.42L174.496 156.966L174.547 156.713V156.359L174.749 156.461L175.052 156.309L175.153 156.157H175.405L175.91 156.612L176.162 156.461L175.809 155.804L176.313 155.905L176.566 155.602L176.465 155.299L176.717 155.147L176.768 155.451L177.02 154.996L176.515 154.441L177.07 154.339L177.323 153.986L177.171 153.531L177.323 153.178L176.818 152.875L176.969 152.521L176.667 152.269L176.212 152.572L176.364 151.865L176.717 151.764L176.969 150.804L176.465 150.401L176.667 149.896L177.171 149.542L178.383 149.744L178.786 149.592L178.484 148.886L177.928 148.633L177.626 147.471V146.613L177.323 146.057L177.424 145.906V145.552L177.07 144.896L176.818 145.149L176.515 144.795L176.919 144.542L176.818 143.684L177.222 143.583L177.373 143.027L177.171 142.876L176.969 143.078L177.07 142.472L176.919 142.118L176.717 141.967L176.414 142.118L176.566 142.623L176.364 143.128H176.011L175.556 143.381L175.304 143.128L175.052 143.027L174.799 142.826L174.749 142.371L175.001 142.522L175.304 142.321L175.203 142.169L175.254 141.917L175.052 141.866L175.304 141.563L175.254 141.412L175.001 141.311L174.85 141.412L174.749 141.108V140.704L175.001 140.806L175.102 140.654H175.506L175.203 140.149L175.556 140.098L175.354 139.846V139.644L175.607 139.593L175.354 139.24L175.102 139.392L174.799 139.341L174.9 139.24L175.001 138.684L174.749 138.432L174.345 138.382L174.143 138.684L173.992 138.735L173.79 138.634L173.739 138.179L173.891 137.977L173.992 137.472L173.941 137.22L173.588 136.867L173.891 136.715L174.244 136.867L174.396 137.119H174.698L174.951 136.867L175.254 137.119L175.304 137.321L175.556 137.472L175.354 137.776L176.061 137.372L176.212 137.068L176.616 136.715L177.373 136.664L177.121 136.261L176.616 136.311L176.263 136.21L176.212 136.008H176.011L175.96 136.159L176.011 136.513L175.758 136.462L175.506 136.563L175.354 136.159L175.052 136.109L174.9 135.806L174.547 135.705L174.396 135.756L174.547 135.352L174.799 135.2V134.998L175.001 134.947L174.951 134.644L174.749 134.342L174.396 134.493L174.295 134.594L173.891 134.392L174.295 134.291L174.496 133.988L174.951 134.241L175.254 134.089L175.506 133.837L175.556 133.634L175.708 133.584L175.809 133.382L175.607 133.18L175.354 133.483L175.102 133.432L174.85 133.231L175.304 132.927L175.052 132.624L175.405 132.17L175.758 132.422H175.91L175.96 132.17L175.708 131.716L175.758 131.564L175.607 131.412L175.102 131.463L174.85 131.059L174.698 131.008L174.547 131.211L174.093 131.261L173.891 131.008L174.093 130.857L174.143 130.604L174.446 130.503L174.648 130.907L174.799 130.807L175.102 130.756L175.354 130.807L175.556 130.554L175.506 130.302L175.052 130.402L174.597 129.998L174.396 130.099L174.244 129.797L174.143 129.746L173.941 129.948L173.891 129.797L173.437 129.544L173.184 129.696L173.033 129.998L172.781 129.696H172.528L172.377 129.493L171.923 129.342L171.872 129.191L171.67 129.089L171.468 129.191L171.519 128.938L171.67 128.686L172.023 128.736L172.427 128.686L172.377 128.282L172.528 128.181L172.427 127.625L172.579 127.473L172.932 127.423L173.235 127.12V126.867H173.739L173.79 126.666L173.487 126.413L173.184 126.161L173.033 125.807L172.629 125.403L172.276 125.201L171.721 124.646L171.317 124.292L171.166 123.989H170.863L170.711 123.888L170.408 123.938L169.853 123.888L169.702 123.938L169.651 122.524L169.702 122.07L169.651 121.161V121.161L169.601 120.807L169.651 120.05L169.45 118.939L170.661 118.232L171.569 117.424L172.528 115.757L172.881 114.798L173.235 113.536L173.639 112.323L173.84 112.172L174.446 111.818L175.809 111.061L178.029 109.748L178.635 108.738L178.786 108.486L180.755 107.324L181.31 106.466L182.016 105.102L182.117 104.748L182.471 104.092L183.127 103.587L183.581 102.829V102.274L183.732 101.466L184.237 100.658L184.742 99.3955L184.944 99.143L185.196 98.4865L188.022 96.719L189.435 91.972L190.798 91.9215L195.492 91.8205L197.41 91.7195L204.374 91.5175L210.279 83.387L210.683 83.2355L211.188 82.68L211.692 81.5185L211.945 81.367L211.995 81.0135L212.197 80.7105L212.904 80.5085L213.106 80.4075H213.459L213.56 79.953L213.661 79.448L213.61 79.246L213.964 78.8925L214.115 78.6905H214.519L214.923 78.943L215.175 78.8925L215.427 78.9935L215.932 78.438L215.831 78.236L215.982 77.832L216.134 77.6805L216.386 77.1755L216.84 77.024V76.8725L216.739 76.4685L216.891 76.115L217.042 75.913L217.194 75.4585L217.345 75.3575L217.698 75.408L217.951 75.004L218.506 74.9535L218.708 74.903L219.212 74.802L219.667 74.3475H219.869L220.02 74.095L220.474 73.792L220.827 73.691L220.979 73.1355L221.282 72.8325L221.332 72.5295L221.685 72.58L221.938 72.3275L222.241 72.1255L222.442 71.873L222.796 71.57H222.998L223.2 71.873L223.401 71.8225L223.654 71.57L224.007 71.3175H224.411L225.319 71.57L225.874 71.469L226.278 71.57L226.631 71.7215L227.288 72.3275L227.994 72.378V72.0245L228.095 71.873L228.146 71.469H229.104L230.417 71.57L231.275 71.671H231.577L232.082 71.57L232.536 71.4185L233.041 71.5195L233.748 71.57L234.404 71.5195L235.413 71.6205L236.271 71.772L236.877 71.469L237.079 71.267L237.18 71.0145L237.482 71.1155L238.896 71.065L239.754 70.964H240.612L241.116 70.8125L242.58 70.762L242.832 70.661L243.286 70.2065L243.589 70.0045L244.346 68.641L244.901 68.035L244.952 67.934V67.328L245.154 67.0755L245.406 67.126L245.709 66.924H246.062L246.315 66.6715L246.617 66.5705L246.819 66.0655L247.374 65.813L247.93 65.409L248.131 65.3585L248.384 65.106L248.535 64.399L249.09 64.1465L250.15 63.8435L250.907 63.692L252.119 63.5405L252.926 63.591L253.633 63.6415L254.945 63.894L255.601 64.0455L256.358 64.3485L256.863 64.6515L257.721 65.409L258.225 65.9645L259.487 67.8835H259.689L260.85 68.136L262.919 69.045L262.969 68.54L262.717 68.035L262.616 67.53L262.818 66.9745L262.869 66.5705L262.717 66.217L262.969 65.5605L262.869 65.308V65.0555L263.121 64.803L263.474 64.399L263.676 63.995L263.928 63.793L264.181 63.389L264.383 63.2375V62.8335L264.484 62.5305L264.685 62.379L264.938 62.0255L265.039 61.672L265.493 61.47L265.897 61.4195L266.401 61.268L266.704 61.3185L266.755 60.4095L266.957 60.1065L267.007 59.6015L266.957 59.45V59.45L266.603 59.1975L266.856 58.5915L267.007 58.4905L267.31 58.238L267.562 58.137L267.714 58.238V58.238L267.815 58.339L268.269 58.9955L268.572 59.2985L268.824 59.349L269.127 59.147L269.581 59.6015L269.783 59.9045L269.934 59.854L270.338 59.9045L270.59 60.157L270.691 60.5105L270.187 61.0155L270.389 61.1165L270.288 61.5205L270.489 61.8235L270.389 62.2275V62.3285L270.893 62.7325H271.196L271.65 63.086L271.852 63.288L271.802 63.591L272.104 63.8435L272.205 64.096L272.155 64.4495L272.862 64.7525L273.366 65.4595L273.215 65.712L273.265 66.0655L273.366 66.2675L273.568 66.4695L273.82 66.9745L274.477 66.4695L275.234 66.116H277.707L277.252 66.2675L277.05 67.025L277.151 67.3785L277.05 67.5805L277.202 68.2875L277.05 68.8935L277.101 69.651L277.151 69.853L277.101 70.055L277.151 70.358L277.303 70.5095L277.252 70.7115L277.404 71.166L277.505 71.6205L277.404 71.8225L277.353 72.479L277.454 72.782V73.287L277.555 73.8425V74.5495L277.757 74.9535L278.11 75.408L278.262 75.8625L278.06 75.913L277.908 76.1655L277.959 76.4685L277.858 76.721V77.529L278.06 77.8825L278.211 78.0845L278.716 78.438L278.565 78.943L278.666 79.347L278.817 79.7005L278.867 80.054L279.221 80.8115V81.1145L279.12 81.8215L279.221 82.3265L279.725 83.1345L279.927 83.387L280.23 83.488L280.684 83.69L280.886 84.195L282.955 87.4775L284.722 87.326L286.135 85.7605L288.961 84.599L290.728 83.9425L291.232 84.0435L291.889 83.8415L292.847 83.488L293.251 83.4375L293.554 83.5385L293.604 83.1345L293.756 82.983L294.563 82.5285L295.018 82.074L295.472 82.175V82.175L295.825 81.872L296.279 81.67H296.532L296.734 81.367L296.986 80.3065L297.087 79.852L297.137 79.5995L297.44 79.347L297.592 79.044L297.945 78.7915L298.248 78.6905L298.702 78.3875L299.106 77.933L299.207 77.6805L299.459 76.9735L299.61 76.2665L300.872 75.7615L301.427 76.519L301.579 76.62L301.982 76.5695L302.538 76.721L302.992 76.9735L303.496 77.1755L303.648 77.3775L304.254 78.135L304.96 78.3875L305.465 78.5895L305.616 78.741L306.07 78.8925L306.272 78.842L306.424 78.236V77.8825L306.626 77.1755L306.424 76.822L306.323 76.519L306.272 76.115L306.373 75.61L306.171 75.1555L306.121 74.6505L305.97 74.3475L306.02 73.7415L308.089 72.4285L309.099 72.176L309.048 71.9235L309.149 71.3175L309.048 70.6105L309.2 70.257L309.502 69.954L310.966 69.045L311.723 68.9945L311.925 69.0955L312.127 69.449L312.884 69.4995L313.288 69.3985L313.742 69.55H313.994L314.448 69.045L314.852 68.8935L315.66 69.3985L316.013 69.449L316.265 69.7015L316.568 70.3075L317.224 71.0145L317.527 70.9135H317.88L318.133 70.7115L318.234 70.0045L318.284 69.7015V68.8935L318.435 68.439L318.789 68.0855L318.839 67.53L319.142 67.328L319.697 67.3785L320.353 67.0755L320.454 66.9745L320.656 66.116L321.716 65.207L322.978 65.3585L325.905 64.298L324.744 62.581L325.097 61.3185L324.542 59.652L325.148 58.8945L325.501 57.935L326.662 56.9755L326.511 56.723L326.41 55.7635L326.157 54.2485L326.056 53.188L325.854 52.3295L326.914 51.8245L327.924 51.774L328.883 51.7235L329.034 52.582L329.438 53.592L330.599 53.4405V52.3295L331.759 52.077L332.819 52.683L333.223 51.5215L333.324 51.4205L333.98 51.1175L334.283 50.9155L334.434 50.3095L334.636 50.0065L335.09 49.7035L335.444 49.2995L335.646 49.249L335.898 48.9965H336.15L336.302 48.643L336.604 48.138V48.037L337.059 47.532L337.513 47.229L337.917 47.027L338.27 46.724L338.522 46.32L338.775 45.3605L339.229 44.704L339.935 44.0475L340.036 43.3405L340.238 43.088L341.096 42.583L341.904 41.977L342.863 41.6235L343.317 41.7245L343.771 41.472L344.074 40.9165L344.023 40.6135L344.124 40.3105L344.074 40.1085L344.175 39.452L344.579 39.1995H345.083L345.386 38.9975L346.042 38.442L346.244 38.1895L346.547 37.9875V37.8865L346.446 37.4825L346.496 37.23L346.749 36.4725L346.698 36.018L347.203 35.1595L347.455 34.402L347.354 34.2L347.455 33.796L347.405 33.392L347.455 33.1395L347.354 32.887L347.657 32.281L348.011 32.079L348.061 31.877L348.212 31.675L348.313 31.3215L348.818 30.968L349.02 30.5135L349.323 30.3115L349.424 30.4125L350.08 30.2105L350.181 29.958L350.837 29.857L351.543 29.4025L351.493 29.3015L351.998 29.15L352.603 28.948L352.805 28.8975L353.108 28.6955L353.158 28.4935L353.512 28.443L353.461 28.2915L353.916 28.241L354.168 28.0895L354.572 28.14L354.773 27.9885L354.975 28.0895L355.076 28.2915H355.379L355.43 27.7865L355.329 27.3825L355.076 27.1805L354.975 27.029L355.076 26.625L354.874 26.2715L354.975 26.0695L354.874 25.716L354.673 25.4635V24.807L354.572 24.7565L354.521 24.201L354.319 23.999V23.6455L354.622 23.09L354.521 22.787L354.572 22.5345L354.471 22.2315L354.773 21.9285V21.575L355.228 21.3225L355.127 21.1205L355.531 20.9185L356.086 20.767V20.4135L356.035 20.363L356.187 20.1105L356.237 19.858L356.086 19.757L356.187 19.5045L356.288 19.555L356.54 19.353L356.389 19.2015V18.3935H356.086L356.237 17.939L356.187 17.737L356.489 17.6865L356.59 17.7875L356.742 17.636L356.489 17.2825L356.54 17.1815L356.843 17.0805L356.59 16.5755L356.944 16.929L357.095 16.8785L357.246 16.424L357.448 16.323L357.802 16.222L357.953 16.4745L357.903 16.727H358.205V16.929L358.761 17.03L358.912 17.333V17.0805L359.467 17.03L359.72 17.535H359.972L360.022 17.6865L360.325 17.7875L360.527 17.4845L360.477 17.333H360.275L360.224 17.0805L360.628 16.7775L360.83 16.323L361.032 16.5755L361.284 16.727L361.536 16.6765L361.738 16.8785V17.03H361.94L362.344 17.2825L362.445 17.434V17.131L362.798 17.232V17.3835L363.202 17.333L363.151 17.5855H363.353L363.454 17.3835L363.908 17.131L364.161 16.7775V16.6765L364.413 16.525L364.565 16.626L364.464 16.7775L364.615 16.828L364.867 16.727H365.12L365.221 16.5755L365.069 16.4745L365.12 16.2725L365.271 16.3735L365.574 16.727L365.725 16.3735L366.028 16.626L366.281 16.525L366.331 16.6765L366.583 16.4745L366.836 16.7775H367.038L367.34 16.5755L367.542 16.7775L367.996 16.5755L368.299 16.727L368.905 16.828L368.955 16.929L369.662 16.828V16.6765H369.864L369.965 16.424L369.864 16.222L369.914 15.9695L369.864 15.818H370.369L370.671 15.616L370.268 15.5655L370.57 14.909L370.873 14.8585L370.671 15.111L370.823 15.2625L371.025 15.212L370.974 14.8585H371.176L371.075 14.4545L371.327 14.303V14.1515L371.58 14.303L371.832 14.0505L372.135 14.101L372.085 14.3535L372.236 14.505L372.387 14.4545L372.337 14.202H372.539L372.488 14.3535L372.791 14.4545L372.741 14.2525L372.791 14L373.043 14.0505L373.144 14.3535L373.245 14.202L374.103 14.505L374.356 14.4545L374.81 14.808L374.86 14.9595L375.365 15.01L375.567 14.808H375.971L376.122 14.8585L375.92 15.313H376.324L376.374 14.909L376.627 14.9595L376.576 15.212L377.081 15.6665L376.374 16.0705L376.072 16.3735L375.971 17.131L375.567 17.2825L375.163 17.9895L375.113 18.343L374.81 18.7975L374.305 19.151L373.649 19.7065L373.599 19.959L373.8 20.2115L373.599 20.7165L373.397 21.07L373.649 21.777L373.599 22.08L373.649 22.383L373.599 22.585L373.7 22.989V23.393L373.901 23.7465L374.002 24.201L374.255 24.7565L374.558 25.1605L374.658 25.6655L374.81 25.918L375.012 26.019L375.567 25.9685L375.971 26.0695L376.324 26.019L377.131 26.1705L377.535 26.423L377.636 26.7765L377.434 27.1805L376.627 27.635L376.374 27.9885V28.7965L376.425 29.0995L376.173 29.6045L376.223 30.0085L376.576 30.6145L376.677 31.0185L376.475 31.776L376.526 32.0285L376.677 32.483L376.879 32.685L377.182 32.9375L377.889 33.19L378.494 33.1395L378.999 32.9375H379.504L380.261 33.0385L380.715 33.392L381.472 33.695L381.775 33.6445L382.077 33.897L382.532 34.503L383.238 35.0585L383.137 35.412V35.6645L383.642 36.624L383.793 37.2805L383.945 37.8865L384.096 38.4925L384.298 38.745L384.601 38.947L385.257 39.6035L385.358 40.0075L385.207 40.5125L385.257 40.8155L385.61 41.472V41.7245L385.964 42.28L386.266 42.482L386.771 42.9365L387.175 43.4415L387.225 43.694L387.175 43.997L387.881 44.7545L388.083 45.0575L388.487 45.512L388.639 46.0675L389.396 47.4815L389.597 47.734L390.153 48.138L390.354 48.542V49.35L390.455 49.8045L390.405 50.1075L390.455 51.0165L390.354 51.471L390.405 51.875L390.556 51.976L390.96 52.077L391.162 52.3295L391.414 52.9355V53.39L391.616 53.895L391.667 54.501L392.02 54.804L392.121 55.006L392.02 55.208L391.717 55.1575L391.515 55.41L391.717 55.9655L391.616 56.218L391.011 57.127L390.809 57.632L390.91 57.834L391.162 58.036L391.515 58.4905L391.566 59.0965L391.768 59.3995L391.969 59.955L392.272 60.359L392.323 60.763L392.676 60.864L392.928 61.167L393.029 62.177L393.231 62.48V62.9345L393.383 63.1365L393.938 63.288L400.65 65.0555L403.477 71.065L411.905 72.681L412.309 73.0345H412.46L417.002 77.63L421.494 82.175L421.696 81.266H421.847L422.049 81.67L422.302 82.478L422.251 82.68L421.999 82.7305L422.049 83.4375L422.806 93.5375L422.907 93.487L423.16 93.6385L423.21 93.891L423.008 94.4465L429.62 103.385L430.881 105.052L431.033 105.304L433.153 108.082L439.007 115.959L438.755 116.414L438.805 116.616L435.878 123.08L436.029 123.534L435.928 123.837L436.08 124.242L436.029 124.443L436.13 124.747V125.554L436.029 125.706L435.777 125.908L437.594 143.179L437.543 143.381L437.644 143.634L436.332 149.189L434.768 157.167L434.919 157.319L434.869 157.672L434.616 157.925L433.96 162.167L433.607 164.541L434.112 164.944L434.364 166.005L436.837 170.146L442.843 180.196L443.297 180.65L443.65 180.852L444.105 181.004L444.66 181.054L444.962 181.206L445.366 182.165L445.215 182.569L445.164 183.124L445.316 183.529H445.921L446.527 183.983L446.779 184.488L447.183 184.892L447.335 185.498L447.536 185.801L447.94 185.952V186.306L448.697 186.861L448.849 187.064V187.771L449 188.124L448.798 188.982L448.445 189.184L448.293 189.437V189.841L448.193 190.194L447.839 190.801L447.738 190.901L447.082 190.699L446.83 190.901L446.88 191.154V191.911L446.83 192.366L446.325 192.972L446.123 193.426L445.669 193.931L445.467 194.336L445.215 194.588L444.71 195.346V195.497L444.862 195.649L445.114 196.154L445.013 197.113L445.063 197.669V197.871L444.609 198.022L444.004 198.527L443.751 198.628L443.701 198.981L443.347 199.386L443.448 199.689L443.347 200.042L443.095 200.294L442.893 200.85L442.54 201.204L442.691 201.709L442.792 202.264L442.742 202.516L442.54 202.769L442.187 203.324V203.931L442.389 204.234V204.436L442.136 204.89L442.338 205.294L442.288 205.446L441.985 205.546L441.934 205.849L441.48 206.102L441.278 206.405L441.076 206.556V206.859L440.925 207.415L440.673 207.971V208.425L440.622 208.677L440.218 208.981L440.016 209.334L439.663 209.738L439.714 210.142L439.613 210.496L439.865 210.899L439.562 211.455L439.663 211.758L440.016 212.011L439.966 212.364L440.067 212.768L439.916 213.071L439.461 213.273L439.36 213.526L439.411 213.727L439.613 214.131L439.36 215.141V215.798L439.663 216.252L440.067 217.464L440.168 218.02L439.916 218.474L439.966 218.727L440.218 219.081L440.572 219.889L440.874 220.292L440.925 220.646L441.228 221.302V222.312L441.329 223.07L441.228 223.979V224.484L441.127 224.939L440.925 225.444L440.723 225.696L440.673 225.949L441.026 226.706L440.773 227.362L440.824 227.817L440.975 228.069H441.177L441.682 227.766H441.884V228.019L441.379 228.979L441.177 229.231L440.622 229.635L440.067 229.786H439.663L438.957 230.392L438.603 230.796L438.401 231.201L438.351 231.706L438.2 232.311L438.401 232.716L438.351 233.119L437.998 233.473L437.443 234.18L437.039 234.634L436.786 235.139L436.685 235.291L436.13 235.644L435.777 235.998L435.474 236.452L435.07 236.705L434.162 236.907L433.91 236.856L433.405 236.554H433.102L432.244 236.856L431.639 237.008L431.588 237.513L431.487 237.816L431.033 238.22L430.982 238.472L430.831 238.624L430.225 238.876L429.872 238.725L429.569 238.977L429.367 239.23L429.468 239.735L428.913 239.987V240.139L429.065 240.846L428.661 240.947L428.308 240.745H428.156L427.853 240.997L427.349 241.048L426.894 241.25L426.491 241.099V240.947L426.541 240.291L426.339 239.987L426.087 239.684L425.582 239.482L424.977 239.533H424.371L423.967 239.432L423.513 239.281L423.059 239.028L421.999 238.271L421.746 237.967L421.242 237.109L420.939 236.503L420.687 236.351L420.031 236.2L419.173 235.846L418.819 235.594L418.516 235.241L418.315 235.089L417.103 235.442L416.75 235.594L416.296 236.099L415.943 236.301L415.438 236.402L414.883 236.351L414.479 236.654L414.328 236.907L413.873 237.462L413.823 237.614V238.271L413.772 238.776L413.621 239.584L413.369 239.886L412.914 240.391L412.46 241.099L412.107 241.502L411.854 241.704L411.4 241.806L410.542 242.512L410.441 242.816L410.189 243.169L409.886 243.321L409.331 243.522L409.23 243.674L409.129 244.179L408.473 244.583L408.17 244.936L407.716 244.734L407.363 244.886H407.161L406.858 244.634L406.555 244.431L405.899 244.229L405.697 243.724L405.344 243.27L404.991 243.421L404.385 243.371L404.183 243.119L403.678 243.27L403.376 242.967L402.669 242.614H402.518L401.508 242.916L401.104 243.119L400.6 242.967L400.247 242.512H399.54L399.338 242.765L398.732 243.169L398.329 243.219L397.975 243.017L397.773 243.169L397.37 243.321L396.815 243.573L396.108 244.734L395.805 244.987L395.048 245.391L394.19 245.744L393.383 245.896L393.231 245.795L393.029 245.441L392.474 245.139L391.616 245.037L390.758 244.785L390.254 244.532L389.9 244.482L389.244 244.886L388.992 244.836L388.437 244.532L388.184 244.381L387.932 244.027L387.68 243.573L386.569 243.27L386.065 243.219L385.661 243.371L385.459 243.421L384.702 243.321L384.248 242.816L383.743 242.866L383.541 242.816L383.238 242.361L383.339 241.553L383.087 240.846L382.683 240.543L381.623 240.038L381.421 239.482L381.119 239.281L380.715 238.776L380.311 238.826L379.958 238.776L379.705 238.472L379.756 238.069L379.352 237.059L378.948 236.806L378.696 236.856L378.444 237.109L378.191 237.261L377.687 237.311L376.829 237.008L376.526 236.503H376.425V236.2L376.677 235.746V234.736L376.576 234.432L376.374 234.231L376.021 234.281L375.769 234.079L374.911 233.776L374.608 233.17L374.911 232.463L375.062 232.311L374.81 231.857L374.709 231.504L374.81 231.049L375.113 230.746L375.416 230.089L375.264 229.736L375.365 229.484L375.113 229.079L374.658 228.827L373.498 228.776L373.245 228.827L372.69 229.281L372.286 229.382L372.135 229.332L371.529 230.392L371.327 230.645L371.025 230.746L370.772 230.696L370.419 230.494L369.864 230.594L369.511 230.443L369.258 230.089L369.107 229.887L368.703 230.191H368.4V229.786L368.198 229.534L367.593 229.079L367.492 228.776L367.29 228.574L367.139 228.171L366.886 228.019L366.533 227.564L366.129 227.362L366.028 227.564L365.524 227.766L364.867 227.666L364.716 227.867L364.464 227.918L363.757 227.867L363.404 228.019L362.899 228.574L362.697 228.625L362.647 229.181H362.344L362.193 229.686L361.89 229.786L361.435 230.14L361.536 230.291L361.385 230.544L361.435 230.897L361.133 230.948L361.032 231.201L361.234 231.301L361.133 231.806L360.729 232.816L360.628 232.766L360.376 233.069L360.224 233.675L360.376 233.826L360.224 234.079V234.534V234.534L359.114 234.786L358.761 234.685L358.559 234.432L357.903 234.231L357.398 234.331L357.045 234.129L356.54 233.473L356.338 233.372L356.136 232.917L355.732 231.958L355.682 231.554L355.631 231.352L355.278 230.897V230.191L355.379 229.584L355.631 229.13L355.581 228.928L355.278 228.776L354.622 228.12L354.168 228.271L353.714 228.574L352.502 228.676L351.947 228.372L351.745 228.12L351.443 227.969L351.14 228.019L350.887 227.766L350.484 227.716L350.332 227.514L349.979 227.362H349.777L349.878 227.666L349.777 227.867L349.474 227.918L349.373 227.766L349.272 227.918L348.616 227.867L348.414 228.171L347.809 228.372L348.061 228.625L348.011 228.877L347.657 228.979L347.405 228.827L346.951 228.877L347.203 229.231L347.102 229.433L347.254 229.686L347.102 230.342L347.203 230.645L347.556 230.897V231.352L347.657 231.402L347.708 232.009L347.96 232.109L347.859 232.362L347.354 232.211L347.153 232.412L347.254 232.816L347.455 232.917L347.859 232.766L348.112 232.968L348.162 233.574L347.91 233.877L347.556 234.432H347.304L347.052 234.584L346.951 234.786L347.153 234.836L347.102 234.988L346.9 235.19L347.153 235.746L347.102 236.2L346.496 236.452L347.052 237.261V237.462H346.648L346.244 237.412L344.781 237.614H344.074L341.853 237.866L341.248 237.766L340.39 237.715L340.137 237.614L339.481 237.109L339.279 237.008L339.128 236.604L338.472 235.846L338.018 235.644L337.21 235.089L336.806 234.736L336.403 234.231L335.898 234.029L335.494 233.978L335.09 234.079L334.889 234.382L334.586 234.634L334.283 234.988V235.341L334.081 235.695L334.131 236.503L333.93 237.059L333.425 237.513L333.526 237.766L333.425 238.472L333.324 238.776L333.223 239.533L332.466 239.937L331.961 240.24L331.053 240.492L330.8 240.442L330.649 240.796L330.548 241.301L330.7 241.906L330.75 242.311L330.548 242.816L330.346 243.775V244.28L330.144 244.684L329.438 245.694L328.883 246.351L328.63 246.754L328.428 247.159L328.227 247.361L327.823 247.613L327.369 247.664L327.015 247.512L326.359 247.259L325.703 247.108H325.299L324.896 247.209L324.239 247.664L323.735 247.916L323.381 248.017H322.523L322.019 248.169L321.06 248.774L320.555 248.926L320 248.976H319.445L318.536 248.876L317.779 248.522L317.426 248.32L316.063 247.411L315.205 246.956L314.347 246.856L313.489 246.451L313.187 246.199L312.531 245.593L311.218 244.28L309.553 242.714L308.543 242.007L308.19 241.755L307.736 241.25L307.534 240.896L307.13 239.735L306.777 238.826L306.525 238.321L306.171 237.766L305.061 236.049L304.405 235.341L303.547 234.634L302.184 233.726L301.326 233.321L300.519 233.069L300.115 233.019H299.56L297.793 233.221L296.835 233.119L296.077 232.816L295.119 232.261L294.563 231.907L294.21 231.706L293.302 231.402L292.242 231.15L291.081 230.746L290.273 230.342L289.769 230.696L289.668 230.948L289.718 231.504L289.819 231.857L289.617 232.059L289.668 232.412L289.87 232.917L289.971 233.372L289.92 234.029L289.516 234.281L289.264 234.988L288.558 235.594L288.457 235.644L288.406 235.998L288.103 236.149V236.351H287.851L287.649 236.907L287.75 237.261L287.599 237.513L287.75 238.069L287.851 238.169L288.305 238.523L288.406 238.876L288.81 239.179L288.911 239.634L289.062 239.786V240.189L289.516 240.796L289.567 241.553V242.159L289.971 243.219L290.273 243.624L290.425 244.229L290.475 244.583L290.728 245.139L290.576 245.795L290.627 246.047V246.401L290.728 246.502L290.576 246.805L290.677 247.159L290.627 247.411L290.879 248.471L290.829 248.724L291.031 249.179L291.232 249.279L291.131 249.582L291.485 249.986L291.687 250.391L291.434 250.744L291.333 251.097L291.586 251.501L291.788 251.552L291.838 251.906L291.788 252.411L291.939 252.764L292.141 252.916L291.939 253.168L291.788 253.622L291.535 254.683L291.636 255.137L291.838 255.39L291.636 255.895L291.687 256.299L291.636 256.551L291.687 256.956L291.586 257.157L291.283 257.309L291.031 257.612L290.879 257.662L290.475 257.561L290.173 257.713L289.718 257.662L289.567 257.864L289.264 258.016L288.961 258.42L288.86 258.672L288.709 258.824L287.851 258.925L287.447 259.177L287.498 259.581L287.195 259.884L287.144 260.339L286.943 260.642L286.842 261.248L286.64 261.45L286.741 262.056L286.488 262.662L286.085 262.814L285.984 263.016L286.185 263.47L286.236 264.177L286.085 264.531L286.034 265.187L285.782 265.692L285.529 266.046L285.227 266.298L285.126 266.803L285.227 267.156L284.823 267.51L284.621 267.712L284.419 268.419L284.066 268.722L284.015 268.924L283.763 269.126L283.813 269.884L284.015 270.035L283.914 270.591L284.268 270.994L284.52 271.954L284.722 272.307L284.52 272.61L284.924 272.863L285.126 273.216L285.227 273.267L285.428 273.822V274.226L285.58 274.53L285.63 275.035L285.428 275.54L285.529 275.944V276.6L285.378 277.004L285.479 277.206V277.61L285.327 277.812L285.428 278.115L285.378 279.075L285.327 279.276L285.428 279.68L285.327 280.085L285.479 280.337L285.277 280.741V281.195L285.126 281.448L285.075 282.054L285.227 282.407L285.428 282.66H285.731L286.135 283.014L286.337 283.519L286.085 284.529L285.933 285.034L285.731 285.235L285.58 285.69L285.277 285.892L285.126 286.094L285.025 286.599L285.176 286.952L285.378 287.104L285.327 287.306L285.126 287.66L285.025 288.215V288.67L284.772 289.275L284.722 289.477L284.47 290.134L284.52 290.336L284.369 290.437L284.268 290.942L284.167 291.346L283.612 291.952L283.359 292.609L283.258 293.114L283.359 293.517L283.309 293.77L282.703 294.426L282.299 294.78L282.148 295.386L281.997 295.74L281.441 296.144L281.29 296.396L281.038 296.547L280.836 296.75L280.583 296.951V297.154L280.533 297.557L280.281 298.062L280.079 298.265L279.826 298.365L279.523 298.77V299.022L279.17 299.224L278.918 299.78L279.17 300.082L279.019 300.537L278.817 300.638L278.666 300.89L278.766 301.092L279.12 301.143L278.716 301.597L278.766 301.648L278.464 301.85L278.161 301.699L277.606 301.951L277.252 302.153L277.05 302.052H276.798L276.647 302.254L276.748 302.658L276.95 302.86L276.697 303.112L276.748 303.264L276.546 303.415L276.293 303.365L275.991 303.617H275.789L275.183 303.516L274.779 303.365L273.972 303.516L273.719 303.668L273.467 304.021H273.063L272.66 303.82L272.458 303.971L272.256 304.526L271.499 304.729H270.893L270.389 305.031L270.187 304.83L269.985 304.88L269.833 305.183L269.48 305.536L269.329 305.94V305.84L268.925 305.89V306.244L268.723 306.546L268.269 306.496L268.117 306.749L267.966 306.395L267.512 306.244L267.007 306.294L266.553 306.142L266.351 305.89L266.099 305.84L265.846 305.637L265.796 305.435L265.392 305.385L265.342 304.425L265.089 304.375L264.988 304.173L265.089 303.971L265.039 303.719L264.635 303.315L263.928 302.91L263.575 302.709L262.667 302.81L262.263 302.961L261.708 304.072L261.203 304.577L260.799 304.274L260.597 304.425L260.295 304.375L260.143 304.476L259.992 304.375L259.739 304.526L259.083 304.224L258.629 304.274L258.276 304.678L258.225 304.93L258.074 305.335L258.023 305.637L258.175 306.092V306.445L257.872 306.244L257.822 306.496L257.418 306.698L257.367 306.85V307.556L257.166 307.809L257.065 308.061L257.115 308.769L257.014 309.324L257.166 309.475L256.762 309.728L256.408 310.485V310.738L256.207 311.091L256.055 311.495L255.5 312.202L255.096 312.051L254.642 311.697L254.238 311.495L254.036 311.596L253.734 311.9L253.481 312.051L252.472 312.253L252.27 312.101L252.018 312.152L251.412 312.606L251.311 312.809L251.109 312.96L250.857 312.859L250.504 313.364L250.352 313.263L250.302 312.96L250.049 312.91L249.746 313.415L249.393 313.061L248.989 313.01L248.939 313.212L248.535 313.314L248.384 313.465L248.182 313.415L247.879 313.566L247.677 313.212L247.273 312.859L247.324 312.606L247.475 312.455L247.273 312.202L246.718 312.101L246.567 311.849L245.961 311.596L245.81 311.395L245.608 311.445L245.558 311.748L245.305 311.647L245.204 311.495L245.002 311.344H244.75L244.548 310.738L244.296 310.637V310.485L243.993 310.233L243.236 310.334L242.479 309.829L242.428 309.627L242.025 309.274L241.722 309.223L241.419 308.87H240.914L240.712 308.92L240.41 308.465L240.157 308.415L239.804 308.213L239.552 308.162L238.996 308.264L238.744 308.213L238.542 308.365L237.937 308.213L237.886 308.061L237.634 308.264L237.281 308.162L237.028 308.264V308.415H236.271L236.069 308.769L235.867 308.819V309.122L235.716 309.274L235.615 309.526L235.413 309.576V309.88L235.262 310.284L234.908 310.637L234.707 310.94L234.505 310.89L233.748 311.344L233.495 311.243L233.142 311.192L232.991 311.546L232.839 311.344V311.546L232.486 311.849L232.435 312L232.133 311.95L231.779 312.152L231.477 311.95H231.224L231.073 311.596H230.871L230.669 311.395L230.114 311.445L229.862 311.596L229.357 311.344L229.155 311.596L228.6 311.546L228.549 311.445L228.196 311.647L227.893 311.395L227.944 310.89L227.893 310.738L227.54 310.789V310.89L227.086 311.091H226.682L226.278 311.395L225.874 311.697L225.773 311.849L225.521 312L225.471 312.152L225.168 312.304L224.865 312.202L224.562 312.253L223.805 312.304L223.452 312.405L223.099 312.606L222.695 312.758L222.342 312.96L221.685 313.212L221.332 313.364L221.181 313.263L220.222 313.162L219.869 313.263L219.969 313.768L220.272 314.677L220.07 315.283L219.818 315.182L218.758 315.131L218.657 314.93L218.102 314.98L217.951 314.879L217.85 315.182L217.698 315.081L217.496 315.182L217.244 315.081L216.992 315.283L216.437 315.334L216.083 315.131L216.033 315.283L215.579 315.131L215.276 314.778L215.225 314.475L215.023 314.121L214.67 313.97L214.115 313.92L214.166 313.819L213.913 313.364L212.752 312.202L212.349 311.9L211.995 311.849L211.592 311.697L211.188 311.395L210.633 310.738L210.33 310.637L209.926 310.94L209.573 311.344L209.371 311.495L209.27 311.697L208.664 311.596L208.563 311.9L207.958 311.647L206.898 311.9H206.595L206.191 311.395L205.838 311.344L205.535 310.94V310.536L205.283 310.284L204.475 310.334L203.971 309.93L203.214 310.132H202.759L202.658 309.93L202.406 309.829L201.851 310.081L201.75 310.334L201.346 310.385L201.245 310.789L200.286 311.243L199.63 311.395L199.327 311.596L199.075 311.647L198.974 311.849L198.621 312L198.52 312.253L198.116 312.405L197.965 312.556H197.662L197.46 312.758L197.107 312.657L196.754 313.061L196.35 313.212L195.896 313.616L195.795 313.819L195.542 313.566L195.29 313.465L195.239 313.061L195.088 312.91L194.533 313.314L194.079 313.263L193.927 313.465V313.616L193.271 313.869L193.019 314.222L192.968 314.475L192.665 314.677L192.615 315.182L192.363 315.535L192.009 315.435L191.858 315.535V316.04L191.959 316.242V316.495L191.707 316.596L191.404 316.545L191.101 316.646L190.95 317L190.647 316.545L190.596 315.99L190.445 315.535L190.041 315.687H189.587V315.485L189.89 315.081L189.94 314.778L189.435 314.374L189.234 314.172L189.536 313.768L189.486 313.364L189.284 313.111V312.758L188.981 312.253L188.88 311.95L188.628 311.9L188.527 311.445L188.426 311.294L187.77 310.89L187.921 310.536L187.77 310.132V309.93H188.022L188.325 309.475L188.628 309.021V308.617L188.325 308.213L188.174 307.708L188.073 307.304L187.972 307.254L187.871 307.001L187.568 306.597L187.164 306.244L187.467 305.84V305.536L187.619 305.183L187.568 304.779H187.215L187.013 304.93L186.912 304.729L186.559 304.476L186.508 304.274L185.953 304.224L185.852 304.072L185.499 304.122V303.668L185.802 303.415L185.903 302.658L186.054 302.305L185.701 301.951L185.146 301.648L184.691 301.345V301.194L184.893 300.89L185.398 300.739L185.65 300.79L185.852 300.587L185.953 300.638L186.357 300.335H186.458L187.013 299.981L187.366 299.628L187.871 299.325V299.174L187.669 299.022L187.82 298.719V298.416L187.669 298.265L187.77 297.81V297.406H187.467L187.316 297.204L187.164 296.649V296.093L187.619 295.537V295.436L187.467 294.578L187.417 294.022L187.518 293.871L187.467 293.416L187.265 293.315L186.912 293.467L186.609 293.72L186.407 293.467L185.751 293.164L185.549 292.76L185.347 292.104L184.792 291.548L184.389 291.649L184.035 291.8L183.682 291.396V291.043L183.985 290.437L184.136 290.185L184.439 289.982H184.691V289.579L184.792 289.275L185.196 288.972L185.246 288.871L185.095 288.518L185.196 288.215L185.146 288.013L184.641 287.559L184.691 286.952L184.338 286.65L184.035 285.892L183.884 285.74L183.732 285.437L183.581 285.336L183.177 285.387L183.076 285.488L182.874 285.942H182.622L182.471 285.69L181.915 285.235L181.815 284.427L180.906 283.821L180.351 283.872L179.897 283.72L179.442 283.67L179.19 283.519H178.988L178.585 283.316H178.282L177.626 282.862L177.474 282.509L177.02 282.004L176.919 281.801L176.465 281.65L176.162 280.892L175.254 280.539L175.052 280.59L174.698 280.438L174.143 280.387L173.84 280.59L173.739 280.185L173.487 279.933L173.336 279.58H172.881L172.427 279.933L172.124 279.984L171.519 280.286L171.367 280.69L171.014 280.943L170.661 280.892L170.509 280.741V280.185L170.207 280.135L170.156 280.286V280.59L169.954 280.539L169.752 280.236L169.197 280.539L169.147 280.791L168.995 280.994H168.743L168.592 280.741L168.39 280.791L168.339 281.095L168.036 281.246L167.784 281.195L167.431 281.246L167.178 280.943L166.977 280.791L166.674 280.741L166.623 281.095L166.27 281.246L166.371 281.751L166.068 281.852L165.917 281.751L165.664 281.801L165.462 281.499L165.614 281.145L165.462 280.842L165.109 280.741L164.958 280.892L164.655 280.69V280.539L164.352 280.085L164.1 280.034L163.797 280.286L163.242 279.933L163.09 279.529L162.788 279.125L162.384 279.175L162.131 279.428L161.98 279.327L161.576 279.479L161.475 279.276L161.273 279.479L160.87 279.327L160.718 279.428L160.567 279.226L160.315 279.276L160.163 279.024L159.759 279.125L159.709 278.923L160.214 278.67L159.961 278.216L159.608 278.317L159.457 278.266L159.204 278.469L159.103 278.872L158.8 278.974L158.548 278.872L158.397 278.923L158.195 279.175L157.942 279.075L157.842 278.923L157.993 278.67L157.791 278.469L157.892 278.266L157.64 277.862L157.085 277.56L156.984 277.004L156.63 276.701L156.428 276.6L155.974 276.499L155.924 276.196L156.025 275.842L155.924 275.59H155.52L155.116 275.842H154.561L154.258 275.54L153.955 275.741L153.754 275.64L153.854 275.135L153.602 274.984L153.451 275.135L153.602 275.236L153.4 275.54H152.946L152.694 275.59V275.842L152.189 275.792L151.937 276.095L151.836 276.297L151.937 276.55L152.189 276.802V277.155L151.987 277.105L151.836 277.357L151.684 277.408L151.331 277.155L150.725 277.459L150.675 277.61L150.019 278.165H149.867L149.817 277.812L149.262 277.66L149.464 277.357L149.363 277.105H148.959L148.757 277.004L148.707 276.701L148.404 276.449L148.252 276.499L148.202 276.196H147.798L148 276.045L147.95 275.944H147.647L147.394 276.045L147.092 275.792L146.839 275.842L146.688 275.54L146.435 275.691H146.082L145.678 275.893L145.123 275.792L145.022 275.691L144.669 275.893H144.518L144.164 275.236L143.962 275.035L143.811 275.236L143.407 275.035L142.903 275.186L142.146 275.59L142.045 275.842L141.641 275.994L141.288 276.246L140.833 276.701L140.631 277.055L140.076 277.004L139.572 276.751L139.168 276.802L138.865 276.701L138.764 276.903L138.815 277.155L138.512 277.509L138.562 277.812L138.209 278.065L138.158 278.317L138.411 278.57L138.36 278.771L138.158 279.075L138.259 279.226L138.007 279.529L137.704 279.479L137.502 279.63L137.401 280.135L137.099 280.185L136.947 280.387L137.3 280.539L137.25 280.842L137.502 280.994L137.553 281.145L137.351 281.195L137.401 281.499L137.553 281.65L137.502 282.155L137.553 282.458H137.654V282.811L137.452 283.316L137.805 283.367L137.856 283.72L138.007 283.67L138.108 283.922L138.36 284.024L138.461 284.326L138.411 284.68L138.764 284.781L138.613 285.084L138.209 285.336L137.805 285.539L137.654 285.336L137.502 285.539L137.603 285.993L137.401 286.094L137.2 286.044L136.998 286.397V286.75L136.745 286.851L136.695 287.205L136.442 287.356V287.609L136.695 287.962L136.644 288.114L136.392 288.165L136.594 288.67L136.897 288.77L136.947 289.175L137.149 289.124L137.401 289.326L137.603 289.477L137.755 289.326H137.957L138.108 289.932L138.007 290.437L137.805 290.69L137.2 290.79L137.25 290.942L137.048 290.992L136.695 290.841L136.442 290.992L136.493 291.295L137.048 291.396V291.497L137.553 291.447L137.654 292.104L137.452 292.255L137.048 292.104L136.846 292.406L137.048 292.659L137.2 293.012L137.149 293.315L136.695 293.416V293.568L136.947 294.124L137.704 294.376L137.553 294.578L137.704 294.629L137.755 294.881H137.957V295.083L137.755 295.032L137.553 295.487L137.401 295.537L137.3 295.79L137.099 295.891V296.093L136.594 296.699L136.342 296.75L136.241 297.002L135.988 297.355L136.089 297.406L135.938 297.709L135.837 297.557L135.484 297.608L135.282 297.961L135.484 297.911L135.585 298.113L135.433 298.365L135.332 298.315V298.618L135.484 298.971V299.224L135.332 299.275V299.527L135.181 299.78H135.383V299.981L135.181 300.032L135.231 300.689H135.029L134.626 300.285L134.323 299.729L134.272 299.174L134.171 299.072L133.768 299.022L133.414 298.567L132.809 298.012L132.102 297.305V297.052L131.951 296.8L131.648 296.547L131.396 296.497L131.042 296.245L130.79 295.941L130.386 295.689L129.982 295.083L129.074 294.174L128.67 294.225L128.216 294.073L127.964 293.871L127.711 293.416L127.459 293.215L126.904 293.114L126.702 293.315L126.45 293.366L126.197 292.962L125.945 292.861L125.793 292.558L125.44 292.356L124.229 292.558L123.573 293.063L123.32 293.366L123.068 293.972L122.765 293.921L122.513 293.568L122.21 293.315L121.958 292.911L121.907 292.76L121.453 292.255L120.847 292.205L120.494 292.104L119.989 291.851L119.737 292.002L119.485 291.75L118.93 291.8L118.98 292.104L118.778 292.154L118.223 291.599L118.173 291.346L118.324 291.144V290.841L117.92 290.437L117.315 290.185L117.264 290.589L117.012 290.487L116.86 290.235L116.558 290.185L116.002 290.285L115.649 290.235L115.245 290.336L114.842 290.185L114.539 290.134L114.286 289.78L114.135 289.68L114.085 289.376L113.832 288.871L113.479 288.518L113.378 288.265L113.227 288.064L113.277 287.66L113.227 287.508L112.722 287.306L112.419 287.457L112.268 287.356L111.965 287.003L111.309 286.952L111.056 286.75L110.905 286.498L110.703 285.841V285.64L110.804 285.387L110.955 285.286L111.763 285.135L112.116 284.932L112.369 284.63L112.469 284.074L112.419 283.519L112.116 282.559V282.256L112.268 282.004L112.015 281.7L112.167 281.246L112.116 280.943L111.914 280.59L111.662 280.438L111.561 280.286L111.612 279.529L111.763 278.974L111.712 278.317L111.864 277.913L111.763 277.509L111.511 277.206L111.46 276.802L111.258 276.701L111.056 276.398L111.107 276.196L111.056 275.59L111.208 275.085L111.309 274.984V274.681L111.41 273.924L111.258 273.721V273.317L111.006 273.015L110.905 272.61L110.653 272.206V271.045L110.552 270.742L110.501 270.489L110.299 270.086V269.833L109.946 269.379L109.542 269.176L108.886 268.772L108.432 268.571L107.978 268.217L107.675 268.116L107.221 267.359L107.069 266.954L106.565 266.651L106.363 266.399L106.413 266.146L106.009 265.995L105.757 265.641L105.202 265.237L105.101 265.036L105 264.531L105.05 264.227L105 263.824L105.252 263.167L105.808 262.359L106.413 262.006L106.665 261.702L107.12 261.197L108.028 261.046L108.432 260.794L108.987 260.743L109.542 260.491L109.694 260.036L109.946 258.874L110.299 257.966Z" fill="#095845"/>
</svg>
