<svg width="35" height="22" viewBox="0 0 35 22" fill="none" xmlns="http://www.w3.org/2000/svg">
<g clip-path="url(#clip0_211_2960)">
<path d="M33.3662 0H2.36621C1.81393 0 1.36621 0.447715 1.36621 1V21C1.36621 21.5523 1.81393 22 2.36621 22H33.3662C33.9185 22 34.3662 21.5523 34.3662 21V1C34.3662 0.447715 33.9185 0 33.3662 0Z" fill="#095845"/>
<path d="M33.9666 0C34.4126 0 34.7796 0.333 34.8336 0.764L34.8406 0.874V21.126C34.8405 21.3387 34.7629 21.5442 34.6223 21.7038C34.4816 21.8634 34.2876 21.9662 34.0766 21.993L33.9666 22H1.76655C1.55384 21.9997 1.34852 21.9219 1.1891 21.781C1.02967 21.6402 0.927084 21.4461 0.900555 21.235L0.893555 21.125V0.874C0.893555 0.428 1.22655 0.06 1.65755 0.007L1.76755 0H33.9666ZM13.2456 11.63H10.1456C10.0193 11.63 9.89704 11.6748 9.8007 11.7565C9.70437 11.8382 9.64017 11.9514 9.61955 12.076L9.61255 12.163V15.389C9.61255 15.653 9.80555 15.873 10.0586 15.915L10.1456 15.922H13.1996C13.3186 15.922 13.4326 15.882 13.5246 15.81L13.5896 15.75L14.1786 15.113L14.7366 15.742C14.8176 15.832 14.9266 15.892 15.0456 15.912L15.1356 15.92H16.6336C16.7599 15.92 16.8821 15.8752 16.9784 15.7935C17.0747 15.7118 17.1389 15.5986 17.1596 15.474L17.1666 15.388V14.838H17.5956C18.0506 14.838 18.3966 14.756 18.6596 14.626L18.7666 14.568V15.388C18.7666 15.652 18.9596 15.872 19.2136 15.913L19.2996 15.92H20.0746C20.2009 15.92 20.3231 15.8752 20.4194 15.7935C20.5157 15.7118 20.5799 15.5986 20.6006 15.474L20.6076 15.388V14.742H20.8976C20.9686 14.742 21.0186 14.744 21.0546 14.747L21.0566 14.807V15.387C21.0566 15.652 21.2496 15.872 21.5036 15.913L21.5896 15.92H22.3636C22.4452 15.9185 22.5253 15.898 22.5976 15.86C22.6453 15.8852 22.6965 15.9031 22.7496 15.913L22.8336 15.92H25.4056C25.4906 15.92 25.5656 15.897 25.6366 15.863C25.6836 15.886 25.7336 15.903 25.7866 15.913L25.8686 15.92H27.3696C27.8486 15.92 28.2356 15.804 28.5286 15.596C28.5986 15.759 28.7466 15.881 28.9266 15.912L29.0186 15.92H30.5196C31.6116 15.922 32.2616 15.341 32.2616 14.371C32.2616 13.921 32.1416 13.585 31.8776 13.313C31.8716 13.308 31.8656 13.303 31.8616 13.297C31.9234 13.2572 31.9763 13.2051 32.0169 13.1438C32.0576 13.0825 32.085 13.0134 32.0976 12.941L32.1056 12.849V12.163C32.1056 12.0367 32.0608 11.9145 31.9791 11.8181C31.8974 11.7218 31.7842 11.6576 31.6596 11.637L31.5736 11.63H30.0276C29.5456 11.63 29.1846 11.77 28.9206 11.985C28.8899 11.8971 28.8367 11.8189 28.7664 11.758C28.696 11.6971 28.6109 11.6557 28.5196 11.638L28.4226 11.63H26.8776C26.4536 11.63 26.1176 11.735 25.8636 11.907C25.8263 11.8387 25.7746 11.7794 25.7121 11.7331C25.6496 11.6869 25.5777 11.6547 25.5016 11.639L25.4046 11.629H22.8316C22.7335 11.6295 22.6375 11.6574 22.5545 11.7095C22.4714 11.7616 22.4046 11.8359 22.3616 11.924C22.3246 11.898 22.2996 11.868 22.2586 11.844C21.9396 11.674 21.6026 11.638 21.2546 11.631L21.0806 11.63H19.3006C19.2021 11.6302 19.1056 11.658 19.0221 11.7104C18.9387 11.7627 18.8716 11.8374 18.8286 11.926C18.5926 11.771 18.2726 11.66 17.8346 11.636L17.6396 11.63H15.1766C15.0587 11.6296 14.9441 11.6683 14.8506 11.74L14.7856 11.8L14.2016 12.43L13.6416 11.806C13.5918 11.7503 13.5307 11.7058 13.4624 11.6755C13.3942 11.6452 13.3203 11.6297 13.2456 11.63ZM13.2456 12.163L14.1956 13.22L15.1756 12.163H17.6396C18.2516 12.163 18.9386 12.333 18.9386 13.226C18.9386 14.069 18.3456 14.283 17.7146 14.306L17.5956 14.307H16.6346V15.389H15.1356L14.1856 14.321L13.1996 15.389H10.1456V12.163H13.2456ZM25.4056 12.163V12.829H23.5996V13.416H25.3606V14.075H23.6006V14.715L25.4056 14.72V15.389H22.8326V12.162H25.4056V12.163ZM21.0816 12.163C21.4716 12.163 21.7556 12.178 22.0116 12.313C22.2526 12.46 22.4066 12.663 22.4066 13.03C22.4117 13.2116 22.3623 13.3906 22.2646 13.5437C22.1669 13.6969 22.0254 13.8172 21.8586 13.889C22.0286 13.951 22.1706 14.067 22.2356 14.16C22.3276 14.291 22.3536 14.415 22.3606 14.617L22.3636 14.748V15.388H21.5896V14.8C21.5876 14.636 21.5676 14.46 21.4656 14.352C21.3686 14.253 21.2286 14.219 21.0136 14.211L20.8996 14.209H20.0766V15.387H19.3026V12.161H21.0826L21.0816 12.163ZM31.5756 12.162V12.848H30.1616C30.0216 12.848 29.9296 12.854 29.8516 12.906C29.7676 12.959 29.7356 13.036 29.7356 13.139C29.7356 13.261 29.8076 13.343 29.9036 13.379C29.9715 13.4009 30.0422 13.4127 30.1136 13.414L30.2036 13.416L30.6186 13.428C31.0376 13.438 31.3246 13.51 31.5016 13.685C31.6526 13.84 31.7316 14.037 31.7316 14.369C31.7316 15.016 31.3546 15.342 30.6726 15.382L30.5226 15.387H29.0206V14.695H30.5156C30.6606 14.695 30.7656 14.676 30.8306 14.615C30.859 14.5879 30.8816 14.5553 30.8971 14.5192C30.9126 14.4831 30.9206 14.4443 30.9206 14.405C30.9214 14.3646 30.9135 14.3246 30.8972 14.2876C30.881 14.2506 30.8569 14.2177 30.8266 14.191C30.7666 14.142 30.6866 14.12 30.5516 14.12C29.8316 14.096 28.9276 14.142 28.9276 13.122C28.9276 12.684 29.1836 12.227 29.8746 12.168L30.0296 12.162H31.5756ZM28.4256 12.162V12.848H27.0116C26.8706 12.848 26.7796 12.854 26.7016 12.906C26.6166 12.959 26.5856 13.036 26.5856 13.139C26.5856 13.261 26.6576 13.343 26.7546 13.379C26.8224 13.401 26.8932 13.4128 26.9646 13.414L27.0546 13.416L27.4686 13.428C27.8866 13.438 28.1746 13.51 28.3516 13.685C28.5016 13.84 28.5826 14.037 28.5826 14.369C28.5826 15.016 28.2046 15.342 27.5226 15.382L27.3716 15.387H25.8696V14.695H27.3656C27.5106 14.695 27.6156 14.676 27.6796 14.615C27.7082 14.5881 27.731 14.5556 27.7465 14.5194C27.762 14.4833 27.7699 14.4443 27.7696 14.405C27.7708 14.3647 27.763 14.3246 27.747 14.2876C27.7309 14.2506 27.7069 14.2176 27.6766 14.191C27.6166 14.142 27.5366 14.12 27.4016 14.12C26.6816 14.096 25.7776 14.142 25.7776 13.122C25.7776 12.684 26.0336 12.227 26.7256 12.168L26.8806 12.162H28.4256ZM15.8656 12.509L14.6836 13.78L15.8676 15.095V12.508L15.8656 12.509ZM12.8476 12.83H10.9136V13.417H12.6056V14.076H10.9136V14.718H12.8086L13.6886 13.77L12.8466 12.83H12.8476ZM17.6396 12.83H16.6336V13.65H17.6286C17.9256 13.652 18.1086 13.505 18.1086 13.225C18.1086 12.943 17.9176 12.829 17.6386 12.829L17.6396 12.83ZM21.0246 12.83H20.0746V13.555H21.0126C21.1626 13.555 21.2906 13.549 21.3936 13.488C21.4447 13.4547 21.4862 13.4085 21.5139 13.3541C21.5417 13.2997 21.5546 13.239 21.5516 13.178C21.5516 13.041 21.4926 12.94 21.3926 12.888C21.2986 12.833 21.1606 12.83 21.0246 12.83ZM6.53055 6.078H5.38555C5.2967 6.07803 5.20926 6.10028 5.13119 6.14272C5.05312 6.18516 4.9869 6.24645 4.93855 6.321L4.89555 6.401L3.51555 9.626C3.48408 9.70013 3.46977 9.78041 3.47371 9.86085C3.47765 9.94128 3.49973 10.0198 3.5383 10.0905C3.57687 10.1612 3.63093 10.2222 3.69643 10.2691C3.76194 10.3159 3.83719 10.3473 3.91655 10.361L4.00555 10.369H4.84255C4.9324 10.369 5.02079 10.3463 5.09948 10.3029C5.17817 10.2596 5.24459 10.197 5.29255 10.121L5.33255 10.041L5.49655 9.649H6.38955L6.54955 10.038C6.62055 10.209 6.77355 10.329 6.95155 10.36L7.04255 10.368H8.61055C8.73686 10.368 8.85907 10.3232 8.95541 10.2415C9.05174 10.1598 9.11594 10.0466 9.13655 9.922L9.14355 9.835V9.823L9.24356 10.052C9.31756 10.217 9.46755 10.332 9.64155 10.362L9.73155 10.37H10.4086C10.4967 10.37 10.5834 10.348 10.6609 10.3061C10.7384 10.2642 10.8043 10.2037 10.8526 10.13L10.8946 10.052L10.9976 9.824V9.837C10.9976 10.102 11.1896 10.321 11.4436 10.362L11.5296 10.369H12.3196C12.4286 10.369 12.5226 10.329 12.6076 10.274C12.6704 10.3168 12.7411 10.3467 12.8156 10.362L12.8946 10.369H15.4696C15.5696 10.369 15.6576 10.334 15.7366 10.287C15.7896 10.319 15.8466 10.345 15.9076 10.358L16.0036 10.369H16.7756C16.9019 10.369 17.0241 10.3242 17.1204 10.2425C17.2167 10.1608 17.2809 10.0476 17.3016 9.923L17.3086 9.837V9.196H17.6016C17.6686 9.196 17.7166 9.198 17.7516 9.2L17.7536 9.257V9.434L17.7556 9.841C17.7576 10.101 17.9456 10.316 18.1936 10.361L18.2886 10.369H19.0666C19.1506 10.3676 19.233 10.3457 19.3066 10.305C19.3556 10.33 19.4066 10.35 19.4626 10.361L19.5466 10.369H20.3346C20.4564 10.368 20.5742 10.3247 20.6676 10.2464C20.761 10.1682 20.8243 10.0598 20.8466 9.94C21.2406 10.27 21.7776 10.354 22.1316 10.367L22.2416 10.369H23.1446C23.2347 10.3689 23.3234 10.3458 23.4021 10.3019C23.4809 10.2579 23.5471 10.1947 23.5946 10.118L23.6366 10.036L23.7936 9.649H24.6826L24.8456 10.041C24.9176 10.211 25.0696 10.331 25.2456 10.361L25.3366 10.369H26.9066C27.0328 10.3688 27.1549 10.3237 27.2511 10.2418C27.3472 10.16 27.4112 10.0466 27.4316 9.922L27.4386 9.836V9.327L27.9116 10.111C27.9916 10.245 28.1256 10.334 28.2766 10.361L28.3696 10.369H29.4606C29.587 10.369 29.7093 10.324 29.8057 10.2422C29.902 10.1603 29.9662 10.0468 29.9866 9.922L29.9936 9.836V6.61C29.9933 6.48372 29.9482 6.36163 29.8664 6.26548C29.7845 6.16934 29.6712 6.10537 29.5466 6.085L29.4606 6.078H28.6716C28.5453 6.07817 28.4232 6.12306 28.3269 6.2047C28.2306 6.28635 28.1664 6.39948 28.1456 6.524L28.1386 6.61V6.943L27.7716 6.336C27.7324 6.27061 27.6796 6.21443 27.6168 6.17129C27.554 6.12814 27.4826 6.09905 27.4076 6.086L27.3156 6.078H26.1436C26.0169 6.07777 25.8944 6.12262 25.7978 6.20452C25.7012 6.28643 25.637 6.40004 25.6166 6.525L25.6106 6.611V7.063L25.3266 6.401C25.2913 6.3194 25.2363 6.24786 25.1664 6.19287C25.0966 6.13787 25.0142 6.10114 24.9266 6.086L24.8376 6.078H23.6836C23.5685 6.07778 23.4566 6.11499 23.3646 6.184C23.2969 6.13329 23.218 6.09967 23.1346 6.086L23.0466 6.078H22.3006C21.6686 6.078 21.1986 6.232 20.8536 6.531C20.8378 6.42102 20.7878 6.3188 20.7106 6.2389C20.6334 6.15901 20.5329 6.1055 20.4236 6.086L20.3366 6.078H19.5496C19.4504 6.07865 19.3534 6.10712 19.2696 6.16015C19.1858 6.21318 19.1186 6.28866 19.0756 6.378C19.0426 6.354 19.0156 6.326 18.9796 6.304C18.6696 6.124 18.3456 6.087 17.9706 6.08L17.7796 6.078H16.0036C15.9086 6.08077 15.8163 6.10948 15.7366 6.161C15.6841 6.12803 15.6267 6.10372 15.5666 6.089L15.4696 6.079H12.8946C12.7916 6.08142 12.6916 6.1145 12.6076 6.174C12.5445 6.13099 12.4734 6.10107 12.3986 6.086L12.3206 6.078H11.0356C10.9463 6.07799 10.8585 6.10043 10.7802 6.14324C10.702 6.18605 10.6357 6.24787 10.5876 6.323L10.5456 6.403L10.0876 7.483L9.58355 6.388C9.54684 6.30943 9.49164 6.24091 9.42268 6.18832C9.35372 6.13573 9.27304 6.10062 9.18755 6.086L9.09956 6.078H7.84155C7.71505 6.0778 7.59261 6.12269 7.49622 6.20461C7.39982 6.28653 7.33577 6.40012 7.31555 6.525L7.30955 6.611V7.074L7.01955 6.4C6.97819 6.30438 6.90977 6.22295 6.8227 6.16573C6.73564 6.10852 6.63474 6.07802 6.53055 6.078ZM20.3366 6.611V9.837H19.5496V6.611H20.3366ZM23.0436 6.611V7.303H22.3136C22.0296 7.303 21.8716 7.345 21.7196 7.493C21.5876 7.63 21.4976 7.886 21.4976 8.225C21.4976 8.57 21.5656 8.819 21.7106 8.981C21.8086 9.088 21.9766 9.133 22.1456 9.144L22.2476 9.148H22.5926L23.6826 6.611H24.8366L26.1426 9.662V6.612H27.3156L28.6716 8.858V6.611H29.4606V9.837H28.3696L26.9066 7.417V9.837H25.3366L25.0366 9.117H23.4356L23.1456 9.837H22.2426C21.8666 9.837 21.3926 9.754 21.1246 9.48C20.8526 9.206 20.7116 8.835 20.7116 8.249C20.7116 7.77 20.7956 7.333 21.1266 6.987C21.3436 6.762 21.6706 6.643 22.1046 6.617L22.2976 6.611H23.0436ZM17.7766 6.611C18.1706 6.611 18.4606 6.621 18.7106 6.765C18.9536 6.91 19.1006 7.12 19.1006 7.48C19.1006 7.994 18.7576 8.26 18.5566 8.34C18.7058 8.39465 18.8377 8.48822 18.9386 8.611C19.0296 8.745 19.0586 8.867 19.0646 9.07L19.0666 9.203V9.837H18.2886L18.2856 9.43C18.2856 9.236 18.3036 8.957 18.1636 8.802C18.0706 8.708 17.9356 8.675 17.7326 8.666L17.6026 8.664H16.7756V9.837H16.0036V6.61L17.7766 6.611ZM6.52955 6.611L7.84155 9.665V6.61H9.10055L10.1096 8.8L11.0356 6.611H12.3206V9.837H11.5306L11.5266 7.311L10.4096 9.837H9.73055L8.61055 7.308V9.838H7.04355L6.74655 9.118H5.14155L4.84155 9.838H4.00455L5.38455 6.611H6.52955ZM15.4696 6.611V7.282H13.6636V7.864H15.4256V8.524H13.6636V9.17H15.4676V9.837H12.8936V6.61H15.4686L15.4696 6.611ZM22.5776 7.835L22.2436 8.615C22.1931 8.61622 22.1427 8.61118 22.0936 8.6C22.0676 8.552 22.0326 8.445 22.0326 8.224C22.0326 8 22.0866 7.884 22.0926 7.874C22.1156 7.854 22.1346 7.834 22.3156 7.834H22.5786L22.5776 7.835ZM5.93955 7.159L5.41555 8.445H6.46655L5.93955 7.159ZM24.2396 7.159L23.7106 8.445H24.7746L24.2396 7.159ZM17.7246 7.283H16.7746V8H17.7116C17.8616 8 17.9856 7.998 18.0926 7.934C18.1926 7.882 18.2526 7.768 18.2526 7.628C18.2526 7.489 18.1896 7.39 18.0896 7.343C17.9996 7.291 17.8576 7.283 17.7246 7.283Z" fill="#F0F0F0"/>
</g>
<defs>
<clipPath id="clip0_211_2960">
<rect width="35" height="22" fill="white"/>
</clipPath>
</defs>
</svg>
