<svg width="35" height="22" viewBox="0 0 35 22" fill="none" xmlns="http://www.w3.org/2000/svg">
<g clip-path="url(#clip0_211_2964)">
<path d="M32.999 0H1.99902C1.44674 0 0.999023 0.447715 0.999023 1V21C0.999023 21.5523 1.44674 22 1.99902 22H32.999C33.5513 22 33.999 21.5523 33.999 21V1C33.999 0.447715 33.5513 0 32.999 0Z" fill="#095845"/>
<path d="M33.9128 0C34.3958 0 34.7868 0.391 34.7868 0.874V21.126C34.7868 21.609 34.3968 22 33.9128 22H1.71284C1.59807 21.9999 1.48444 21.9771 1.37846 21.9331C1.27247 21.889 1.17619 21.8246 1.09513 21.7433C1.01406 21.6621 0.949792 21.5656 0.905991 21.4595C0.86219 21.3535 0.839713 21.2398 0.839844 21.125V0.874C0.839844 0.39 1.22984 0 1.71384 0H33.9128ZM34.1768 13.746C34.1768 13.746 26.6908 19.029 12.9788 21.394H34.1768V13.746ZM18.5418 7.97C18.1491 7.97004 17.764 8.07899 17.4294 8.28476C17.0948 8.49052 16.8238 8.78503 16.6466 9.13556C16.4693 9.48608 16.3928 9.87889 16.4254 10.2703C16.458 10.6618 16.5985 11.0365 16.8313 11.3529C17.0641 11.6692 17.3801 11.9148 17.7441 12.0624C18.1081 12.21 18.5059 12.2537 18.8933 12.1888C19.2807 12.1238 19.6424 11.9527 19.9384 11.6945C20.2344 11.4362 20.453 11.101 20.5698 10.726C20.5828 10.689 20.5898 10.652 20.5998 10.616C20.6078 10.584 20.6168 10.554 20.6228 10.523C20.6865 10.2141 20.6807 9.89492 20.6056 9.58859C20.5306 9.28226 20.3882 8.99649 20.189 8.75202C19.9897 8.50756 19.7385 8.31054 19.4536 8.17528C19.1687 8.04001 18.8572 7.96988 18.5418 7.97ZM24.2618 8.083H23.4178L22.3398 10.764L21.2758 8.082H20.4248L22.1198 12.178H22.5368L24.2618 8.082V8.083ZM11.5238 8.018C10.8168 8.018 10.2788 8.508 10.2788 9.162C10.2788 9.712 10.5288 9.994 11.2608 10.257C11.5658 10.365 11.7208 10.437 11.7988 10.484C11.8707 10.5265 11.9301 10.5871 11.9711 10.6598C12.0122 10.7324 12.0335 10.8146 12.0328 10.898C12.0328 11.221 11.7758 11.462 11.4288 11.462C11.0578 11.462 10.7568 11.275 10.5788 10.929L10.0748 11.414C10.4348 11.941 10.8648 12.174 11.4568 12.174C12.2668 12.173 12.8338 11.635 12.8338 10.861C12.8338 10.227 12.5708 9.94 11.6858 9.616C11.2178 9.444 11.0808 9.329 11.0808 9.114C11.0808 8.862 11.3258 8.671 11.6608 8.671C11.8938 8.671 12.0868 8.767 12.2898 8.995L12.6968 8.461C12.3739 8.17368 11.9561 8.0159 11.5238 8.018ZM15.2058 7.995C14.0258 7.994 13.0798 8.923 13.0798 10.084C13.0798 11.257 14.0008 12.167 15.1868 12.167C15.5228 12.167 15.8098 12.102 16.1638 11.934V11.018C15.8518 11.329 15.5758 11.456 15.2238 11.456C14.4388 11.456 13.8838 10.886 13.8838 10.078C13.8838 9.312 14.4568 8.707 15.1878 8.707C15.5598 8.707 15.8408 8.839 16.1638 9.157V8.24C15.8703 8.07883 15.5407 7.99455 15.2058 7.995ZM6.49984 8.085H5.35784V12.078H6.49584C7.09884 12.078 7.53584 11.935 7.91984 11.617C8.37484 11.238 8.64284 10.671 8.64284 10.084C8.64284 8.905 7.76284 8.084 6.49984 8.084V8.085ZM28.4938 8.084H27.3388L27.3398 12.078H28.1178V10.473H28.2188L29.2968 12.078H30.2558L28.9978 10.395C29.5838 10.275 29.9078 9.875 29.9078 9.263C29.9078 8.515 29.3938 8.084 28.4938 8.084ZM26.8228 8.084H24.6138V12.078H26.8228V11.4H25.3928V10.321H26.7708V9.645H25.3928V8.76H26.8228V8.084ZM9.78084 8.084H9.00284V12.077H9.78084V8.082V8.084ZM6.34484 8.761C6.84684 8.761 7.15284 8.851 7.40884 9.084C7.67884 9.324 7.84184 9.695 7.84184 10.078C7.84184 10.462 7.67884 10.844 7.40884 11.084C7.16484 11.304 6.84684 11.402 6.34484 11.402H6.13484V8.76L6.34484 8.761ZM28.3568 8.711C28.8428 8.711 29.1058 8.916 29.1058 9.303C29.1058 9.705 28.8428 9.921 28.3448 9.921H28.1178V8.71L28.3568 8.711Z" fill="#F0F0F0"/>
</g>
<defs>
<clipPath id="clip0_211_2964">
<rect width="35" height="22" fill="white"/>
</clipPath>
</defs>
</svg>
