<svg width="35" height="22" viewBox="0 0 35 22" fill="none" xmlns="http://www.w3.org/2000/svg">
<g clip-path="url(#clip0_211_2952)">
<path d="M33.014 0H3C2.44772 0 2 0.447715 2 1V21C2 21.5523 2.44772 22 3 22H33.014C33.5663 22 34.014 21.5523 34.014 21V1C34.014 0.447715 33.5663 0 33.014 0Z" fill="#095845"/>
<path d="M34.0203 0C34.4663 0 34.8333 0.333 34.8873 0.764L34.8943 0.874V21.126C34.8943 21.3387 34.8166 21.5442 34.676 21.7038C34.5353 21.8634 34.3413 21.9662 34.1303 21.993L34.0203 22H1.82027C1.6077 21.9997 1.40251 21.922 1.24311 21.7814C1.08371 21.6408 0.981019 21.4469 0.954266 21.236L0.947266 21.126V0.874C0.947266 0.428 1.28027 0.06 1.71127 0.007L1.82127 0H34.0203ZM23.7633 2.286C21.6029 2.28325 19.5191 3.08623 17.9193 4.538C16.4057 3.16513 14.4562 2.37046 12.4143 2.294L12.0783 2.288H12.0223C7.23927 2.318 3.36727 6.21 3.36727 11C3.36727 15.81 7.27027 19.712 12.0793 19.712C14.2381 19.7147 16.3203 18.9124 17.9193 17.462C19.5201 18.9155 21.606 19.719 23.7683 19.715C28.5803 19.714 32.4783 15.812 32.4783 10.996C32.478 9.85192 32.2524 8.7191 31.8143 7.66221C31.3763 6.60533 30.7343 5.64507 29.9252 4.83627C29.116 4.02747 28.1554 3.38597 27.0984 2.9484C26.0413 2.51082 24.9073 2.28574 23.7633 2.286ZM18.8263 16.509C18.6223 16.759 18.4053 16.996 18.1753 17.221L17.9413 17.441H17.9393L17.9173 17.461C17.6766 17.241 17.4495 17.0066 17.2373 16.759L17.0273 16.509H18.8263ZM19.9763 14.679C19.8763 14.893 19.7673 15.103 19.6513 15.309L19.4693 15.612H16.3793C16.2528 15.4118 16.1337 15.207 16.0223 14.998L15.8643 14.678H19.9773L19.9763 14.679ZM22.5213 8.703C22.9643 8.703 23.4733 8.894 23.5553 8.926L23.5663 8.93L23.4153 9.913C23.4153 9.913 23.0353 9.648 22.5643 9.648C21.9323 9.648 21.3663 10.25 21.3663 11.345C21.3663 11.884 21.6303 12.386 22.2893 12.387C22.5703 12.387 22.9663 12.202 23.0433 12.165L23.0563 12.159L22.8903 13.171C22.8903 13.171 22.3913 13.298 22.0783 13.298C20.9713 13.298 20.4093 12.534 20.4093 11.378C20.4093 9.632 21.4513 8.703 22.5213 8.703ZM15.1363 9.088L15.0413 9.628H15.5043L15.3863 10.501H14.8953L14.6353 12.111C14.6153 12.237 14.6503 12.41 14.9723 12.41C15.0273 12.41 15.0873 12.397 15.1403 12.39L15.2123 12.382L15.0963 13.171C15.0023 13.197 14.7393 13.291 14.4003 13.293C13.9683 13.297 13.6603 13.054 13.6603 12.507C13.6603 12.153 14.1473 9.346 14.2043 9.104L14.2083 9.088H15.1363ZM17.0133 9.525C18.0313 9.525 18.3353 10.27 18.3353 10.881C18.3353 11.101 18.2363 11.611 18.2173 11.71L18.2133 11.727H16.3283C16.3283 11.727 16.1543 12.47 17.1503 12.47C17.5793 12.47 18.0503 12.278 18.1253 12.246L18.1353 12.241L17.9723 13.136C17.9723 13.136 17.6723 13.288 16.9923 13.288C16.2543 13.288 15.3893 12.978 15.3893 11.666C15.3893 10.53 16.0803 9.526 17.0133 9.525ZM11.2613 10.505L11.2683 10.66L10.9033 13.215H10.0873L10.1183 12.86C10.1043 12.861 9.82127 13.285 9.16727 13.285C8.82327 13.285 8.27127 13.1 8.27127 12.285C8.27127 11.253 9.11427 10.911 9.91627 10.911C10.0423 10.911 10.3153 10.934 10.3153 10.934C10.3153 10.934 10.3453 10.87 10.3453 10.7C10.3453 10.42 10.0933 10.38 9.74727 10.38C9.40657 10.3757 9.06766 10.4298 8.74527 10.54L8.73627 10.544L8.87127 9.744C8.87127 9.744 9.35827 9.54 9.99427 9.54C10.3063 9.54 11.1733 9.572 11.2613 10.505ZM26.2963 10.505L26.3033 10.66L25.9383 13.215H25.1223L25.1523 12.86C25.1383 12.861 24.8553 13.285 24.2023 13.285C23.8593 13.285 23.3063 13.1 23.3063 12.285C23.3063 11.253 24.1483 10.911 24.9503 10.911C25.0773 10.911 25.3493 10.934 25.3493 10.934C25.3493 10.934 25.3813 10.87 25.3813 10.7C25.3813 10.42 25.1283 10.38 24.7823 10.38C24.2243 10.38 23.8403 10.518 23.7793 10.54L23.7713 10.544L23.9063 9.744C23.9063 9.744 24.3933 9.54 25.0303 9.54C25.3423 9.54 26.2113 9.572 26.2963 10.505ZM31.5053 8.805L30.7953 13.215H29.8933L29.9333 12.885C29.9333 12.885 29.6263 13.272 29.0703 13.272C28.2983 13.272 27.9203 12.528 27.9203 11.767C27.9203 10.59 28.6283 9.566 29.4793 9.565C29.9793 9.565 30.3153 9.971 30.3673 10.038L30.3743 10.048L30.5743 8.806L31.5043 8.805H31.5053ZM12.8383 9.547C13.3153 9.547 13.6273 9.606 13.6843 9.617L13.6943 9.62L13.5773 10.438C13.5773 10.438 13.0743 10.397 12.9433 10.397C12.6133 10.397 12.4333 10.469 12.4333 10.7C12.4333 11.163 13.5383 10.935 13.5383 12.088C13.5383 13.153 12.6483 13.258 12.2703 13.266H12.1353C11.5243 13.266 11.2453 13.201 11.1423 13.17L11.0943 13.154L11.2183 12.342C11.2193 12.336 11.6083 12.484 12.0423 12.484C12.2923 12.484 12.6173 12.459 12.6173 12.161C12.6173 11.713 11.4563 11.821 11.4563 10.758C11.4563 9.821 12.1523 9.547 12.8383 9.547ZM20.3933 9.585C20.5143 9.585 20.5723 9.596 20.5723 9.596C20.4483 9.847 20.3403 10.078 20.2273 10.672C19.6103 10.454 19.5373 11.59 19.2953 13.036L19.2633 13.226H18.3113L18.8893 9.631H19.7533L19.6703 10.152C19.6703 10.152 19.9773 9.585 20.3933 9.585ZM28.1833 9.585C28.2553 9.585 28.3043 9.589 28.3333 9.592L28.3613 9.596C28.2373 9.846 28.1283 10.077 28.0143 10.671C27.3983 10.453 27.3273 11.588 27.0843 13.035L27.0503 13.225H26.0983L26.6783 9.63H27.5413L27.4583 10.151C27.4583 10.151 27.7673 9.584 28.1823 9.584L28.1833 9.585ZM6.17127 8.801L6.21827 11.511L7.13327 8.801H8.60127L7.87027 13.218H6.92027L7.44827 9.888L6.25727 13.218H5.61727L5.53427 9.888L4.97127 13.218H4.07727L4.81827 8.801H6.17127ZM9.98927 11.598C9.30927 11.598 9.17127 11.903 9.17127 12.157C9.17127 12.287 9.24627 12.507 9.53427 12.507C10.0943 12.507 10.2093 11.776 10.1913 11.62C10.1643 11.615 10.1473 11.599 9.98927 11.598ZM25.0273 11.598C24.3473 11.598 24.2093 11.903 24.2093 12.157C24.2093 12.287 24.2843 12.507 24.5723 12.507C25.1303 12.507 25.2463 11.776 25.2293 11.62C25.2023 11.615 25.1853 11.599 25.0273 11.598ZM29.6373 10.456C29.2293 10.456 28.9073 10.93 28.9073 11.65C28.9073 12.09 29.0633 12.37 29.3973 12.37C29.8993 12.37 30.1423 11.715 30.1423 11.225C30.1423 10.685 29.9703 10.457 29.6373 10.456ZM17.0153 10.356C16.5523 10.356 16.4313 10.839 16.4153 10.966L16.4123 10.991H17.4423C17.4423 10.945 17.5383 10.356 17.0153 10.356ZM19.9593 7.286C20.0543 7.486 20.1423 7.692 20.2213 7.901L20.3363 8.219H15.5193C15.5613 8.139 15.6993 7.843 15.9073 7.441L15.9883 7.285L19.9593 7.286ZM18.7813 5.437C18.9443 5.634 19.0993 5.838 19.2453 6.049L19.4583 6.37H16.5053C16.6313 6.162 16.7653 5.95 16.9083 5.743L17.1253 5.437H18.7813Z" fill="#F0F0F0"/>
</g>
<defs>
<clipPath id="clip0_211_2952">
<rect width="35" height="22" fill="white"/>
</clipPath>
</defs>
</svg>
