<svg width="35" height="22" viewBox="0 0 35 22" fill="none" xmlns="http://www.w3.org/2000/svg">
<g clip-path="url(#clip0_211_2968)">
<path d="M33 0H2C1.44772 0 1 0.447715 1 1V21C1 21.5523 1.44772 22 2 22H33C33.5523 22 34 21.5523 34 21V1C34 0.447715 33.5523 0 33 0Z" fill="#095845"/>
<path d="M33.8611 0C34.3071 0 34.6741 0.333 34.7281 0.764L34.7351 0.874V21.126C34.7351 21.3387 34.6575 21.5442 34.5168 21.7038C34.3762 21.8634 34.1821 21.9662 33.9711 21.993L33.8611 22H1.66109C1.44837 21.9997 1.24305 21.9219 1.08363 21.781C0.924206 21.6402 0.821615 21.4461 0.795086 21.235L0.788086 21.125V0.874C0.788086 0.428 1.12109 0.06 1.55209 0.007L1.66209 0H33.8611ZM17.6511 9.086C17.4841 9.088 16.8061 9.086 16.8061 9.086C16.6551 9.086 16.4601 9.209 16.3641 9.355C16.3641 9.355 15.4661 10.897 15.2841 11.215L15.2591 11.257L15.1421 11.256L14.8281 9.366C14.8083 9.29729 14.7695 9.23561 14.716 9.18816C14.6625 9.14071 14.5967 9.10944 14.5261 9.098L14.4461 9.091L13.8151 9.092C13.6641 9.092 13.5701 9.212 13.6051 9.36C13.6051 9.36 14.0831 12.084 14.1791 12.725C14.2191 13.04 14.1841 13.124 14.1751 13.139L14.1741 13.141L13.5511 14.228C13.4701 14.358 13.4981 14.465 13.6071 14.491L13.6591 14.496L14.3881 14.495C14.5131 14.495 14.6721 14.412 14.7741 14.299L14.8281 14.228L17.6311 9.488C17.6311 9.488 17.9011 9.082 17.6511 9.086ZM24.3911 9.036C24.1057 9.03591 23.8208 9.05865 23.5391 9.104C23.3291 9.134 23.3081 9.141 23.1771 9.17C22.9391 9.22 22.8801 9.438 22.8701 9.486L22.8691 9.496L22.7831 9.849C22.7351 10.075 22.8611 10.064 22.9201 10.047C23.0361 10.012 23.1001 9.977 23.3381 9.923C23.5651 9.872 23.8061 9.833 23.9981 9.834C24.2781 9.834 24.4941 9.864 24.6371 9.925C24.7511 9.975 24.8191 10.052 24.8411 10.159L24.8501 10.244L24.8391 10.344L24.7381 10.407C24.3351 10.432 24.0471 10.468 23.6991 10.519C23.391 10.5579 23.09 10.6404 22.8051 10.764C22.5629 10.8635 22.3536 11.0291 22.2011 11.242C22.0617 11.4609 21.9913 11.7166 21.9991 11.976C21.9991 12.249 22.0971 12.472 22.2871 12.644C22.4781 12.812 22.7271 12.898 23.0271 12.898C23.1691 12.896 23.2871 12.888 23.3821 12.874L23.4681 12.856L23.8081 12.742L24.0981 12.581L24.3621 12.404L24.3661 12.409L24.3421 12.522L24.3391 12.525C24.3121 12.645 24.3691 12.745 24.4731 12.778L24.5281 12.79L24.5291 12.793H25.1831C25.2436 12.7844 25.3012 12.7615 25.3511 12.7262C25.401 12.6909 25.4418 12.6442 25.4701 12.59L25.4931 12.525L26.0071 10.308L26.0331 10.126L26.0491 9.956C26.0558 9.8138 26.0215 9.67266 25.9502 9.54943C25.8789 9.4262 25.7737 9.32607 25.6471 9.261C25.3801 9.111 24.9611 9.036 24.3901 9.036H24.3911ZM11.6111 9.034C11.3291 9.034 11.0461 9.057 10.7611 9.1C10.5501 9.133 10.5291 9.138 10.4001 9.167C10.1621 9.219 10.1021 9.436 10.0921 9.484L10.0901 9.493L10.0041 9.847C9.95609 10.073 10.0861 10.064 10.1401 10.045C10.2571 10.01 10.3221 9.975 10.5611 9.921C10.7891 9.869 11.0291 9.831 11.2211 9.832C11.5011 9.832 11.7171 9.862 11.8601 9.922C11.9731 9.972 12.0401 10.049 12.0631 10.156L12.0721 10.242L12.0591 10.342L11.9591 10.404C11.5591 10.429 11.2701 10.466 10.9201 10.516C10.6125 10.5548 10.3121 10.6376 10.0281 10.762C9.78523 10.8603 9.57538 11.0258 9.42309 11.239C9.28909 11.442 9.22309 11.686 9.22309 11.975C9.22309 12.246 9.32009 12.468 9.50909 12.642C9.69909 12.812 9.94909 12.894 10.2491 12.894C10.3921 12.894 10.5111 12.886 10.6051 12.871L10.6911 12.854L11.0311 12.737L11.3211 12.577L11.5851 12.401L11.5891 12.406L11.5621 12.519V12.523C11.5361 12.641 11.5941 12.742 11.6951 12.776L11.7491 12.787L11.7521 12.79H12.4061L12.4161 12.786C12.475 12.7775 12.5309 12.755 12.5793 12.7203C12.6277 12.6857 12.667 12.64 12.6941 12.587L12.7181 12.523L13.2311 10.303L13.2571 10.123L13.2701 9.953C13.2767 9.81095 13.2424 9.66998 13.1713 9.54681C13.1002 9.42363 12.9954 9.32341 12.8691 9.258C12.6041 9.108 12.1841 9.034 11.6121 9.034H11.6111ZM20.4261 7.954L18.9561 7.955C18.8898 7.95811 18.8257 7.97897 18.7703 8.01538C18.7148 8.0518 18.6702 8.10244 18.6411 8.162L18.6191 8.222L17.6291 12.531C17.5991 12.656 17.6661 12.763 17.7811 12.791L17.8411 12.797L18.5461 12.796C18.6123 12.7937 18.6766 12.7735 18.7322 12.7376C18.7878 12.7016 18.8327 12.6513 18.8621 12.592L18.8841 12.532L19.1221 11.485C19.14 11.4211 19.1748 11.3633 19.2229 11.3175C19.2709 11.2717 19.3304 11.2398 19.3951 11.225L19.4601 11.218H19.6601C20.5211 11.218 21.1901 11.041 21.6701 10.691C22.1461 10.334 22.3871 9.869 22.3871 9.293C22.3942 9.07384 22.3479 8.85623 22.2521 8.659C22.1626 8.48825 22.0289 8.3446 21.8651 8.243C21.6767 8.13027 21.4687 8.05426 21.2521 8.019C20.9791 7.97405 20.7028 7.95231 20.4261 7.954ZM28.0721 7.991H27.4431C27.3911 7.99353 27.3404 8.00802 27.295 8.03335C27.2496 8.05867 27.2106 8.09414 27.1811 8.137L27.1411 8.204L27.1051 8.259L27.0731 8.399L26.1931 12.403L26.1641 12.526C26.1411 12.637 26.1931 12.726 26.2841 12.763L26.3411 12.779L26.3531 12.794H27.0071C27.1111 12.794 27.2071 12.732 27.2711 12.646L27.3111 12.576L27.3451 12.526L28.2871 8.258C28.3171 8.11 28.2261 7.991 28.0721 7.991ZM7.65109 7.938H6.18109C6.11463 7.94124 6.05025 7.96225 5.99467 7.99883C5.93909 8.03542 5.89434 8.08624 5.86509 8.146L5.84309 8.207L4.85509 12.513C4.82409 12.637 4.89009 12.745 5.00509 12.773L5.06709 12.781H5.77009C5.90009 12.781 6.03009 12.693 6.08609 12.574L6.10809 12.513L6.34909 11.468C6.36614 11.4038 6.40055 11.3456 6.44853 11.2998C6.49652 11.2539 6.55623 11.2221 6.62109 11.208L6.68709 11.201H6.88709C7.74809 11.2 8.41409 11.024 8.89209 10.672C9.37509 10.32 9.61209 9.854 9.61209 9.277C9.61209 9.024 9.57009 8.812 9.47709 8.642C9.38967 8.47126 9.25678 8.32799 9.09309 8.228C8.90437 8.11661 8.69701 8.04038 8.48109 8.003C8.20673 7.95814 7.92908 7.9364 7.65109 7.938ZM24.6061 11.078L24.6561 11.165C24.6491 11.206 24.5781 11.499 24.5331 11.686L24.5151 11.759L24.4021 11.904L24.1271 12.047C23.9084 12.1406 23.6636 12.1537 23.4361 12.084L23.3611 12.049L23.2241 11.786C23.2241 11.642 23.2571 11.53 23.3241 11.443C23.4055 11.3504 23.5096 11.2804 23.6261 11.24C23.7511 11.196 23.9071 11.16 24.0891 11.135C24.2481 11.115 24.5651 11.077 24.6061 11.078ZM11.8301 11.074L11.8781 11.161C11.8701 11.201 11.8001 11.495 11.7541 11.681L11.7351 11.754L11.6261 11.899L11.3501 12.042C11.1307 12.1341 10.8861 12.1472 10.6581 12.079L10.5811 12.046L10.4451 11.782C10.4451 11.675 10.4641 11.585 10.5021 11.51L10.5481 11.44L10.8461 11.236C10.9731 11.193 11.1291 11.157 11.3091 11.131C11.4701 11.111 11.7901 11.075 11.8301 11.074ZM20.2351 8.849C20.5051 8.849 20.7071 8.894 20.8461 8.985C20.9831 9.075 21.0491 9.216 21.0521 9.404C21.0531 9.692 20.9461 9.911 20.7361 10.067C20.5591 10.195 20.3241 10.27 20.0311 10.292L19.8481 10.298H19.6731C19.5431 10.299 19.4521 10.209 19.4501 10.091L19.4571 10.031L19.6701 9.117C19.6873 9.05295 19.7218 8.99484 19.7698 8.94901C19.8177 8.90317 19.8773 8.87135 19.9421 8.857L20.0061 8.85L20.2351 8.849ZM7.46109 8.833C7.73109 8.833 7.93609 8.879 8.07309 8.969C8.20909 9.059 8.27709 9.199 8.27609 9.389C8.28349 9.51675 8.25839 9.6443 8.20313 9.75972C8.14787 9.87514 8.06425 9.97467 7.96009 10.049C7.74709 10.206 7.45209 10.283 7.07009 10.283H6.89809C6.74609 10.283 6.65109 10.163 6.68409 10.015L6.89609 9.101C6.91523 9.02608 6.95831 8.95947 7.01877 8.91127C7.07924 8.86308 7.15379 8.83595 7.23109 8.834L7.46109 8.833ZM29.3011 7.504H29.1841V7.699H29.1051V7.797H29.1851V8.161L29.2391 8.341L29.3991 8.398L29.4661 8.393L29.5361 8.379V8.276H29.5311L29.4871 8.29L29.4271 8.298L29.3561 8.287L29.3181 8.251L29.3021 8.194L29.3001 8.11V7.797H29.5361V7.699H29.3001V7.504H29.3011ZM30.4561 7.681L30.3321 7.707L30.2061 7.791L30.1331 7.71L30.0131 7.681L29.9011 7.707L29.7911 7.777V7.7H29.6781V8.385H29.7911V7.874L29.8871 7.814L29.9811 7.791L30.0591 7.805L30.0971 7.844L30.1141 7.909L30.1181 7.994V8.384H30.2331V7.946L30.2311 7.91L30.2301 7.877L30.3271 7.815L30.4231 7.79L30.4991 7.804L30.5391 7.843L30.5541 7.909L30.5611 7.993V8.383H30.6751V7.94H30.6761L30.6221 7.75L30.4561 7.681Z" fill="#F0F0F0"/>
</g>
<defs>
<clipPath id="clip0_211_2968">
<rect width="35" height="22" fill="white"/>
</clipPath>
</defs>
</svg>
