<svg width="34" height="22" viewBox="0 0 34 22" fill="none" xmlns="http://www.w3.org/2000/svg">
<g clip-path="url(#clip0_211_2956)">
<path d="M32.4727 0H1.47266C0.920371 0 0.472656 0.447715 0.472656 1V21C0.472656 21.5523 0.920371 22 1.47266 22H32.4727C33.0249 22 33.4727 21.5523 33.4727 21V1C33.4727 0.447715 33.0249 0 32.4727 0Z" fill="#095845"/>
<path d="M33.073 0C33.556 0 33.947 0.391 33.947 0.874V21.126C33.947 21.609 33.557 22 33.073 22H0.873C0.641374 21.9997 0.419326 21.9075 0.255635 21.7437C0.0919444 21.5798 -1.51612e-07 21.3576 0 21.126L0 0.874C0 0.39 0.39 0 0.874 0H33.073ZM21.368 6.575C19.058 6.575 17.431 7.738 17.418 9.405C17.404 10.636 18.578 11.324 19.465 11.734C20.375 12.154 20.681 12.422 20.677 12.798C20.67 13.373 19.95 13.635 19.279 13.635C18.343 13.635 17.846 13.505 17.079 13.185L16.778 13.049L16.448 14.968C16.996 15.208 18.005 15.415 19.052 15.426C21.51 15.426 23.105 14.276 23.122 12.498C23.132 11.522 22.508 10.78 21.16 10.168C20.342 9.77 19.842 9.506 19.847 9.104C19.847 8.748 20.271 8.367 21.187 8.367C21.7861 8.35368 22.3815 8.46539 22.935 8.695L23.146 8.794L23.462 6.934C22.7908 6.69104 22.0818 6.57015 21.368 6.575ZM29.458 6.73H27.652C27.092 6.73 26.674 6.884 26.427 7.442L22.957 15.301H25.412C25.412 15.301 25.812 14.244 25.902 14.012L28.228 14.015H28.896C28.966 14.315 29.18 15.301 29.18 15.301H31.349L29.457 6.731L29.458 6.73ZM16.448 6.721H14.11L12.649 15.297H14.986L16.448 6.721ZM13.166 6.731H10.69L8.4 12.577L8.157 11.694C7.705 10.631 6.424 9.103 4.92 8.14L7.012 15.29L9.486 15.288L13.166 6.729V6.731ZM27.816 9.043L27.974 9.783L28.515 12.259H26.575L27.505 9.862C27.492 9.885 27.697 9.366 27.816 9.043ZM6.251 6.648H2.628L2.598 6.82C5.418 7.503 7.283 9.152 8.058 11.134L7.27 7.344C7.134 6.822 6.74 6.667 6.251 6.648Z" fill="#F0F0F0"/>
</g>
<defs>
<clipPath id="clip0_211_2956">
<rect width="34" height="22" fill="white"/>
</clipPath>
</defs>
</svg>
