<svg width="25" height="25" viewBox="0 0 25 25" fill="none" xmlns="http://www.w3.org/2000/svg">
<g clip-path="url(#clip0_254_3547)">
<path d="M24.9566 10.9619H18.0676L24.0468 7.49566L22.5304 4.89601L16.5511 8.36222L20.0173 2.38301L17.4177 0.866551L13.9515 6.84575V0H10.9619V6.88908L7.49566 0.909879L4.89601 2.42634L8.36222 8.40555L2.38301 4.93934L0.866551 7.53899L6.84575 11.0052H0V13.9948H6.88908L0.909879 17.461L2.42634 20.0607L8.40555 16.5945L4.93934 22.5736L7.53899 24.0902L11.0052 18.111V25H13.9948V18.0676L17.461 24.0468L20.0607 22.5304L16.5945 16.5511L22.5736 20.0173L24.0902 17.4177L18.111 13.9515H25V10.9619H24.9566ZM12.4783 16.2912C10.3553 16.2912 8.66551 14.6014 8.66551 12.4783C8.66551 10.3553 10.3553 8.66551 12.4783 8.66551C14.6014 8.66551 16.2912 10.3553 16.2912 12.4783C16.2912 14.6014 14.6014 16.2912 12.4783 16.2912Z" fill="#6363F2"/>
</g>
<defs>
<clipPath id="clip0_254_3547">
<rect width="25" height="25" fill="white"/>
</clipPath>
</defs>
</svg>
